<svg width="305" height="136" viewBox="0 0 305 136" fill="none" xmlns="http://www.w3.org/2000/svg">
<g filter="url(#filter0_ddd_3864_9927)">
<path d="M8 16C8 10.4772 12.4772 6 18 6H287C292.523 6 297 10.4772 297 16V116C297 121.523 292.523 126 287 126H18C12.4771 126 8 121.523 8 116V16Z" fill="#FDFDFD" shape-rendering="crispEdges"/>
<path d="M39.4716 33.5625C39.4186 33.0663 39.1951 32.6799 38.8011 32.4034C38.411 32.1269 37.9034 31.9886 37.2784 31.9886C36.839 31.9886 36.4621 32.0549 36.1477 32.1875C35.8333 32.3201 35.5928 32.5 35.4261 32.7273C35.2595 32.9545 35.1742 33.214 35.1705 33.5057C35.1705 33.7481 35.2254 33.9583 35.3352 34.1364C35.4489 34.3144 35.6023 34.4659 35.7955 34.5909C35.9886 34.7121 36.2027 34.8144 36.4375 34.8977C36.6723 34.9811 36.9091 35.0511 37.1477 35.108L38.2386 35.3807C38.678 35.483 39.1004 35.6212 39.5057 35.7955C39.9148 35.9697 40.2803 36.1894 40.6023 36.4545C40.928 36.7197 41.1856 37.0398 41.375 37.4148C41.5644 37.7898 41.6591 38.2292 41.6591 38.733C41.6591 39.4148 41.4848 40.0152 41.1364 40.5341C40.7879 41.0492 40.2841 41.4527 39.625 41.7443C38.9697 42.0322 38.1761 42.1761 37.2443 42.1761C36.339 42.1761 35.553 42.036 34.8864 41.7557C34.2235 41.4754 33.7045 41.0663 33.3295 40.5284C32.9583 39.9905 32.7576 39.3352 32.7273 38.5625H34.8011C34.8314 38.9678 34.9564 39.3049 35.1761 39.5739C35.3958 39.8428 35.6818 40.0436 36.0341 40.1761C36.3902 40.3087 36.7879 40.375 37.2273 40.375C37.6856 40.375 38.0871 40.3068 38.4318 40.1705C38.7803 40.0303 39.053 39.8371 39.25 39.5909C39.447 39.3409 39.5473 39.0492 39.5511 38.7159C39.5473 38.4129 39.4583 38.1629 39.2841 37.9659C39.1098 37.7652 38.8655 37.5985 38.5511 37.4659C38.2405 37.3295 37.8769 37.2083 37.4602 37.1023L36.1364 36.7614C35.178 36.5152 34.4205 36.142 33.8636 35.642C33.3106 35.1383 33.0341 34.4697 33.0341 33.6364C33.0341 32.9508 33.2197 32.3504 33.5909 31.8352C33.9659 31.3201 34.4754 30.9205 35.1193 30.6364C35.7633 30.3485 36.4924 30.2045 37.3068 30.2045C38.1326 30.2045 38.8561 30.3485 39.4773 30.6364C40.1023 30.9205 40.5928 31.3163 40.9489 31.8239C41.3049 32.3277 41.4886 32.9072 41.5 33.5625H39.4716ZM47.2543 42.1705C46.402 42.1705 45.6634 41.983 45.0384 41.608C44.4134 41.233 43.9285 40.7083 43.5838 40.0341C43.2429 39.3598 43.0724 38.572 43.0724 37.6705C43.0724 36.7689 43.2429 35.9792 43.5838 35.3011C43.9285 34.6231 44.4134 34.0966 45.0384 33.7216C45.6634 33.3466 46.402 33.1591 47.2543 33.1591C48.1065 33.1591 48.8452 33.3466 49.4702 33.7216C50.0952 34.0966 50.5781 34.6231 50.919 35.3011C51.2637 35.9792 51.4361 36.7689 51.4361 37.6705C51.4361 38.572 51.2637 39.3598 50.919 40.0341C50.5781 40.7083 50.0952 41.233 49.4702 41.608C48.8452 41.983 48.1065 42.1705 47.2543 42.1705ZM47.2656 40.5227C47.7277 40.5227 48.1141 40.3958 48.4247 40.142C48.7353 39.8845 48.9664 39.5398 49.1179 39.108C49.2732 38.6761 49.3509 38.1951 49.3509 37.6648C49.3509 37.1307 49.2732 36.6477 49.1179 36.2159C48.9664 35.7803 48.7353 35.4337 48.4247 35.1761C48.1141 34.9186 47.7277 34.7898 47.2656 34.7898C46.7921 34.7898 46.3982 34.9186 46.0838 35.1761C45.7732 35.4337 45.5402 35.7803 45.3849 36.2159C45.2334 36.6477 45.1577 37.1307 45.1577 37.6648C45.1577 38.1951 45.2334 38.6761 45.3849 39.108C45.5402 39.5398 45.7732 39.8845 46.0838 40.142C46.3982 40.3958 46.7921 40.5227 47.2656 40.5227ZM58.7443 38.3295V33.2727H60.8011V42H58.8068V40.4489H58.7159C58.5189 40.9375 58.1951 41.3371 57.7443 41.6477C57.2973 41.9583 56.7462 42.1136 56.0909 42.1136C55.5189 42.1136 55.0133 41.9867 54.5739 41.733C54.1383 41.4754 53.7973 41.1023 53.5511 40.6136C53.3049 40.1212 53.1818 39.5265 53.1818 38.8295V33.2727H55.2386V38.5114C55.2386 39.0644 55.3902 39.5038 55.6932 39.8295C55.9962 40.1553 56.3939 40.3182 56.8864 40.3182C57.1894 40.3182 57.483 40.2443 57.767 40.0966C58.0511 39.9489 58.2841 39.7292 58.4659 39.4375C58.6515 39.142 58.7443 38.7727 58.7443 38.3295ZM67.2741 33.2727V34.8636H62.2571V33.2727H67.2741ZM63.4957 31.1818H65.5526V39.375C65.5526 39.6515 65.5942 39.8636 65.6776 40.0114C65.7647 40.1553 65.8783 40.2538 66.0185 40.3068C66.1586 40.3598 66.3139 40.3864 66.4844 40.3864C66.6132 40.3864 66.7306 40.3769 66.8366 40.358C66.9465 40.339 67.0298 40.322 67.0866 40.3068L67.4332 41.9148C67.3234 41.9527 67.1662 41.9943 66.9616 42.0398C66.7609 42.0852 66.5147 42.1117 66.223 42.1193C65.7079 42.1345 65.2438 42.0568 64.831 41.8864C64.4181 41.7121 64.0904 41.4432 63.848 41.0795C63.6094 40.7159 63.492 40.2614 63.4957 39.7159V31.1818ZM71.2386 36.8864V42H69.1818V30.3636H71.1932V34.7557H71.2955C71.5 34.2633 71.8163 33.875 72.2443 33.5909C72.6761 33.303 73.2254 33.1591 73.892 33.1591C74.4981 33.1591 75.0265 33.286 75.4773 33.5398C75.928 33.7936 76.2765 34.1648 76.5227 34.6534C76.7727 35.142 76.8977 35.7386 76.8977 36.4432V42H74.8409V36.7614C74.8409 36.1742 74.6894 35.7178 74.3864 35.392C74.0871 35.0625 73.6667 34.8977 73.125 34.8977C72.7614 34.8977 72.4356 34.9773 72.1477 35.1364C71.8636 35.2917 71.6402 35.517 71.4773 35.8125C71.3182 36.108 71.2386 36.4659 71.2386 36.8864ZM82.858 42.1705C81.983 42.1705 81.2273 41.9886 80.5909 41.625C79.9583 41.2576 79.4716 40.7386 79.1307 40.0682C78.7898 39.3939 78.6193 38.6004 78.6193 37.6875C78.6193 36.7898 78.7898 36.0019 79.1307 35.3239C79.4754 34.642 79.9564 34.1117 80.5739 33.733C81.1913 33.3504 81.9167 33.1591 82.75 33.1591C83.2879 33.1591 83.7955 33.2462 84.2727 33.4205C84.7538 33.5909 85.178 33.8561 85.5455 34.2159C85.9167 34.5758 86.2083 35.0341 86.4205 35.5909C86.6326 36.1439 86.7386 36.803 86.7386 37.5682V38.1989H79.5852V36.8125H84.767C84.7633 36.4186 84.678 36.0682 84.5114 35.7614C84.3447 35.4508 84.1117 35.2064 83.8125 35.0284C83.517 34.8504 83.1723 34.7614 82.7784 34.7614C82.358 34.7614 81.9886 34.8636 81.6705 35.0682C81.3523 35.2689 81.1042 35.5341 80.9261 35.8636C80.7519 36.1894 80.6629 36.5473 80.6591 36.9375V38.1477C80.6591 38.6553 80.7519 39.0909 80.9375 39.4545C81.1231 39.8144 81.3826 40.0909 81.7159 40.2841C82.0492 40.4735 82.4394 40.5682 82.8864 40.5682C83.1856 40.5682 83.4564 40.5265 83.6989 40.4432C83.9413 40.3561 84.1515 40.2292 84.3295 40.0625C84.5076 39.8958 84.642 39.6894 84.733 39.4432L86.6534 39.6591C86.5322 40.1667 86.3011 40.6098 85.9602 40.9886C85.6231 41.3636 85.1913 41.6553 84.6648 41.8636C84.1383 42.0682 83.536 42.1705 82.858 42.1705ZM90.9901 42.1761C90.437 42.1761 89.9389 42.0777 89.4957 41.8807C89.0563 41.6799 88.7079 41.3845 88.4503 40.9943C88.1965 40.6042 88.0696 40.1231 88.0696 39.5511C88.0696 39.0587 88.1605 38.6515 88.3423 38.3295C88.5241 38.0076 88.7723 37.75 89.0866 37.5568C89.401 37.3636 89.7552 37.2178 90.1491 37.1193C90.5469 37.017 90.9579 36.9432 91.3821 36.8977C91.8935 36.8447 92.3082 36.7973 92.6264 36.7557C92.9446 36.7102 93.1757 36.642 93.3196 36.5511C93.4673 36.4564 93.5412 36.3106 93.5412 36.1136V36.0795C93.5412 35.6515 93.4143 35.3201 93.1605 35.0852C92.9067 34.8504 92.5412 34.733 92.0639 34.733C91.5601 34.733 91.1605 34.8428 90.8651 35.0625C90.5734 35.2822 90.3764 35.5417 90.2741 35.8409L88.3537 35.5682C88.5052 35.0379 88.7552 34.5947 89.1037 34.2386C89.4522 33.8788 89.8783 33.6098 90.3821 33.4318C90.8859 33.25 91.4427 33.1591 92.0526 33.1591C92.473 33.1591 92.8916 33.2083 93.3082 33.3068C93.7249 33.4053 94.1056 33.5682 94.4503 33.7955C94.795 34.0189 95.0715 34.3239 95.2798 34.7102C95.492 35.0966 95.598 35.5795 95.598 36.1591V42H93.6207V40.8011H93.5526C93.4276 41.0436 93.2514 41.2708 93.0241 41.483C92.8007 41.6913 92.5185 41.8598 92.1776 41.9886C91.8404 42.1136 91.4446 42.1761 90.9901 42.1761ZM91.5241 40.6648C91.937 40.6648 92.295 40.5833 92.598 40.4205C92.901 40.2538 93.134 40.0341 93.2969 39.7614C93.4635 39.4886 93.5469 39.1913 93.5469 38.8693V37.8409C93.4825 37.8939 93.3726 37.9432 93.2173 37.9886C93.0658 38.0341 92.8954 38.0739 92.706 38.108C92.5166 38.142 92.3291 38.1723 92.1435 38.1989C91.9579 38.2254 91.7969 38.2481 91.6605 38.267C91.3537 38.3087 91.0791 38.3769 90.8366 38.4716C90.5942 38.5663 90.4029 38.6989 90.2628 38.8693C90.1226 39.036 90.0526 39.2519 90.0526 39.517C90.0526 39.8958 90.1908 40.1818 90.4673 40.375C90.7438 40.5682 91.0961 40.6648 91.5241 40.6648ZM104.564 35.5795L102.689 35.7841C102.636 35.5947 102.543 35.4167 102.411 35.25C102.282 35.0833 102.107 34.9489 101.888 34.8466C101.668 34.7443 101.399 34.6932 101.081 34.6932C100.653 34.6932 100.293 34.786 100.001 34.9716C99.7135 35.1572 99.5715 35.3977 99.5753 35.6932C99.5715 35.947 99.6643 36.1534 99.8537 36.3125C100.047 36.4716 100.365 36.6023 100.808 36.7045L102.297 37.0227C103.123 37.2008 103.736 37.483 104.138 37.8693C104.543 38.2557 104.748 38.7614 104.751 39.3864C104.748 39.9356 104.587 40.4205 104.268 40.8409C103.954 41.2576 103.517 41.5833 102.956 41.8182C102.395 42.053 101.751 42.1705 101.024 42.1705C99.956 42.1705 99.0961 41.947 98.4446 41.5C97.7931 41.0492 97.4048 40.4223 97.2798 39.6193L99.2855 39.4261C99.3764 39.8201 99.5696 40.1174 99.8651 40.3182C100.161 40.5189 100.545 40.6193 101.018 40.6193C101.507 40.6193 101.899 40.5189 102.195 40.3182C102.494 40.1174 102.643 39.8693 102.643 39.5739C102.643 39.3239 102.547 39.1174 102.354 38.9545C102.164 38.7917 101.869 38.6667 101.467 38.5795L99.9787 38.267C99.1416 38.0928 98.5223 37.7992 98.1207 37.3864C97.7192 36.9697 97.5204 36.4432 97.5241 35.8068C97.5204 35.2689 97.6662 34.803 97.9616 34.4091C98.2609 34.0114 98.6757 33.7045 99.206 33.4886C99.7401 33.2689 100.356 33.1591 101.053 33.1591C102.075 33.1591 102.88 33.3769 103.467 33.8125C104.058 34.2481 104.424 34.8371 104.564 35.5795ZM110.805 33.2727V34.8636H105.788V33.2727H110.805ZM107.027 31.1818H109.084V39.375C109.084 39.6515 109.125 39.8636 109.209 40.0114C109.296 40.1553 109.41 40.2538 109.55 40.3068C109.69 40.3598 109.845 40.3864 110.016 40.3864C110.144 40.3864 110.262 40.3769 110.368 40.358C110.478 40.339 110.561 40.322 110.618 40.3068L110.964 41.9148C110.855 41.9527 110.697 41.9943 110.493 42.0398C110.292 42.0852 110.046 42.1117 109.754 42.1193C109.239 42.1345 108.775 42.0568 108.362 41.8864C107.949 41.7121 107.622 41.4432 107.379 41.0795C107.141 40.7159 107.023 40.2614 107.027 39.7159V31.1818ZM120.648 42.1591C119.83 42.1591 119.102 42.0189 118.466 41.7386C117.833 41.4583 117.333 41.0682 116.966 40.5682C116.598 40.0682 116.403 39.4905 116.381 38.8352H118.517C118.536 39.1496 118.64 39.4242 118.83 39.6591C119.019 39.8902 119.271 40.0701 119.585 40.1989C119.9 40.3277 120.252 40.392 120.642 40.392C121.059 40.392 121.428 40.3201 121.75 40.1761C122.072 40.0284 122.324 39.8239 122.506 39.5625C122.688 39.3011 122.777 39 122.773 38.6591C122.777 38.3068 122.686 37.9962 122.5 37.7273C122.314 37.4583 122.045 37.2481 121.693 37.0966C121.345 36.9451 120.924 36.8693 120.432 36.8693H119.403V35.2443H120.432C120.837 35.2443 121.191 35.1742 121.494 35.0341C121.801 34.8939 122.042 34.697 122.216 34.4432C122.39 34.1856 122.475 33.8883 122.472 33.5511C122.475 33.2216 122.402 32.9356 122.25 32.6932C122.102 32.447 121.892 32.2557 121.619 32.1193C121.35 31.983 121.034 31.9148 120.67 31.9148C120.314 31.9148 119.985 31.9792 119.682 32.108C119.379 32.2367 119.134 32.4205 118.949 32.6591C118.763 32.8939 118.665 33.1742 118.653 33.5H116.625C116.64 32.8485 116.828 32.2765 117.188 31.7841C117.551 31.2879 118.036 30.9015 118.642 30.625C119.248 30.3447 119.928 30.2045 120.682 30.2045C121.458 30.2045 122.133 30.3504 122.705 30.642C123.28 30.9299 123.725 31.3182 124.04 31.8068C124.354 32.2955 124.511 32.8352 124.511 33.4261C124.515 34.0814 124.322 34.6307 123.932 35.0739C123.545 35.517 123.038 35.8068 122.409 35.9432V36.0341C123.227 36.1477 123.854 36.4508 124.29 36.9432C124.729 37.4318 124.947 38.0398 124.943 38.767C124.943 39.4186 124.758 40.0019 124.386 40.517C124.019 41.0284 123.511 41.4299 122.864 41.7216C122.22 42.0133 121.481 42.1591 120.648 42.1591ZM127.007 42V30.3636H131.462C132.303 30.3636 133.001 30.4962 133.558 30.7614C134.119 31.0227 134.537 31.3807 134.814 31.8352C135.094 32.2898 135.234 32.8049 135.234 33.3807C135.234 33.8542 135.143 34.2595 134.962 34.5966C134.78 34.9299 134.536 35.2008 134.229 35.4091C133.922 35.6174 133.579 35.767 133.2 35.858V35.9716C133.613 35.9943 134.009 36.1212 134.388 36.3523C134.77 36.5795 135.083 36.9015 135.325 37.3182C135.568 37.7348 135.689 38.2386 135.689 38.8295C135.689 39.4318 135.543 39.9735 135.251 40.4545C134.96 40.9318 134.52 41.3087 133.933 41.5852C133.346 41.8617 132.607 42 131.717 42H127.007ZM129.115 40.2386H131.382C132.147 40.2386 132.698 40.0928 133.036 39.8011C133.376 39.5057 133.547 39.1269 133.547 38.6648C133.547 38.3201 133.462 38.0095 133.291 37.733C133.121 37.4527 132.878 37.233 132.564 37.0739C132.25 36.911 131.875 36.8295 131.439 36.8295H129.115V40.2386ZM129.115 35.3125H131.2C131.564 35.3125 131.892 35.2462 132.183 35.1136C132.475 34.9773 132.704 34.786 132.871 34.5398C133.041 34.2898 133.126 33.9943 133.126 33.6534C133.126 33.2027 132.967 32.8314 132.649 32.5398C132.335 32.2481 131.867 32.1023 131.246 32.1023H129.115V35.3125Z" fill="#303236"/>
<rect x="185" y="22" width="88" height="28" rx="8" fill="#CCEBDB"/>
<path d="M206.294 32.2102V31.2727H212.84V32.2102H210.096V40H209.039V32.2102H206.294ZM213.655 40V33.4545H214.626V34.4432H214.695C214.814 34.1193 215.03 33.8565 215.342 33.6548C215.655 33.4531 216.007 33.3523 216.399 33.3523C216.473 33.3523 216.565 33.3537 216.676 33.3565C216.787 33.3594 216.871 33.3636 216.928 33.3693V34.392C216.893 34.3835 216.815 34.3707 216.693 34.3537C216.574 34.3338 216.447 34.3239 216.314 34.3239C215.996 34.3239 215.712 34.3906 215.462 34.5241C215.214 34.6548 215.018 34.8366 214.874 35.0696C214.732 35.2997 214.661 35.5625 214.661 35.858V40H213.655ZM220.665 40.1364C220.034 40.1364 219.49 39.9972 219.033 39.7188C218.578 39.4375 218.227 39.0455 217.98 38.5426C217.736 38.0369 217.614 37.4489 217.614 36.7784C217.614 36.108 217.736 35.517 217.98 35.0057C218.227 34.4915 218.571 34.0909 219.011 33.804C219.455 33.5142 219.972 33.3693 220.562 33.3693C220.903 33.3693 221.24 33.4261 221.572 33.5398C221.905 33.6534 222.207 33.8381 222.48 34.0938C222.753 34.3466 222.97 34.6818 223.132 35.0994C223.294 35.517 223.375 36.0312 223.375 36.642V37.0682H218.33V36.1989H222.352C222.352 35.8295 222.278 35.5 222.131 35.2102C221.986 34.9205 221.778 34.6918 221.509 34.5241C221.241 34.3565 220.926 34.2727 220.562 34.2727C220.162 34.2727 219.815 34.3722 219.523 34.571C219.233 34.767 219.01 35.0227 218.854 35.3381C218.697 35.6534 218.619 35.9915 218.619 36.3523V36.9318C218.619 37.4261 218.705 37.8452 218.875 38.1889C219.048 38.5298 219.288 38.7898 219.595 38.9688C219.902 39.1449 220.259 39.233 220.665 39.233C220.929 39.233 221.168 39.196 221.381 39.1222C221.597 39.0455 221.783 38.9318 221.939 38.7812C222.095 38.6278 222.216 38.4375 222.301 38.2102L223.273 38.483C223.17 38.8125 222.999 39.1023 222.757 39.3523C222.516 39.5994 222.217 39.7926 221.862 39.9318C221.507 40.0682 221.108 40.1364 220.665 40.1364ZM226.831 40.1534C226.416 40.1534 226.04 40.0753 225.702 39.919C225.364 39.7599 225.095 39.5312 224.896 39.233C224.697 38.9318 224.598 38.5682 224.598 38.142C224.598 37.767 224.672 37.4631 224.82 37.2301C224.967 36.9943 225.165 36.8097 225.412 36.6761C225.659 36.5426 225.932 36.4432 226.23 36.3778C226.531 36.3097 226.834 36.2557 227.138 36.2159C227.536 36.1648 227.858 36.1264 228.105 36.1009C228.355 36.0724 228.537 36.0256 228.651 35.9602C228.767 35.8949 228.825 35.7812 228.825 35.6193V35.5852C228.825 35.1648 228.71 34.8381 228.48 34.6051C228.253 34.3722 227.908 34.2557 227.445 34.2557C226.964 34.2557 226.588 34.3608 226.315 34.571C226.043 34.7812 225.851 35.0057 225.74 35.2443L224.786 34.9034C224.956 34.5057 225.183 34.196 225.467 33.9744C225.754 33.75 226.067 33.5937 226.405 33.5057C226.746 33.4148 227.081 33.3693 227.411 33.3693C227.621 33.3693 227.862 33.3949 228.135 33.446C228.411 33.4943 228.676 33.5952 228.932 33.7486C229.19 33.902 229.405 34.1335 229.575 34.4432C229.746 34.7528 229.831 35.1676 229.831 35.6875V40H228.825V39.1136H228.774C228.706 39.2557 228.592 39.4077 228.433 39.5696C228.274 39.7315 228.063 39.8693 227.798 39.983C227.534 40.0966 227.212 40.1534 226.831 40.1534ZM226.984 39.25C227.382 39.25 227.717 39.1719 227.99 39.0156C228.266 38.8594 228.473 38.6577 228.612 38.4105C228.754 38.1634 228.825 37.9034 228.825 37.6307V36.7102C228.783 36.7614 228.689 36.8082 228.544 36.8509C228.402 36.8906 228.237 36.9261 228.05 36.9574C227.865 36.9858 227.685 37.0114 227.509 37.0341C227.335 37.054 227.195 37.071 227.087 37.0852C226.825 37.1193 226.581 37.1747 226.354 37.2514C226.129 37.3253 225.947 37.4375 225.808 37.5881C225.672 37.7358 225.604 37.9375 225.604 38.1932C225.604 38.5426 225.733 38.8068 225.991 38.9858C226.253 39.1619 226.584 39.25 226.984 39.25ZM234.513 33.4545V34.3068H231.121V33.4545H234.513ZM232.11 31.8864H233.115V38.125C233.115 38.4091 233.157 38.6222 233.239 38.7642C233.324 38.9034 233.432 38.9972 233.563 39.0455C233.696 39.0909 233.837 39.1136 233.985 39.1136C234.096 39.1136 234.186 39.108 234.257 39.0966C234.328 39.0824 234.385 39.071 234.428 39.0625L234.632 39.9659C234.564 39.9915 234.469 40.017 234.347 40.0426C234.225 40.071 234.07 40.0852 233.882 40.0852C233.598 40.0852 233.32 40.0241 233.047 39.902C232.777 39.7798 232.553 39.5938 232.374 39.3438C232.198 39.0938 232.11 38.7784 232.11 38.3977V31.8864ZM236.026 40V33.4545H237.032V40H236.026ZM236.537 32.3636C236.341 32.3636 236.172 32.2969 236.03 32.1634C235.891 32.0298 235.821 31.8693 235.821 31.6818C235.821 31.4943 235.891 31.3338 236.03 31.2003C236.172 31.0668 236.341 31 236.537 31C236.733 31 236.901 31.0668 237.04 31.2003C237.182 31.3338 237.253 31.4943 237.253 31.6818C237.253 31.8693 237.182 32.0298 237.04 32.1634C236.901 32.2969 236.733 32.3636 236.537 32.3636ZM239.879 36.0625V40H238.874V33.4545H239.845V34.4773H239.93C240.084 34.1449 240.317 33.8778 240.629 33.6761C240.942 33.4716 241.345 33.3693 241.839 33.3693C242.283 33.3693 242.67 33.4602 243.003 33.642C243.335 33.821 243.594 34.0938 243.778 34.4602C243.963 34.8239 244.055 35.2841 244.055 35.8409V40H243.05V35.9091C243.05 35.3949 242.916 34.9943 242.649 34.7074C242.382 34.4176 242.016 34.2727 241.55 34.2727C241.229 34.2727 240.942 34.3423 240.689 34.4815C240.439 34.6207 240.241 34.8239 240.097 35.0909C239.952 35.358 239.879 35.6818 239.879 36.0625ZM248.535 42.5909C248.049 42.5909 247.632 42.5284 247.282 42.4034C246.933 42.2812 246.642 42.1193 246.409 41.9176C246.179 41.7188 245.995 41.5057 245.859 41.2784L246.66 40.7159C246.751 40.8352 246.866 40.9716 247.005 41.125C247.145 41.2812 247.335 41.4162 247.576 41.5298C247.821 41.6463 248.14 41.7045 248.535 41.7045C249.064 41.7045 249.5 41.5767 249.843 41.321C250.187 41.0653 250.359 40.6648 250.359 40.1193V38.7898H250.274C250.2 38.9091 250.095 39.0568 249.958 39.233C249.825 39.4062 249.632 39.5611 249.379 39.6974C249.129 39.831 248.791 39.8977 248.365 39.8977C247.836 39.8977 247.362 39.7727 246.941 39.5227C246.524 39.2727 246.193 38.9091 245.949 38.4318C245.707 37.9545 245.586 37.375 245.586 36.6932C245.586 36.0227 245.704 35.4389 245.94 34.9418C246.176 34.4418 246.504 34.0554 246.924 33.7827C247.345 33.5071 247.831 33.3693 248.382 33.3693C248.808 33.3693 249.146 33.4403 249.396 33.5824C249.649 33.7216 249.842 33.8807 249.975 34.0597C250.112 34.2358 250.217 34.3807 250.291 34.4943H250.393V33.4545H251.365V40.1875C251.365 40.75 251.237 41.2074 250.981 41.5597C250.728 41.9148 250.387 42.1747 249.958 42.3395C249.532 42.5071 249.058 42.5909 248.535 42.5909ZM248.501 38.9943C248.904 38.9943 249.245 38.902 249.524 38.7173C249.802 38.5327 250.014 38.267 250.159 37.9205C250.304 37.5739 250.376 37.1591 250.376 36.6761C250.376 36.2045 250.305 35.7884 250.163 35.4276C250.021 35.0668 249.811 34.7841 249.532 34.5795C249.254 34.375 248.91 34.2727 248.501 34.2727C248.075 34.2727 247.72 34.3807 247.436 34.5966C247.154 34.8125 246.943 35.1023 246.801 35.4659C246.662 35.8295 246.592 36.233 246.592 36.6761C246.592 37.1307 246.663 37.5327 246.805 37.8821C246.95 38.2287 247.163 38.5014 247.444 38.7003C247.728 38.8963 248.081 38.9943 248.501 38.9943Z" fill="#5B816C"/>
<path d="M33.0568 86V77.2727H36.0057C36.6903 77.2727 37.25 77.3963 37.6847 77.6435C38.1222 77.8878 38.446 78.2188 38.6562 78.6364C38.8665 79.054 38.9716 79.5199 38.9716 80.0341C38.9716 80.5483 38.8665 81.0156 38.6562 81.4361C38.4489 81.8565 38.1278 82.1918 37.6932 82.4418C37.2585 82.6889 36.7017 82.8125 36.0227 82.8125H33.9091V81.875H35.9886C36.4574 81.875 36.8338 81.794 37.1179 81.6321C37.402 81.4702 37.608 81.2514 37.7358 80.9759C37.8665 80.6974 37.9318 80.3835 37.9318 80.0341C37.9318 79.6847 37.8665 79.3722 37.7358 79.0966C37.608 78.821 37.4006 78.6051 37.1136 78.4489C36.8267 78.2898 36.446 78.2102 35.9716 78.2102H34.1136V86H33.0568ZM42.4638 86.1534C42.049 86.1534 41.6726 86.0753 41.3345 85.919C40.9964 85.7599 40.728 85.5312 40.5291 85.233C40.3303 84.9318 40.2308 84.5682 40.2308 84.142C40.2308 83.767 40.3047 83.4631 40.4524 83.2301C40.6001 82.9943 40.7976 82.8097 41.0447 82.6761C41.2919 82.5426 41.5646 82.4432 41.8629 82.3778C42.1641 82.3097 42.4666 82.2557 42.7706 82.2159C43.1683 82.1648 43.4908 82.1264 43.7379 82.1009C43.9879 82.0724 44.1697 82.0256 44.2834 81.9602C44.3999 81.8949 44.4581 81.7812 44.4581 81.6193V81.5852C44.4581 81.1648 44.343 80.8381 44.1129 80.6051C43.8857 80.3722 43.5405 80.2557 43.0774 80.2557C42.5973 80.2557 42.2209 80.3608 41.9482 80.571C41.6754 80.7812 41.4837 81.0057 41.3729 81.2443L40.4183 80.9034C40.5888 80.5057 40.8161 80.196 41.1001 79.9744C41.3871 79.75 41.6996 79.5937 42.0376 79.5057C42.3786 79.4148 42.7138 79.3693 43.0433 79.3693C43.2536 79.3693 43.495 79.3949 43.7678 79.446C44.0433 79.4943 44.3089 79.5952 44.5646 79.7486C44.8232 79.902 45.0376 80.1335 45.2081 80.4432C45.3786 80.7528 45.4638 81.1676 45.4638 81.6875V86H44.4581V85.1136H44.407C44.3388 85.2557 44.2251 85.4077 44.0661 85.5696C43.907 85.7315 43.6953 85.8693 43.4311 85.983C43.1669 86.0966 42.8445 86.1534 42.4638 86.1534ZM42.6172 85.25C43.0149 85.25 43.3501 85.1719 43.6229 85.0156C43.8984 84.8594 44.1058 84.6577 44.245 84.4105C44.3871 84.1634 44.4581 83.9034 44.4581 83.6307V82.7102C44.4155 82.7614 44.3217 82.8082 44.1768 82.8509C44.0348 82.8906 43.87 82.9261 43.6825 82.9574C43.4979 82.9858 43.3175 83.0114 43.1413 83.0341C42.968 83.054 42.8274 83.071 42.7195 83.0852C42.4581 83.1193 42.2138 83.1747 41.9865 83.2514C41.7621 83.3253 41.5803 83.4375 41.4411 83.5881C41.3047 83.7358 41.2365 83.9375 41.2365 84.1932C41.2365 84.5426 41.3658 84.8068 41.6243 84.9858C41.8857 85.1619 42.2166 85.25 42.6172 85.25ZM51.4244 83.3239V79.4545H52.43V86H51.4244V84.892H51.3562C51.2028 85.2244 50.9641 85.5071 50.6403 85.7401C50.3164 85.9702 49.9073 86.0852 49.413 86.0852C49.0039 86.0852 48.6403 85.9957 48.3221 85.8168C48.0039 85.6349 47.7539 85.3622 47.5721 84.9986C47.3903 84.6321 47.2994 84.1705 47.2994 83.6136V79.4545H48.305V83.5455C48.305 84.0227 48.4386 84.4034 48.7056 84.6875C48.9755 84.9716 49.3192 85.1136 49.7369 85.1136C49.9869 85.1136 50.2411 85.0497 50.4996 84.9219C50.761 84.794 50.9798 84.598 51.1559 84.3338C51.3349 84.0696 51.4244 83.733 51.4244 83.3239ZM55.2777 77.2727V86H54.272V77.2727H55.2777ZM60.631 77.2727H61.8924L64.8583 84.517H64.9606L67.9265 77.2727H69.1879V86H68.1992V79.3693H68.114L65.3867 86H64.4322L61.7049 79.3693H61.6197V86H60.631V77.2727ZM73.0966 86.1534C72.6818 86.1534 72.3054 86.0753 71.9673 85.919C71.6293 85.7599 71.3608 85.5312 71.1619 85.233C70.9631 84.9318 70.8636 84.5682 70.8636 84.142C70.8636 83.767 70.9375 83.4631 71.0852 83.2301C71.233 82.9943 71.4304 82.8097 71.6776 82.6761C71.9247 82.5426 72.1974 82.4432 72.4957 82.3778C72.7969 82.3097 73.0994 82.2557 73.4034 82.2159C73.8011 82.1648 74.1236 82.1264 74.3707 82.1009C74.6207 82.0724 74.8026 82.0256 74.9162 81.9602C75.0327 81.8949 75.0909 81.7812 75.0909 81.6193V81.5852C75.0909 81.1648 74.9759 80.8381 74.7457 80.6051C74.5185 80.3722 74.1733 80.2557 73.7102 80.2557C73.2301 80.2557 72.8537 80.3608 72.581 80.571C72.3082 80.7812 72.1165 81.0057 72.0057 81.2443L71.0511 80.9034C71.2216 80.5057 71.4489 80.196 71.733 79.9744C72.0199 79.75 72.3324 79.5937 72.6705 79.5057C73.0114 79.4148 73.3466 79.3693 73.6761 79.3693C73.8864 79.3693 74.1278 79.3949 74.4006 79.446C74.6761 79.4943 74.9418 79.5952 75.1974 79.7486C75.456 79.902 75.6705 80.1335 75.8409 80.4432C76.0114 80.7528 76.0966 81.1676 76.0966 81.6875V86H75.0909V85.1136H75.0398C74.9716 85.2557 74.858 85.4077 74.6989 85.5696C74.5398 85.7315 74.3281 85.8693 74.0639 85.983C73.7997 86.0966 73.4773 86.1534 73.0966 86.1534ZM73.25 85.25C73.6477 85.25 73.983 85.1719 74.2557 85.0156C74.5313 84.8594 74.7386 84.6577 74.8778 84.4105C75.0199 84.1634 75.0909 83.9034 75.0909 83.6307V82.7102C75.0483 82.7614 74.9545 82.8082 74.8097 82.8509C74.6676 82.8906 74.5028 82.9261 74.3153 82.9574C74.1307 82.9858 73.9503 83.0114 73.7741 83.0341C73.6009 83.054 73.4602 83.071 73.3523 83.0852C73.0909 83.1193 72.8466 83.1747 72.6193 83.2514C72.3949 83.3253 72.2131 83.4375 72.0739 83.5881C71.9375 83.7358 71.8693 83.9375 71.8693 84.1932C71.8693 84.5426 71.9986 84.8068 72.2571 84.9858C72.5185 85.1619 72.8494 85.25 73.25 85.25ZM77.9322 86V79.4545H78.9038V80.4432H78.9719C79.0913 80.1193 79.3072 79.8565 79.6197 79.6548C79.9322 79.4531 80.2844 79.3523 80.6765 79.3523C80.7504 79.3523 80.8427 79.3537 80.9535 79.3565C81.0643 79.3594 81.1481 79.3636 81.2049 79.3693V80.392C81.1708 80.3835 81.0927 80.3707 80.9705 80.3537C80.8512 80.3338 80.7248 80.3239 80.5913 80.3239C80.2731 80.3239 79.989 80.3906 79.739 80.5241C79.4918 80.6548 79.2958 80.8366 79.1509 81.0696C79.0089 81.2997 78.9379 81.5625 78.9379 81.858V86H77.9322ZM83.3345 83.6136L83.3175 82.3693H83.522L86.3857 79.4545H87.63L84.5788 82.5398H84.4936L83.3345 83.6136ZM82.397 86V77.2727H83.4027V86H82.397ZM86.5561 86L83.9993 82.7614L84.7152 82.0625L87.8345 86H86.5561Z" fill="#4A4D52"/>
<path d="M92.4357 86V77.2727H95.3846C96.0664 77.2727 96.6261 77.3892 97.0636 77.6222C97.5011 77.8523 97.8249 78.169 98.0352 78.5724C98.2454 78.9759 98.3505 79.4347 98.3505 79.9489C98.3505 80.4631 98.2454 80.919 98.0352 81.3168C97.8249 81.7145 97.5025 82.027 97.0678 82.2543C96.6332 82.4787 96.0778 82.5909 95.4016 82.5909H93.0153V81.6364H95.3675C95.8335 81.6364 96.2085 81.5682 96.4925 81.4318C96.7795 81.2955 96.9869 81.1023 97.1147 80.8523C97.2454 80.5994 97.3107 80.2983 97.3107 79.9489C97.3107 79.5994 97.2454 79.294 97.1147 79.0327C96.984 78.7713 96.7752 78.5696 96.4883 78.4276C96.2013 78.2827 95.8221 78.2102 95.3505 78.2102H93.4925V86H92.4357ZM96.5437 82.0795L98.6914 86H97.4641L95.3505 82.0795H96.5437ZM101.901 86.1534C101.487 86.1534 101.11 86.0753 100.772 85.919C100.434 85.7599 100.165 85.5312 99.9666 85.233C99.7678 84.9318 99.6683 84.5682 99.6683 84.142C99.6683 83.767 99.7422 83.4631 99.8899 83.2301C100.038 82.9943 100.235 82.8097 100.482 82.6761C100.729 82.5426 101.002 82.4432 101.3 82.3778C101.602 82.3097 101.904 82.2557 102.208 82.2159C102.606 82.1648 102.928 82.1264 103.175 82.1009C103.425 82.0724 103.607 82.0256 103.721 81.9602C103.837 81.8949 103.896 81.7812 103.896 81.6193V81.5852C103.896 81.1648 103.781 80.8381 103.55 80.6051C103.323 80.3722 102.978 80.2557 102.515 80.2557C102.035 80.2557 101.658 80.3608 101.386 80.571C101.113 80.7812 100.921 81.0057 100.81 81.2443L99.8558 80.9034C100.026 80.5057 100.254 80.196 100.538 79.9744C100.825 79.75 101.137 79.5937 101.475 79.5057C101.816 79.4148 102.151 79.3693 102.481 79.3693C102.691 79.3693 102.933 79.3949 103.205 79.446C103.481 79.4943 103.746 79.5952 104.002 79.7486C104.261 79.902 104.475 80.1335 104.646 80.4432C104.816 80.7528 104.901 81.1676 104.901 81.6875V86H103.896V85.1136H103.844C103.776 85.2557 103.663 85.4077 103.504 85.5696C103.344 85.7315 103.133 85.8693 102.869 85.983C102.604 86.0966 102.282 86.1534 101.901 86.1534ZM102.055 85.25C102.452 85.25 102.788 85.1719 103.06 85.0156C103.336 84.8594 103.543 84.6577 103.683 84.4105C103.825 84.1634 103.896 83.9034 103.896 83.6307V82.7102C103.853 82.7614 103.759 82.8082 103.614 82.8509C103.472 82.8906 103.308 82.9261 103.12 82.9574C102.935 82.9858 102.755 83.0114 102.579 83.0341C102.406 83.054 102.265 83.071 102.157 83.0852C101.896 83.1193 101.651 83.1747 101.424 83.2514C101.2 83.3253 101.018 83.4375 100.879 83.5881C100.742 83.7358 100.674 83.9375 100.674 84.1932C100.674 84.5426 100.803 84.8068 101.062 84.9858C101.323 85.1619 101.654 85.25 102.055 85.25ZM109.208 86.1364C108.663 86.1364 108.181 85.9986 107.764 85.723C107.346 85.4446 107.02 85.0526 106.784 84.5469C106.548 84.0384 106.43 83.4375 106.43 82.7443C106.43 82.0568 106.548 81.4602 106.784 80.9545C107.02 80.4489 107.348 80.0582 107.768 79.7827C108.189 79.5071 108.674 79.3693 109.225 79.3693C109.652 79.3693 109.988 79.4403 110.235 79.5824C110.485 79.7216 110.676 79.8807 110.806 80.0597C110.94 80.2358 111.044 80.3807 111.118 80.4943H111.203V77.2727H112.208V86H111.237V84.9943H111.118C111.044 85.1136 110.939 85.2642 110.802 85.446C110.666 85.625 110.471 85.7855 110.218 85.9276C109.966 86.0668 109.629 86.1364 109.208 86.1364ZM109.345 85.233C109.748 85.233 110.089 85.1278 110.368 84.9176C110.646 84.7045 110.858 84.4105 111.002 84.0355C111.147 83.6577 111.22 83.2216 111.22 82.7273C111.22 82.2386 111.149 81.8111 111.007 81.4446C110.865 81.0753 110.654 80.7884 110.376 80.5838C110.098 80.3764 109.754 80.2727 109.345 80.2727C108.919 80.2727 108.564 80.3821 108.279 80.6009C107.998 80.8168 107.787 81.1108 107.645 81.483C107.505 81.8523 107.436 82.267 107.436 82.7273C107.436 83.1932 107.507 83.6165 107.649 83.9972C107.794 84.375 108.007 84.6761 108.288 84.9006C108.572 85.1222 108.924 85.233 109.345 85.233ZM114.19 86V79.4545H115.196V86H114.19ZM114.701 78.3636C114.505 78.3636 114.336 78.2969 114.194 78.1634C114.055 78.0298 113.985 77.8693 113.985 77.6818C113.985 77.4943 114.055 77.3338 114.194 77.2003C114.336 77.0668 114.505 77 114.701 77C114.897 77 115.065 77.0668 115.204 77.2003C115.346 77.3338 115.417 77.4943 115.417 77.6818C115.417 77.8693 115.346 78.0298 115.204 78.1634C115.065 78.2969 114.897 78.3636 114.701 78.3636ZM119.697 86.1364C119.106 86.1364 118.587 85.9957 118.141 85.7145C117.698 85.4332 117.352 85.0398 117.102 84.5341C116.854 84.0284 116.731 83.4375 116.731 82.7614C116.731 82.0795 116.854 81.4844 117.102 80.9759C117.352 80.4673 117.698 80.0724 118.141 79.7912C118.587 79.5099 119.106 79.3693 119.697 79.3693C120.288 79.3693 120.805 79.5099 121.248 79.7912C121.694 80.0724 122.04 80.4673 122.288 80.9759C122.538 81.4844 122.663 82.0795 122.663 82.7614C122.663 83.4375 122.538 84.0284 122.288 84.5341C122.04 85.0398 121.694 85.4332 121.248 85.7145C120.805 85.9957 120.288 86.1364 119.697 86.1364ZM119.697 85.233C120.146 85.233 120.515 85.1179 120.805 84.8878C121.094 84.6577 121.309 84.3551 121.448 83.9801C121.587 83.6051 121.657 83.1989 121.657 82.7614C121.657 82.3239 121.587 81.9162 121.448 81.5384C121.309 81.1605 121.094 80.8551 120.805 80.6222C120.515 80.3892 120.146 80.2727 119.697 80.2727C119.248 80.2727 118.879 80.3892 118.589 80.6222C118.299 80.8551 118.085 81.1605 117.945 81.5384C117.806 81.9162 117.737 82.3239 117.737 82.7614C117.737 83.1989 117.806 83.6051 117.945 83.9801C118.085 84.3551 118.299 84.6577 118.589 84.8878C118.879 85.1179 119.248 85.233 119.697 85.233ZM126.84 88.5909C126.354 88.5909 125.936 88.5284 125.587 88.4034C125.238 88.2812 124.946 88.1193 124.713 87.9176C124.483 87.7188 124.3 87.5057 124.164 87.2784L124.965 86.7159C125.056 86.8352 125.171 86.9716 125.31 87.125C125.449 87.2812 125.64 87.4162 125.881 87.5298C126.125 87.6463 126.445 87.7045 126.84 87.7045C127.368 87.7045 127.804 87.5767 128.148 87.321C128.492 87.0653 128.664 86.6648 128.664 86.1193V84.7898H128.578C128.505 84.9091 128.4 85.0568 128.263 85.233C128.13 85.4062 127.936 85.5611 127.684 85.6974C127.434 85.831 127.096 85.8977 126.669 85.8977C126.141 85.8977 125.667 85.7727 125.246 85.5227C124.828 85.2727 124.498 84.9091 124.253 84.4318C124.012 83.9545 123.891 83.375 123.891 82.6932C123.891 82.0227 124.009 81.4389 124.245 80.9418C124.48 80.4418 124.809 80.0554 125.229 79.7827C125.65 79.5071 126.135 79.3693 126.686 79.3693C127.113 79.3693 127.451 79.4403 127.701 79.5824C127.953 79.7216 128.147 79.8807 128.28 80.0597C128.417 80.2358 128.522 80.3807 128.596 80.4943H128.698V79.4545H129.669V86.1875C129.669 86.75 129.542 87.2074 129.286 87.5597C129.033 87.9148 128.692 88.1747 128.263 88.3395C127.837 88.5071 127.363 88.5909 126.84 88.5909ZM126.806 84.9943C127.209 84.9943 127.55 84.902 127.828 84.7173C128.107 84.5327 128.319 84.267 128.463 83.9205C128.608 83.5739 128.681 83.1591 128.681 82.6761C128.681 82.2045 128.61 81.7884 128.468 81.4276C128.326 81.0668 128.115 80.7841 127.837 80.5795C127.559 80.375 127.215 80.2727 126.806 80.2727C126.38 80.2727 126.025 80.3807 125.74 80.5966C125.459 80.8125 125.248 81.1023 125.105 81.4659C124.966 81.8295 124.897 82.233 124.897 82.6761C124.897 83.1307 124.968 83.5327 125.11 83.8821C125.255 84.2287 125.468 84.5014 125.749 84.7003C126.033 84.8963 126.385 84.9943 126.806 84.9943ZM131.51 86V79.4545H132.482V80.4432H132.55C132.669 80.1193 132.885 79.8565 133.198 79.6548C133.51 79.4531 133.863 79.3523 134.255 79.3523C134.328 79.3523 134.421 79.3537 134.532 79.3565C134.642 79.3594 134.726 79.3636 134.783 79.3693V80.392C134.749 80.3835 134.671 80.3707 134.549 80.3537C134.429 80.3338 134.303 80.3239 134.169 80.3239C133.851 80.3239 133.567 80.3906 133.317 80.5241C133.07 80.6548 132.874 80.8366 132.729 81.0696C132.587 81.2997 132.516 81.5625 132.516 81.858V86H131.51ZM137.901 86.1534C137.487 86.1534 137.11 86.0753 136.772 85.919C136.434 85.7599 136.165 85.5312 135.967 85.233C135.768 84.9318 135.668 84.5682 135.668 84.142C135.668 83.767 135.742 83.4631 135.89 83.2301C136.038 82.9943 136.235 82.8097 136.482 82.6761C136.729 82.5426 137.002 82.4432 137.3 82.3778C137.602 82.3097 137.904 82.2557 138.208 82.2159C138.606 82.1648 138.928 82.1264 139.175 82.1009C139.425 82.0724 139.607 82.0256 139.721 81.9602C139.837 81.8949 139.896 81.7812 139.896 81.6193V81.5852C139.896 81.1648 139.781 80.8381 139.55 80.6051C139.323 80.3722 138.978 80.2557 138.515 80.2557C138.035 80.2557 137.658 80.3608 137.386 80.571C137.113 80.7812 136.921 81.0057 136.81 81.2443L135.856 80.9034C136.026 80.5057 136.254 80.196 136.538 79.9744C136.825 79.75 137.137 79.5937 137.475 79.5057C137.816 79.4148 138.151 79.3693 138.481 79.3693C138.691 79.3693 138.933 79.3949 139.205 79.446C139.481 79.4943 139.746 79.5952 140.002 79.7486C140.261 79.902 140.475 80.1335 140.646 80.4432C140.816 80.7528 140.901 81.1676 140.901 81.6875V86H139.896V85.1136H139.844C139.776 85.2557 139.663 85.4077 139.504 85.5696C139.344 85.7315 139.133 85.8693 138.869 85.983C138.604 86.0966 138.282 86.1534 137.901 86.1534ZM138.055 85.25C138.452 85.25 138.788 85.1719 139.06 85.0156C139.336 84.8594 139.543 84.6577 139.683 84.4105C139.825 84.1634 139.896 83.9034 139.896 83.6307V82.7102C139.853 82.7614 139.759 82.8082 139.614 82.8509C139.472 82.8906 139.308 82.9261 139.12 82.9574C138.935 82.9858 138.755 83.0114 138.579 83.0341C138.406 83.054 138.265 83.071 138.157 83.0852C137.896 83.1193 137.651 83.1747 137.424 83.2514C137.2 83.3253 137.018 83.4375 136.879 83.5881C136.742 83.7358 136.674 83.9375 136.674 84.1932C136.674 84.5426 136.803 84.8068 137.062 84.9858C137.323 85.1619 137.654 85.25 138.055 85.25ZM142.737 88.4545V79.4545H143.708V80.4943H143.828C143.902 80.3807 144.004 80.2358 144.135 80.0597C144.268 79.8807 144.458 79.7216 144.706 79.5824C144.956 79.4403 145.294 79.3693 145.72 79.3693C146.271 79.3693 146.757 79.5071 147.177 79.7827C147.598 80.0582 147.926 80.4489 148.162 80.9545C148.397 81.4602 148.515 82.0568 148.515 82.7443C148.515 83.4375 148.397 84.0384 148.162 84.5469C147.926 85.0526 147.599 85.4446 147.181 85.723C146.764 85.9986 146.282 86.1364 145.737 86.1364C145.316 86.1364 144.98 86.0668 144.727 85.9276C144.474 85.7855 144.279 85.625 144.143 85.446C144.007 85.2642 143.902 85.1136 143.828 84.9943H143.743V88.4545H142.737ZM143.725 82.7273C143.725 83.2216 143.798 83.6577 143.943 84.0355C144.088 84.4105 144.299 84.7045 144.578 84.9176C144.856 85.1278 145.197 85.233 145.6 85.233C146.021 85.233 146.372 85.1222 146.653 84.9006C146.937 84.6761 147.15 84.375 147.292 83.9972C147.437 83.6165 147.51 83.1932 147.51 82.7273C147.51 82.267 147.439 81.8523 147.297 81.483C147.157 81.1108 146.946 80.8168 146.662 80.6009C146.38 80.3821 146.027 80.2727 145.6 80.2727C145.191 80.2727 144.848 80.3764 144.569 80.5838C144.291 80.7884 144.081 81.0753 143.939 81.4446C143.797 81.8111 143.725 82.2386 143.725 82.7273ZM151.055 82.0625V86H150.049V77.2727H151.055V80.4773H151.14C151.294 80.1392 151.524 79.8707 151.831 79.6719C152.14 79.4702 152.552 79.3693 153.066 79.3693C153.512 79.3693 153.903 79.4588 154.238 79.6378C154.574 79.8139 154.833 80.0852 155.018 80.4517C155.206 80.8153 155.299 81.2784 155.299 81.8409V86H154.294V81.9091C154.294 81.3892 154.159 80.9872 153.889 80.7031C153.622 80.4162 153.251 80.2727 152.777 80.2727C152.447 80.2727 152.152 80.3423 151.89 80.4815C151.632 80.6207 151.427 80.8239 151.277 81.0909C151.129 81.358 151.055 81.6818 151.055 82.0625ZM159.884 86.1364C159.253 86.1364 158.709 85.9972 158.251 85.7188C157.797 85.4375 157.446 85.0455 157.199 84.5426C156.955 84.0369 156.832 83.4489 156.832 82.7784C156.832 82.108 156.955 81.517 157.199 81.0057C157.446 80.4915 157.79 80.0909 158.23 79.804C158.673 79.5142 159.19 79.3693 159.781 79.3693C160.122 79.3693 160.459 79.4261 160.791 79.5398C161.124 79.6534 161.426 79.8381 161.699 80.0938C161.972 80.3466 162.189 80.6818 162.351 81.0994C162.513 81.517 162.594 82.0312 162.594 82.642V83.0682H157.548V82.1989H161.571C161.571 81.8295 161.497 81.5 161.349 81.2102C161.205 80.9205 160.997 80.6918 160.727 80.5241C160.46 80.3565 160.145 80.2727 159.781 80.2727C159.381 80.2727 159.034 80.3722 158.741 80.571C158.452 80.767 158.229 81.0227 158.072 81.3381C157.916 81.6534 157.838 81.9915 157.838 82.3523V82.9318C157.838 83.4261 157.923 83.8452 158.094 84.1889C158.267 84.5298 158.507 84.7898 158.814 84.9688C159.121 85.1449 159.477 85.233 159.884 85.233C160.148 85.233 160.386 85.196 160.599 85.1222C160.815 85.0455 161.001 84.9318 161.158 84.7812C161.314 84.6278 161.435 84.4375 161.52 84.2102L162.491 84.483C162.389 84.8125 162.217 85.1023 161.976 85.3523C161.734 85.5994 161.436 85.7926 161.081 85.9318C160.726 86.0682 160.327 86.1364 159.884 86.1364ZM164.124 86V79.4545H165.095V80.4432H165.163C165.283 80.1193 165.499 79.8565 165.811 79.6548C166.124 79.4531 166.476 79.3523 166.868 79.3523C166.942 79.3523 167.034 79.3537 167.145 79.3565C167.256 79.3594 167.339 79.3636 167.396 79.3693V80.392C167.362 80.3835 167.284 80.3707 167.162 80.3537C167.043 80.3338 166.916 80.3239 166.783 80.3239C166.464 80.3239 166.18 80.3906 165.93 80.5241C165.683 80.6548 165.487 80.8366 165.342 81.0696C165.2 81.2997 165.129 81.5625 165.129 81.858V86H164.124Z" fill="#888888"/>
<path d="M33.4148 106H32.3068L35.5114 97.2727H36.6023L39.8068 106H38.6989L36.0909 98.6534H36.0227L33.4148 106ZM33.8239 102.591H38.2898V103.528H33.8239V102.591ZM41.0298 106V99.4545H42.0014V100.443H42.0696C42.1889 100.119 42.4048 99.8565 42.7173 99.6548C43.0298 99.4531 43.3821 99.3523 43.7741 99.3523C43.848 99.3523 43.9403 99.3537 44.0511 99.3565C44.1619 99.3594 44.2457 99.3636 44.3026 99.3693V100.392C44.2685 100.384 44.1903 100.371 44.0682 100.354C43.9489 100.334 43.8224 100.324 43.6889 100.324C43.3707 100.324 43.0866 100.391 42.8366 100.524C42.5895 100.655 42.3935 100.837 42.2486 101.07C42.1065 101.3 42.0355 101.562 42.0355 101.858V106H41.0298ZM48.0398 106.136C47.4091 106.136 46.8651 105.997 46.4077 105.719C45.9531 105.438 45.6023 105.045 45.3551 104.543C45.1108 104.037 44.9886 103.449 44.9886 102.778C44.9886 102.108 45.1108 101.517 45.3551 101.006C45.6023 100.491 45.946 100.091 46.3864 99.804C46.8295 99.5142 47.3466 99.3693 47.9375 99.3693C48.2784 99.3693 48.6151 99.4261 48.9474 99.5398C49.2798 99.6534 49.5824 99.8381 49.8551 100.094C50.1278 100.347 50.3452 100.682 50.5071 101.099C50.669 101.517 50.75 102.031 50.75 102.642V103.068H45.7045V102.199H49.7273C49.7273 101.83 49.6534 101.5 49.5057 101.21C49.3608 100.92 49.1534 100.692 48.8835 100.524C48.6165 100.357 48.3011 100.273 47.9375 100.273C47.5369 100.273 47.1903 100.372 46.8977 100.571C46.608 100.767 46.3849 101.023 46.2287 101.338C46.0724 101.653 45.9943 101.991 45.9943 102.352V102.932C45.9943 103.426 46.0795 103.845 46.25 104.189C46.4233 104.53 46.6634 104.79 46.9702 104.969C47.277 105.145 47.6335 105.233 48.0398 105.233C48.304 105.233 48.5426 105.196 48.7557 105.122C48.9716 105.045 49.1577 104.932 49.3139 104.781C49.4702 104.628 49.5909 104.437 49.6761 104.21L50.6477 104.483C50.5455 104.812 50.3736 105.102 50.1321 105.352C49.8906 105.599 49.5923 105.793 49.2372 105.932C48.8821 106.068 48.483 106.136 48.0398 106.136ZM54.206 106.153C53.7912 106.153 53.4148 106.075 53.0767 105.919C52.7386 105.76 52.4702 105.531 52.2713 105.233C52.0724 104.932 51.973 104.568 51.973 104.142C51.973 103.767 52.0469 103.463 52.1946 103.23C52.3423 102.994 52.5398 102.81 52.7869 102.676C53.0341 102.543 53.3068 102.443 53.6051 102.378C53.9063 102.31 54.2088 102.256 54.5128 102.216C54.9105 102.165 55.233 102.126 55.4801 102.101C55.7301 102.072 55.9119 102.026 56.0256 101.96C56.142 101.895 56.2003 101.781 56.2003 101.619V101.585C56.2003 101.165 56.0852 100.838 55.8551 100.605C55.6278 100.372 55.2827 100.256 54.8196 100.256C54.3395 100.256 53.9631 100.361 53.6903 100.571C53.4176 100.781 53.2259 101.006 53.1151 101.244L52.1605 100.903C52.331 100.506 52.5582 100.196 52.8423 99.9744C53.1293 99.75 53.4418 99.5937 53.7798 99.5057C54.1207 99.4148 54.456 99.3693 54.7855 99.3693C54.9957 99.3693 55.2372 99.3949 55.5099 99.446C55.7855 99.4943 56.0511 99.5952 56.3068 99.7486C56.5653 99.902 56.7798 100.134 56.9503 100.443C57.1207 100.753 57.206 101.168 57.206 101.688V106H56.2003V105.114H56.1491C56.081 105.256 55.9673 105.408 55.8082 105.57C55.6491 105.732 55.4375 105.869 55.1733 105.983C54.9091 106.097 54.5866 106.153 54.206 106.153ZM54.3594 105.25C54.7571 105.25 55.0923 105.172 55.3651 105.016C55.6406 104.859 55.848 104.658 55.9872 104.411C56.1293 104.163 56.2003 103.903 56.2003 103.631V102.71C56.1577 102.761 56.0639 102.808 55.919 102.851C55.777 102.891 55.6122 102.926 55.4247 102.957C55.2401 102.986 55.0597 103.011 54.8835 103.034C54.7102 103.054 54.5696 103.071 54.4616 103.085C54.2003 103.119 53.956 103.175 53.7287 103.251C53.5043 103.325 53.3224 103.437 53.1832 103.588C53.0469 103.736 52.9787 103.937 52.9787 104.193C52.9787 104.543 53.108 104.807 53.3665 104.986C53.6278 105.162 53.9588 105.25 54.3594 105.25ZM62.5529 106V97.2727H65.5018C66.1836 97.2727 66.7433 97.3892 67.1808 97.6222C67.6183 97.8523 67.9421 98.169 68.1523 98.5724C68.3626 98.9759 68.4677 99.4347 68.4677 99.9489C68.4677 100.463 68.3626 100.919 68.1523 101.317C67.9421 101.714 67.6197 102.027 67.185 102.254C66.7504 102.479 66.195 102.591 65.5188 102.591H63.1325V101.636H65.4847C65.9506 101.636 66.3256 101.568 66.6097 101.432C66.8967 101.295 67.104 101.102 67.2319 100.852C67.3626 100.599 67.4279 100.298 67.4279 99.9489C67.4279 99.5994 67.3626 99.294 67.2319 99.0327C67.1012 98.7713 66.8924 98.5696 66.6055 98.4276C66.3185 98.2827 65.9393 98.2102 65.4677 98.2102H63.6097V106H62.5529ZM66.6609 102.08L68.8086 106H67.5813L65.4677 102.08H66.6609ZM72.7663 106.136C72.1357 106.136 71.5916 105.997 71.1342 105.719C70.6797 105.438 70.3288 105.045 70.0817 104.543C69.8374 104.037 69.7152 103.449 69.7152 102.778C69.7152 102.108 69.8374 101.517 70.0817 101.006C70.3288 100.491 70.6726 100.091 71.1129 99.804C71.5561 99.5142 72.0732 99.3693 72.6641 99.3693C73.005 99.3693 73.3416 99.4261 73.674 99.5398C74.0064 99.6534 74.3089 99.8381 74.5817 100.094C74.8544 100.347 75.0717 100.682 75.2337 101.099C75.3956 101.517 75.4766 102.031 75.4766 102.642V103.068H70.4311V102.199H74.4538C74.4538 101.83 74.38 101.5 74.2322 101.21C74.0874 100.92 73.88 100.692 73.6101 100.524C73.343 100.357 73.0277 100.273 72.6641 100.273C72.2635 100.273 71.9169 100.372 71.6243 100.571C71.3345 100.767 71.1115 101.023 70.9553 101.338C70.799 101.653 70.7209 101.991 70.7209 102.352V102.932C70.7209 103.426 70.8061 103.845 70.9766 104.189C71.1499 104.53 71.3899 104.79 71.6967 104.969C72.0036 105.145 72.3601 105.233 72.7663 105.233C73.0305 105.233 73.2692 105.196 73.4822 105.122C73.6982 105.045 73.8842 104.932 74.0405 104.781C74.1967 104.628 74.3175 104.437 74.4027 104.21L75.3743 104.483C75.272 104.812 75.1001 105.102 74.8587 105.352C74.6172 105.599 74.3189 105.793 73.9638 105.932C73.6087 106.068 73.2095 106.136 72.7663 106.136ZM81.6428 100.92L80.7393 101.176C80.6825 101.026 80.5987 100.879 80.4879 100.737C80.38 100.592 80.2322 100.473 80.0447 100.379C79.8572 100.286 79.6172 100.239 79.3246 100.239C78.924 100.239 78.5902 100.331 78.3232 100.516C78.0589 100.697 77.9268 100.929 77.9268 101.21C77.9268 101.46 78.0178 101.658 78.1996 101.803C78.3814 101.947 78.6655 102.068 79.0518 102.165L80.0234 102.403C80.6087 102.545 81.0447 102.763 81.3317 103.055C81.6186 103.345 81.7621 103.719 81.7621 104.176C81.7621 104.551 81.6541 104.886 81.4382 105.182C81.2251 105.477 80.9268 105.71 80.5433 105.881C80.1598 106.051 79.7138 106.136 79.2053 106.136C78.5376 106.136 77.9851 105.991 77.5476 105.702C77.1101 105.412 76.8331 104.989 76.7166 104.432L77.6712 104.193C77.7621 104.545 77.9339 104.81 78.1868 104.986C78.4425 105.162 78.7763 105.25 79.1882 105.25C79.657 105.25 80.0291 105.151 80.3047 104.952C80.5831 104.75 80.7223 104.509 80.7223 104.227C80.7223 104 80.6428 103.81 80.4837 103.656C80.3246 103.5 80.0803 103.384 79.7507 103.307L78.6598 103.051C78.0604 102.909 77.62 102.689 77.3388 102.391C77.0604 102.089 76.9212 101.713 76.9212 101.261C76.9212 100.892 77.0249 100.565 77.2322 100.281C77.4425 99.9972 77.728 99.7741 78.0888 99.6122C78.4524 99.4503 78.8643 99.3693 79.3246 99.3693C79.9723 99.3693 80.4808 99.5114 80.8501 99.7955C81.2223 100.08 81.4865 100.455 81.6428 100.92ZM83.2759 108.455V99.4545H84.2475V100.494H84.3668C84.4407 100.381 84.543 100.236 84.6737 100.06C84.8072 99.8807 84.9975 99.7216 85.2447 99.5824C85.4947 99.4403 85.8327 99.3693 86.2589 99.3693C86.81 99.3693 87.2958 99.5071 87.7163 99.7827C88.1367 100.058 88.4648 100.449 88.7006 100.955C88.9364 101.46 89.0543 102.057 89.0543 102.744C89.0543 103.438 88.9364 104.038 88.7006 104.547C88.4648 105.053 88.1381 105.445 87.7205 105.723C87.3029 105.999 86.8214 106.136 86.2759 106.136C85.8555 106.136 85.5188 106.067 85.266 105.928C85.0131 105.786 84.8185 105.625 84.6822 105.446C84.5458 105.264 84.4407 105.114 84.3668 104.994H84.2816V108.455H83.2759ZM84.2646 102.727C84.2646 103.222 84.337 103.658 84.4819 104.036C84.6268 104.411 84.8384 104.705 85.1168 104.918C85.3952 105.128 85.7362 105.233 86.1396 105.233C86.56 105.233 86.9109 105.122 87.1921 104.901C87.4762 104.676 87.6893 104.375 87.8313 103.997C87.9762 103.616 88.0487 103.193 88.0487 102.727C88.0487 102.267 87.9776 101.852 87.8356 101.483C87.6964 101.111 87.4847 100.817 87.2006 100.601C86.9194 100.382 86.5657 100.273 86.1396 100.273C85.7305 100.273 85.3867 100.376 85.1083 100.584C84.8299 100.788 84.6197 101.075 84.4776 101.445C84.3356 101.811 84.2646 102.239 84.2646 102.727ZM93.2475 106.136C92.6566 106.136 92.1381 105.996 91.6921 105.714C91.2489 105.433 90.9023 105.04 90.6523 104.534C90.4052 104.028 90.2816 103.437 90.2816 102.761C90.2816 102.08 90.4052 101.484 90.6523 100.976C90.9023 100.467 91.2489 100.072 91.6921 99.7912C92.1381 99.5099 92.6566 99.3693 93.2475 99.3693C93.8384 99.3693 94.3555 99.5099 94.7987 99.7912C95.2447 100.072 95.5913 100.467 95.8384 100.976C96.0884 101.484 96.2134 102.08 96.2134 102.761C96.2134 103.437 96.0884 104.028 95.8384 104.534C95.5913 105.04 95.2447 105.433 94.7987 105.714C94.3555 105.996 93.8384 106.136 93.2475 106.136ZM93.2475 105.233C93.6964 105.233 94.0657 105.118 94.3555 104.888C94.6452 104.658 94.8597 104.355 94.9989 103.98C95.1381 103.605 95.2077 103.199 95.2077 102.761C95.2077 102.324 95.1381 101.916 94.9989 101.538C94.8597 101.161 94.6452 100.855 94.3555 100.622C94.0657 100.389 93.6964 100.273 93.2475 100.273C92.7987 100.273 92.4293 100.389 92.1396 100.622C91.8498 100.855 91.6353 101.161 91.4961 101.538C91.3569 101.916 91.2873 102.324 91.2873 102.761C91.2873 103.199 91.3569 103.605 91.4961 103.98C91.6353 104.355 91.8498 104.658 92.1396 104.888C92.4293 105.118 92.7987 105.233 93.2475 105.233ZM98.7543 102.062V106H97.7486V99.4545H98.7202V100.477H98.8054C98.9588 100.145 99.1918 99.8778 99.5043 99.6761C99.8168 99.4716 100.22 99.3693 100.714 99.3693C101.158 99.3693 101.545 99.4602 101.878 99.642C102.21 99.821 102.469 100.094 102.653 100.46C102.838 100.824 102.93 101.284 102.93 101.841V106H101.925V101.909C101.925 101.395 101.791 100.994 101.524 100.707C101.257 100.418 100.891 100.273 100.425 100.273C100.104 100.273 99.8168 100.342 99.5639 100.482C99.3139 100.621 99.1165 100.824 98.9716 101.091C98.8267 101.358 98.7543 101.682 98.7543 102.062ZM109.404 100.92L108.501 101.176C108.444 101.026 108.36 100.879 108.25 100.737C108.142 100.592 107.994 100.473 107.806 100.379C107.619 100.286 107.379 100.239 107.086 100.239C106.686 100.239 106.352 100.331 106.085 100.516C105.821 100.697 105.689 100.929 105.689 101.21C105.689 101.46 105.779 101.658 105.961 101.803C106.143 101.947 106.427 102.068 106.814 102.165L107.785 102.403C108.37 102.545 108.806 102.763 109.093 103.055C109.38 103.345 109.524 103.719 109.524 104.176C109.524 104.551 109.416 104.886 109.2 105.182C108.987 105.477 108.689 105.71 108.305 105.881C107.922 106.051 107.475 106.136 106.967 106.136C106.299 106.136 105.747 105.991 105.309 105.702C104.872 105.412 104.595 104.989 104.478 104.432L105.433 104.193C105.524 104.545 105.696 104.81 105.949 104.986C106.204 105.162 106.538 105.25 106.95 105.25C107.419 105.25 107.791 105.151 108.066 104.952C108.345 104.75 108.484 104.509 108.484 104.227C108.484 104 108.404 103.81 108.245 103.656C108.086 103.5 107.842 103.384 107.512 103.307L106.422 103.051C105.822 102.909 105.382 102.689 105.1 102.391C104.822 102.089 104.683 101.713 104.683 101.261C104.683 100.892 104.787 100.565 104.994 100.281C105.204 99.9972 105.49 99.7741 105.85 99.6122C106.214 99.4503 106.626 99.3693 107.086 99.3693C107.734 99.3693 108.243 99.5114 108.612 99.7955C108.984 100.08 109.248 100.455 109.404 100.92ZM111.038 106V99.4545H112.043V106H111.038ZM111.549 98.3636C111.353 98.3636 111.184 98.2969 111.042 98.1634C110.903 98.0298 110.833 97.8693 110.833 97.6818C110.833 97.4943 110.903 97.3338 111.042 97.2003C111.184 97.0668 111.353 97 111.549 97C111.745 97 111.913 97.0668 112.052 97.2003C112.194 97.3338 112.265 97.4943 112.265 97.6818C112.265 97.8693 112.194 98.0298 112.052 98.1634C111.913 98.2969 111.745 98.3636 111.549 98.3636ZM114.022 106V97.2727H115.027V100.494H115.113C115.186 100.381 115.289 100.236 115.419 100.06C115.553 99.8807 115.743 99.7216 115.99 99.5824C116.24 99.4403 116.578 99.3693 117.005 99.3693C117.556 99.3693 118.042 99.5071 118.462 99.7827C118.882 100.058 119.211 100.449 119.446 100.955C119.682 101.46 119.8 102.057 119.8 102.744C119.8 103.438 119.682 104.038 119.446 104.547C119.211 105.053 118.884 105.445 118.466 105.723C118.049 105.999 117.567 106.136 117.022 106.136C116.601 106.136 116.265 106.067 116.012 105.928C115.759 105.786 115.564 105.625 115.428 105.446C115.292 105.264 115.186 105.114 115.113 104.994H114.993V106H114.022ZM115.01 102.727C115.01 103.222 115.083 103.658 115.228 104.036C115.373 104.411 115.584 104.705 115.863 104.918C116.141 105.128 116.482 105.233 116.885 105.233C117.306 105.233 117.657 105.122 117.938 104.901C118.222 104.676 118.435 104.375 118.577 103.997C118.722 103.616 118.794 103.193 118.794 102.727C118.794 102.267 118.723 101.852 118.581 101.483C118.442 101.111 118.23 100.817 117.946 100.601C117.665 100.382 117.311 100.273 116.885 100.273C116.476 100.273 116.132 100.376 115.854 100.584C115.576 100.788 115.365 101.075 115.223 101.445C115.081 101.811 115.01 102.239 115.01 102.727ZM121.338 106V99.4545H122.344V106H121.338ZM121.85 98.3636C121.654 98.3636 121.485 98.2969 121.343 98.1634C121.203 98.0298 121.134 97.8693 121.134 97.6818C121.134 97.4943 121.203 97.3338 121.343 97.2003C121.485 97.0668 121.654 97 121.85 97C122.046 97 122.213 97.0668 122.353 97.2003C122.495 97.3338 122.566 97.4943 122.566 97.6818C122.566 97.8693 122.495 98.0298 122.353 98.1634C122.213 98.2969 122.046 98.3636 121.85 98.3636ZM125.192 97.2727V106H124.186V97.2727H125.192ZM127.034 106V99.4545H128.039V106H127.034ZM127.545 98.3636C127.349 98.3636 127.18 98.2969 127.038 98.1634C126.899 98.0298 126.829 97.8693 126.829 97.6818C126.829 97.4943 126.899 97.3338 127.038 97.2003C127.18 97.0668 127.349 97 127.545 97C127.741 97 127.909 97.0668 128.048 97.2003C128.19 97.3338 128.261 97.4943 128.261 97.6818C128.261 97.8693 128.19 98.0298 128.048 98.1634C127.909 98.2969 127.741 98.3636 127.545 98.3636ZM132.728 99.4545V100.307H129.336V99.4545H132.728ZM130.325 97.8864H131.33V104.125C131.33 104.409 131.371 104.622 131.454 104.764C131.539 104.903 131.647 104.997 131.778 105.045C131.911 105.091 132.052 105.114 132.2 105.114C132.31 105.114 132.401 105.108 132.472 105.097C132.543 105.082 132.6 105.071 132.643 105.062L132.847 105.966C132.779 105.991 132.684 106.017 132.562 106.043C132.44 106.071 132.285 106.085 132.097 106.085C131.813 106.085 131.535 106.024 131.262 105.902C130.992 105.78 130.768 105.594 130.589 105.344C130.413 105.094 130.325 104.778 130.325 104.398V97.8864ZM134.888 108.455C134.718 108.455 134.566 108.44 134.433 108.412C134.299 108.386 134.207 108.361 134.156 108.335L134.411 107.449C134.656 107.511 134.871 107.534 135.059 107.517C135.246 107.5 135.413 107.416 135.558 107.266C135.705 107.118 135.84 106.878 135.962 106.545L136.15 106.034L133.729 99.4545H134.82L136.627 104.67H136.695L138.502 99.4545H139.593L136.815 106.955C136.69 107.293 136.535 107.572 136.35 107.794C136.165 108.018 135.951 108.185 135.707 108.293C135.465 108.401 135.192 108.455 134.888 108.455ZM148.932 100.92L148.028 101.176C147.972 101.026 147.888 100.879 147.777 100.737C147.669 100.592 147.521 100.473 147.334 100.379C147.146 100.286 146.906 100.239 146.614 100.239C146.213 100.239 145.879 100.331 145.612 100.516C145.348 100.697 145.216 100.929 145.216 101.21C145.216 101.46 145.307 101.658 145.489 101.803C145.67 101.947 145.955 102.068 146.341 102.165L147.312 102.403C147.898 102.545 148.334 102.763 148.621 103.055C148.908 103.345 149.051 103.719 149.051 104.176C149.051 104.551 148.943 104.886 148.727 105.182C148.514 105.477 148.216 105.71 147.832 105.881C147.449 106.051 147.003 106.136 146.494 106.136C145.827 106.136 145.274 105.991 144.837 105.702C144.399 105.412 144.122 104.989 144.006 104.432L144.96 104.193C145.051 104.545 145.223 104.81 145.476 104.986C145.732 105.162 146.065 105.25 146.477 105.25C146.946 105.25 147.318 105.151 147.594 104.952C147.872 104.75 148.011 104.509 148.011 104.227C148.011 104 147.932 103.81 147.773 103.656C147.614 103.5 147.369 103.384 147.04 103.307L145.949 103.051C145.349 102.909 144.909 102.689 144.628 102.391C144.349 102.089 144.21 101.713 144.21 101.261C144.21 100.892 144.314 100.565 144.521 100.281C144.732 99.9972 145.017 99.7741 145.378 99.6122C145.741 99.4503 146.153 99.3693 146.614 99.3693C147.261 99.3693 147.77 99.5114 148.139 99.7955C148.511 100.08 148.776 100.455 148.932 100.92ZM150.565 106V99.4545H151.571V106H150.565ZM151.076 98.3636C150.88 98.3636 150.711 98.2969 150.569 98.1634C150.43 98.0298 150.36 97.8693 150.36 97.6818C150.36 97.4943 150.43 97.3338 150.569 97.2003C150.711 97.0668 150.88 97 151.076 97C151.272 97 151.44 97.0668 151.579 97.2003C151.721 97.3338 151.792 97.4943 151.792 97.6818C151.792 97.8693 151.721 98.0298 151.579 98.1634C151.44 98.2969 151.272 98.3636 151.076 98.3636ZM154.418 102.062V106H153.413V99.4545H154.384V100.477H154.469C154.623 100.145 154.856 99.8778 155.168 99.6761C155.481 99.4716 155.884 99.3693 156.379 99.3693C156.822 99.3693 157.21 99.4602 157.542 99.642C157.874 99.821 158.133 100.094 158.317 100.46C158.502 100.824 158.594 101.284 158.594 101.841V106H157.589V101.909C157.589 101.395 157.455 100.994 157.188 100.707C156.921 100.418 156.555 100.273 156.089 100.273C155.768 100.273 155.481 100.342 155.228 100.482C154.978 100.621 154.781 100.824 154.636 101.091C154.491 101.358 154.418 101.682 154.418 102.062ZM163.091 106.136C162.478 106.136 161.949 105.991 161.506 105.702C161.063 105.412 160.722 105.013 160.483 104.504C160.245 103.996 160.125 103.415 160.125 102.761C160.125 102.097 160.248 101.51 160.492 101.001C160.739 100.49 161.083 100.091 161.523 99.804C161.966 99.5142 162.483 99.3693 163.074 99.3693C163.534 99.3693 163.949 99.4545 164.319 99.625C164.688 99.7955 164.99 100.034 165.226 100.341C165.462 100.648 165.608 101.006 165.665 101.415H164.659C164.583 101.116 164.412 100.852 164.148 100.622C163.887 100.389 163.534 100.273 163.091 100.273C162.699 100.273 162.355 100.375 162.06 100.58C161.767 100.781 161.539 101.067 161.374 101.436C161.212 101.803 161.131 102.233 161.131 102.727C161.131 103.233 161.211 103.673 161.37 104.048C161.532 104.423 161.759 104.714 162.051 104.922C162.347 105.129 162.694 105.233 163.091 105.233C163.353 105.233 163.59 105.188 163.803 105.097C164.016 105.006 164.196 104.875 164.344 104.705C164.492 104.534 164.597 104.33 164.659 104.091H165.665C165.608 104.477 165.468 104.825 165.243 105.135C165.022 105.442 164.728 105.686 164.361 105.868C163.998 106.047 163.574 106.136 163.091 106.136ZM169.88 106.136C169.249 106.136 168.705 105.997 168.248 105.719C167.793 105.438 167.442 105.045 167.195 104.543C166.951 104.037 166.828 103.449 166.828 102.778C166.828 102.108 166.951 101.517 167.195 101.006C167.442 100.491 167.786 100.091 168.226 99.804C168.669 99.5142 169.186 99.3693 169.777 99.3693C170.118 99.3693 170.455 99.4261 170.787 99.5398C171.12 99.6534 171.422 99.8381 171.695 100.094C171.968 100.347 172.185 100.682 172.347 101.099C172.509 101.517 172.59 102.031 172.59 102.642V103.068H167.544V102.199H171.567C171.567 101.83 171.493 101.5 171.346 101.21C171.201 100.92 170.993 100.692 170.723 100.524C170.456 100.357 170.141 100.273 169.777 100.273C169.377 100.273 169.03 100.372 168.738 100.571C168.448 100.767 168.225 101.023 168.069 101.338C167.912 101.653 167.834 101.991 167.834 102.352V102.932C167.834 103.426 167.919 103.845 168.09 104.189C168.263 104.53 168.503 104.79 168.81 104.969C169.117 105.145 169.473 105.233 169.88 105.233C170.144 105.233 170.382 105.196 170.596 105.122C170.811 105.045 170.998 104.932 171.154 104.781C171.31 104.628 171.431 104.437 171.516 104.21L172.488 104.483C172.385 104.812 172.213 105.102 171.972 105.352C171.73 105.599 171.432 105.793 171.077 105.932C170.722 106.068 170.323 106.136 169.88 106.136ZM174.853 106.068C174.642 106.068 174.462 105.993 174.311 105.842C174.161 105.692 174.086 105.511 174.086 105.301C174.086 105.091 174.161 104.911 174.311 104.76C174.462 104.609 174.642 104.534 174.853 104.534C175.063 104.534 175.243 104.609 175.394 104.76C175.544 104.911 175.62 105.091 175.62 105.301C175.62 105.44 175.584 105.568 175.513 105.685C175.445 105.801 175.353 105.895 175.236 105.966C175.123 106.034 174.995 106.068 174.853 106.068ZM174.853 101.21C174.642 101.21 174.462 101.135 174.311 100.984C174.161 100.834 174.086 100.653 174.086 100.443C174.086 100.233 174.161 100.053 174.311 99.902C174.462 99.7514 174.642 99.6761 174.853 99.6761C175.063 99.6761 175.243 99.7514 175.394 99.902C175.544 100.053 175.62 100.233 175.62 100.443C175.62 100.582 175.584 100.71 175.513 100.827C175.445 100.943 175.353 101.037 175.236 101.108C175.123 101.176 174.995 101.21 174.853 101.21Z" fill="#888888"/>
<path d="M188.972 97.2727V106H187.915V98.3807H187.864L185.733 99.7955V98.7216L187.915 97.2727H188.972ZM194.209 106.119C193.709 106.119 193.259 106.02 192.858 105.821C192.457 105.622 192.136 105.349 191.895 105.003C191.653 104.656 191.521 104.261 191.499 103.818H192.521C192.561 104.213 192.74 104.54 193.058 104.798C193.379 105.054 193.763 105.182 194.209 105.182C194.567 105.182 194.885 105.098 195.163 104.93C195.445 104.763 195.665 104.533 195.824 104.24C195.986 103.945 196.067 103.611 196.067 103.239C196.067 102.858 195.983 102.518 195.815 102.22C195.651 101.919 195.423 101.682 195.134 101.509C194.844 101.335 194.513 101.247 194.141 101.244C193.874 101.241 193.599 101.283 193.318 101.368C193.037 101.45 192.805 101.557 192.624 101.688L191.635 101.568L192.163 97.2727H196.697V98.2102H193.05L192.743 100.784H192.794C192.973 100.642 193.197 100.524 193.467 100.43C193.737 100.337 194.018 100.29 194.311 100.29C194.845 100.29 195.321 100.418 195.739 100.673C196.159 100.926 196.489 101.273 196.727 101.713C196.969 102.153 197.089 102.656 197.089 103.222C197.089 103.778 196.964 104.276 196.714 104.713C196.467 105.148 196.126 105.491 195.692 105.744C195.257 105.994 194.763 106.119 194.209 106.119ZM202.311 106V97.2727H207.544V98.2102H203.368V101.159H207.152V102.097H203.368V106H202.311ZM211.481 106.136C210.85 106.136 210.306 105.997 209.849 105.719C209.395 105.438 209.044 105.045 208.797 104.543C208.552 104.037 208.43 103.449 208.43 102.778C208.43 102.108 208.552 101.517 208.797 101.006C209.044 100.491 209.387 100.091 209.828 99.804C210.271 99.5142 210.788 99.3693 211.379 99.3693C211.72 99.3693 212.056 99.4261 212.389 99.5398C212.721 99.6534 213.024 99.8381 213.297 100.094C213.569 100.347 213.787 100.682 213.949 101.099C214.11 101.517 214.191 102.031 214.191 102.642V103.068H209.146V102.199H213.169C213.169 101.83 213.095 101.5 212.947 101.21C212.802 100.92 212.595 100.692 212.325 100.524C212.058 100.357 211.743 100.273 211.379 100.273C210.978 100.273 210.632 100.372 210.339 100.571C210.049 100.767 209.826 101.023 209.67 101.338C209.514 101.653 209.436 101.991 209.436 102.352V102.932C209.436 103.426 209.521 103.845 209.691 104.189C209.865 104.53 210.105 104.79 210.412 104.969C210.718 105.145 211.075 105.233 211.481 105.233C211.745 105.233 211.984 105.196 212.197 105.122C212.413 105.045 212.599 104.932 212.755 104.781C212.912 104.628 213.032 104.437 213.118 104.21L214.089 104.483C213.987 104.812 213.815 105.102 213.574 105.352C213.332 105.599 213.034 105.793 212.679 105.932C212.324 106.068 211.924 106.136 211.481 106.136ZM215.858 106V97.2727H216.863V100.494H216.949C217.022 100.381 217.125 100.236 217.255 100.06C217.389 99.8807 217.579 99.7216 217.826 99.5824C218.076 99.4403 218.414 99.3693 218.841 99.3693C219.392 99.3693 219.877 99.5071 220.298 99.7827C220.718 100.058 221.047 100.449 221.282 100.955C221.518 101.46 221.636 102.057 221.636 102.744C221.636 103.438 221.518 104.038 221.282 104.547C221.047 105.053 220.72 105.445 220.302 105.723C219.885 105.999 219.403 106.136 218.858 106.136C218.437 106.136 218.1 106.067 217.848 105.928C217.595 105.786 217.4 105.625 217.264 105.446C217.127 105.264 217.022 105.114 216.949 104.994H216.829V106H215.858ZM216.846 102.727C216.846 103.222 216.919 103.658 217.064 104.036C217.208 104.411 217.42 104.705 217.699 104.918C217.977 105.128 218.318 105.233 218.721 105.233C219.142 105.233 219.493 105.122 219.774 104.901C220.058 104.676 220.271 104.375 220.413 103.997C220.558 103.616 220.63 103.193 220.63 102.727C220.63 102.267 220.559 101.852 220.417 101.483C220.278 101.111 220.066 100.817 219.782 100.601C219.501 100.382 219.147 100.273 218.721 100.273C218.312 100.273 217.968 100.376 217.69 100.584C217.412 100.788 217.201 101.075 217.059 101.445C216.917 101.811 216.846 102.239 216.846 102.727ZM224.674 104.807L224.606 105.267C224.558 105.591 224.484 105.938 224.385 106.307C224.288 106.676 224.187 107.024 224.082 107.351C223.977 107.678 223.89 107.938 223.822 108.131H223.055C223.092 107.949 223.14 107.709 223.2 107.411C223.26 107.112 223.319 106.778 223.379 106.409C223.441 106.043 223.493 105.668 223.532 105.284L223.583 104.807H224.674ZM232.742 106.119C232.1 106.119 231.553 105.945 231.102 105.595C230.65 105.243 230.305 104.733 230.066 104.065C229.827 103.395 229.708 102.585 229.708 101.636C229.708 100.693 229.827 99.8878 230.066 99.2202C230.308 98.5497 230.654 98.0384 231.106 97.6861C231.56 97.331 232.106 97.1534 232.742 97.1534C233.379 97.1534 233.923 97.331 234.374 97.6861C234.829 98.0384 235.175 98.5497 235.414 99.2202C235.656 99.8878 235.776 100.693 235.776 101.636C235.776 102.585 235.657 103.395 235.418 104.065C235.18 104.733 234.835 105.243 234.383 105.595C233.931 105.945 233.384 106.119 232.742 106.119ZM232.742 105.182C233.379 105.182 233.873 104.875 234.225 104.261C234.577 103.648 234.754 102.773 234.754 101.636C234.754 100.881 234.673 100.237 234.511 99.706C234.352 99.1747 234.121 98.7699 233.82 98.4915C233.522 98.2131 233.163 98.0739 232.742 98.0739C232.112 98.0739 231.619 98.3849 231.263 99.0071C230.908 99.6264 230.731 100.503 230.731 101.636C230.731 102.392 230.81 103.034 230.969 103.562C231.129 104.091 231.357 104.493 231.656 104.768C231.957 105.044 232.319 105.182 232.742 105.182ZM240.174 97.1534C240.532 97.1562 240.89 97.2244 241.248 97.358C241.606 97.4915 241.933 97.7131 242.228 98.0227C242.523 98.3295 242.761 98.7486 242.94 99.2798C243.119 99.8111 243.208 100.477 243.208 101.278C243.208 102.054 243.134 102.743 242.987 103.345C242.842 103.945 242.631 104.45 242.356 104.862C242.083 105.274 241.751 105.587 241.359 105.8C240.969 106.013 240.529 106.119 240.038 106.119C239.549 106.119 239.113 106.023 238.729 105.83C238.349 105.634 238.036 105.362 237.792 105.016C237.55 104.666 237.396 104.261 237.327 103.801H238.367C238.461 104.202 238.647 104.533 238.925 104.794C239.207 105.053 239.577 105.182 240.038 105.182C240.711 105.182 241.242 104.888 241.631 104.3C242.023 103.712 242.219 102.881 242.219 101.807H242.151C241.992 102.045 241.803 102.251 241.585 102.425C241.366 102.598 241.123 102.732 240.856 102.825C240.589 102.919 240.305 102.966 240.004 102.966C239.504 102.966 239.045 102.842 238.627 102.595C238.212 102.345 237.88 102.003 237.63 101.568C237.383 101.131 237.259 100.631 237.259 100.068C237.259 99.5341 237.379 99.0455 237.617 98.6023C237.859 98.1562 238.197 97.8011 238.631 97.5369C239.069 97.2727 239.583 97.1449 240.174 97.1534ZM240.174 98.0909C239.816 98.0909 239.494 98.1804 239.207 98.3594C238.923 98.5355 238.697 98.7741 238.529 99.0753C238.364 99.3736 238.282 99.7045 238.282 100.068C238.282 100.432 238.362 100.763 238.521 101.061C238.683 101.357 238.903 101.592 239.181 101.768C239.462 101.942 239.782 102.028 240.14 102.028C240.41 102.028 240.661 101.976 240.894 101.871C241.127 101.763 241.33 101.616 241.504 101.432C241.68 101.244 241.817 101.033 241.917 100.797C242.016 100.558 242.066 100.31 242.066 100.051C242.066 99.7102 241.984 99.3906 241.819 99.0923C241.657 98.794 241.433 98.5526 241.146 98.3679C240.862 98.1832 240.538 98.0909 240.174 98.0909ZM245.634 104.884C245.424 104.884 245.243 104.808 245.093 104.658C244.942 104.507 244.867 104.327 244.867 104.116C244.867 103.906 244.942 103.726 245.093 103.575C245.243 103.425 245.424 103.349 245.634 103.349C245.844 103.349 246.025 103.425 246.175 103.575C246.326 103.726 246.401 103.906 246.401 104.116C246.401 104.256 246.365 104.384 246.294 104.5C246.226 104.616 246.134 104.71 246.017 104.781C245.904 104.849 245.776 104.884 245.634 104.884ZM245.634 100.469C245.424 100.469 245.243 100.393 245.093 100.243C244.942 100.092 244.867 99.9119 244.867 99.7017C244.867 99.4915 244.942 99.3111 245.093 99.1605C245.243 99.0099 245.424 98.9347 245.634 98.9347C245.844 98.9347 246.025 99.0099 246.175 99.1605C246.326 99.3111 246.401 99.4915 246.401 99.7017C246.401 99.8409 246.365 99.9688 246.294 100.085C246.226 100.202 246.134 100.295 246.017 100.366C245.904 100.435 245.776 100.469 245.634 100.469ZM251.137 106.119C250.575 106.119 250.074 106.023 249.633 105.83C249.196 105.636 248.848 105.368 248.589 105.024C248.333 104.678 248.194 104.276 248.172 103.818H249.245C249.268 104.099 249.365 104.342 249.535 104.547C249.706 104.749 249.929 104.905 250.204 105.016C250.48 105.126 250.785 105.182 251.12 105.182C251.495 105.182 251.828 105.116 252.118 104.986C252.407 104.855 252.635 104.673 252.799 104.44C252.964 104.207 253.047 103.938 253.047 103.631C253.047 103.31 252.967 103.027 252.808 102.783C252.649 102.536 252.416 102.342 252.109 102.203C251.802 102.064 251.427 101.994 250.984 101.994H250.285V101.057H250.984C251.331 101.057 251.635 100.994 251.896 100.869C252.16 100.744 252.366 100.568 252.514 100.341C252.664 100.114 252.74 99.8466 252.74 99.5398C252.74 99.2443 252.674 98.9872 252.544 98.7685C252.413 98.5497 252.228 98.3793 251.99 98.2571C251.754 98.1349 251.475 98.0739 251.154 98.0739C250.853 98.0739 250.569 98.1293 250.302 98.2401C250.038 98.348 249.822 98.5057 249.654 98.7131C249.487 98.9176 249.396 99.1648 249.382 99.4545H248.359C248.376 98.9972 248.514 98.5966 248.772 98.2528C249.031 97.9062 249.369 97.6364 249.787 97.4432C250.207 97.25 250.669 97.1534 251.172 97.1534C251.711 97.1534 252.174 97.2628 252.561 97.4815C252.947 97.6974 253.244 97.983 253.451 98.3381C253.659 98.6932 253.762 99.0767 253.762 99.4886C253.762 99.9801 253.633 100.399 253.375 100.746C253.119 101.092 252.771 101.332 252.331 101.466V101.534C252.882 101.625 253.312 101.859 253.622 102.237C253.931 102.612 254.086 103.077 254.086 103.631C254.086 104.105 253.957 104.531 253.699 104.909C253.443 105.284 253.093 105.58 252.65 105.795C252.207 106.011 251.703 106.119 251.137 106.119ZM258.676 106.119C258.034 106.119 257.487 105.945 257.035 105.595C256.583 105.243 256.238 104.733 256 104.065C255.761 103.395 255.642 102.585 255.642 101.636C255.642 100.693 255.761 99.8878 256 99.2202C256.241 98.5497 256.588 98.0384 257.039 97.6861C257.494 97.331 258.039 97.1534 258.676 97.1534C259.312 97.1534 259.856 97.331 260.308 97.6861C260.762 98.0384 261.109 98.5497 261.348 99.2202C261.589 99.8878 261.71 100.693 261.71 101.636C261.71 102.585 261.591 103.395 261.352 104.065C261.113 104.733 260.768 105.243 260.316 105.595C259.865 105.945 259.318 106.119 258.676 106.119ZM258.676 105.182C259.312 105.182 259.806 104.875 260.159 104.261C260.511 103.648 260.687 102.773 260.687 101.636C260.687 100.881 260.606 100.237 260.444 99.706C260.285 99.1747 260.055 98.7699 259.754 98.4915C259.456 98.2131 259.096 98.0739 258.676 98.0739C258.045 98.0739 257.552 98.3849 257.197 99.0071C256.842 99.6264 256.664 100.503 256.664 101.636C256.664 102.392 256.744 103.034 256.903 103.562C257.062 104.091 257.291 104.493 257.589 104.768C257.89 105.044 258.252 105.182 258.676 105.182Z" fill="#888888"/>
</g>
<defs>
<filter id="filter0_ddd_3864_9927" x="0" y="0" width="305" height="136" filterUnits="userSpaceOnUse" color-interpolation-filters="sRGB">
<feFlood flood-opacity="0" result="BackgroundImageFix"/>
<feColorMatrix in="SourceAlpha" type="matrix" values="0 0 0 0 0 0 0 0 0 0 0 0 0 0 0 0 0 0 127 0" result="hardAlpha"/>
<feOffset dy="2"/>
<feGaussianBlur stdDeviation="4"/>
<feComposite in2="hardAlpha" operator="out"/>
<feColorMatrix type="matrix" values="0 0 0 0 0 0 0 0 0 0 0 0 0 0 0 0 0 0 0.03 0"/>
<feBlend mode="normal" in2="BackgroundImageFix" result="effect1_dropShadow_3864_9927"/>
<feColorMatrix in="SourceAlpha" type="matrix" values="0 0 0 0 0 0 0 0 0 0 0 0 0 0 0 0 0 0 127 0" result="hardAlpha"/>
<feOffset dy="1"/>
<feGaussianBlur stdDeviation="1"/>
<feComposite in2="hardAlpha" operator="out"/>
<feColorMatrix type="matrix" values="0 0 0 0 0 0 0 0 0 0 0 0 0 0 0 0 0 0 0.06 0"/>
<feBlend mode="normal" in2="effect1_dropShadow_3864_9927" result="effect2_dropShadow_3864_9927"/>
<feColorMatrix in="SourceAlpha" type="matrix" values="0 0 0 0 0 0 0 0 0 0 0 0 0 0 0 0 0 0 127 0" result="hardAlpha"/>
<feOffset dy="4"/>
<feGaussianBlur stdDeviation="3"/>
<feComposite in2="hardAlpha" operator="out"/>
<feColorMatrix type="matrix" values="0 0 0 0 0 0 0 0 0 0 0 0 0 0 0 0 0 0 0.02 0"/>
<feBlend mode="normal" in2="effect2_dropShadow_3864_9927" result="effect3_dropShadow_3864_9927"/>
<feBlend mode="normal" in="SourceGraphic" in2="effect3_dropShadow_3864_9927" result="shape"/>
</filter>
</defs>
</svg>
