<svg width="305" height="136" viewBox="0 0 305 136" fill="none" xmlns="http://www.w3.org/2000/svg">
<g filter="url(#filter0_ddd_3864_9927)">
<path d="M8 16C8 10.4772 12.4772 6 18 6H287C292.523 6 297 10.4772 297 16V116C297 121.523 292.523 126 287 126H18C12.4771 126 8 121.523 8 116V16Z" fill="#FDFDFD" shape-rendering="crispEdges"/>
<path d="M39.4716 33.5625C39.4186 33.0663 39.1951 32.6799 38.8011 32.4034C38.411 32.1269 37.9034 31.9886 37.2784 31.9886C36.839 31.9886 36.4621 32.0549 36.1477 32.1875C35.8333 32.3201 35.5928 32.5 35.4261 32.7273C35.2595 32.9545 35.1742 33.214 35.1705 33.5057C35.1705 33.7481 35.2254 33.9583 35.3352 34.1364C35.4489 34.3144 35.6023 34.4659 35.7955 34.5909C35.9886 34.7121 36.2027 34.8144 36.4375 34.8977C36.6723 34.9811 36.9091 35.0511 37.1477 35.108L38.2386 35.3807C38.678 35.483 39.1004 35.6212 39.5057 35.7955C39.9148 35.9697 40.2803 36.1894 40.6023 36.4545C40.928 36.7197 41.1856 37.0398 41.375 37.4148C41.5644 37.7898 41.6591 38.2292 41.6591 38.733C41.6591 39.4148 41.4848 40.0152 41.1364 40.5341C40.7879 41.0492 40.2841 41.4527 39.625 41.7443C38.9697 42.0322 38.1761 42.1761 37.2443 42.1761C36.339 42.1761 35.553 42.036 34.8864 41.7557C34.2235 41.4754 33.7045 41.0663 33.3295 40.5284C32.9583 39.9905 32.7576 39.3352 32.7273 38.5625H34.8011C34.8314 38.9678 34.9564 39.3049 35.1761 39.5739C35.3958 39.8428 35.6818 40.0436 36.0341 40.1761C36.3902 40.3087 36.7879 40.375 37.2273 40.375C37.6856 40.375 38.0871 40.3068 38.4318 40.1705C38.7803 40.0303 39.053 39.8371 39.25 39.5909C39.447 39.3409 39.5473 39.0492 39.5511 38.7159C39.5473 38.4129 39.4583 38.1629 39.2841 37.9659C39.1098 37.7652 38.8655 37.5985 38.5511 37.4659C38.2405 37.3295 37.8769 37.2083 37.4602 37.1023L36.1364 36.7614C35.178 36.5152 34.4205 36.142 33.8636 35.642C33.3106 35.1383 33.0341 34.4697 33.0341 33.6364C33.0341 32.9508 33.2197 32.3504 33.5909 31.8352C33.9659 31.3201 34.4754 30.9205 35.1193 30.6364C35.7633 30.3485 36.4924 30.2045 37.3068 30.2045C38.1326 30.2045 38.8561 30.3485 39.4773 30.6364C40.1023 30.9205 40.5928 31.3163 40.9489 31.8239C41.3049 32.3277 41.4886 32.9072 41.5 33.5625H39.4716ZM47.2543 42.1705C46.402 42.1705 45.6634 41.983 45.0384 41.608C44.4134 41.233 43.9285 40.7083 43.5838 40.0341C43.2429 39.3598 43.0724 38.572 43.0724 37.6705C43.0724 36.7689 43.2429 35.9792 43.5838 35.3011C43.9285 34.6231 44.4134 34.0966 45.0384 33.7216C45.6634 33.3466 46.402 33.1591 47.2543 33.1591C48.1065 33.1591 48.8452 33.3466 49.4702 33.7216C50.0952 34.0966 50.5781 34.6231 50.919 35.3011C51.2637 35.9792 51.4361 36.7689 51.4361 37.6705C51.4361 38.572 51.2637 39.3598 50.919 40.0341C50.5781 40.7083 50.0952 41.233 49.4702 41.608C48.8452 41.983 48.1065 42.1705 47.2543 42.1705ZM47.2656 40.5227C47.7277 40.5227 48.1141 40.3958 48.4247 40.142C48.7353 39.8845 48.9664 39.5398 49.1179 39.108C49.2732 38.6761 49.3509 38.1951 49.3509 37.6648C49.3509 37.1307 49.2732 36.6477 49.1179 36.2159C48.9664 35.7803 48.7353 35.4337 48.4247 35.1761C48.1141 34.9186 47.7277 34.7898 47.2656 34.7898C46.7921 34.7898 46.3982 34.9186 46.0838 35.1761C45.7732 35.4337 45.5402 35.7803 45.3849 36.2159C45.2334 36.6477 45.1577 37.1307 45.1577 37.6648C45.1577 38.1951 45.2334 38.6761 45.3849 39.108C45.5402 39.5398 45.7732 39.8845 46.0838 40.142C46.3982 40.3958 46.7921 40.5227 47.2656 40.5227ZM58.7443 38.3295V33.2727H60.8011V42H58.8068V40.4489H58.7159C58.5189 40.9375 58.1951 41.3371 57.7443 41.6477C57.2973 41.9583 56.7462 42.1136 56.0909 42.1136C55.5189 42.1136 55.0133 41.9867 54.5739 41.733C54.1383 41.4754 53.7973 41.1023 53.5511 40.6136C53.3049 40.1212 53.1818 39.5265 53.1818 38.8295V33.2727H55.2386V38.5114C55.2386 39.0644 55.3902 39.5038 55.6932 39.8295C55.9962 40.1553 56.3939 40.3182 56.8864 40.3182C57.1894 40.3182 57.483 40.2443 57.767 40.0966C58.0511 39.9489 58.2841 39.7292 58.4659 39.4375C58.6515 39.142 58.7443 38.7727 58.7443 38.3295ZM67.2741 33.2727V34.8636H62.2571V33.2727H67.2741ZM63.4957 31.1818H65.5526V39.375C65.5526 39.6515 65.5942 39.8636 65.6776 40.0114C65.7647 40.1553 65.8783 40.2538 66.0185 40.3068C66.1586 40.3598 66.3139 40.3864 66.4844 40.3864C66.6132 40.3864 66.7306 40.3769 66.8366 40.358C66.9465 40.339 67.0298 40.322 67.0866 40.3068L67.4332 41.9148C67.3234 41.9527 67.1662 41.9943 66.9616 42.0398C66.7609 42.0852 66.5147 42.1117 66.223 42.1193C65.7079 42.1345 65.2438 42.0568 64.831 41.8864C64.4181 41.7121 64.0904 41.4432 63.848 41.0795C63.6094 40.7159 63.492 40.2614 63.4957 39.7159V31.1818ZM71.2386 36.8864V42H69.1818V30.3636H71.1932V34.7557H71.2955C71.5 34.2633 71.8163 33.875 72.2443 33.5909C72.6761 33.303 73.2254 33.1591 73.892 33.1591C74.4981 33.1591 75.0265 33.286 75.4773 33.5398C75.928 33.7936 76.2765 34.1648 76.5227 34.6534C76.7727 35.142 76.8977 35.7386 76.8977 36.4432V42H74.8409V36.7614C74.8409 36.1742 74.6894 35.7178 74.3864 35.392C74.0871 35.0625 73.6667 34.8977 73.125 34.8977C72.7614 34.8977 72.4356 34.9773 72.1477 35.1364C71.8636 35.2917 71.6402 35.517 71.4773 35.8125C71.3182 36.108 71.2386 36.4659 71.2386 36.8864ZM82.858 42.1705C81.983 42.1705 81.2273 41.9886 80.5909 41.625C79.9583 41.2576 79.4716 40.7386 79.1307 40.0682C78.7898 39.3939 78.6193 38.6004 78.6193 37.6875C78.6193 36.7898 78.7898 36.0019 79.1307 35.3239C79.4754 34.642 79.9564 34.1117 80.5739 33.733C81.1913 33.3504 81.9167 33.1591 82.75 33.1591C83.2879 33.1591 83.7955 33.2462 84.2727 33.4205C84.7538 33.5909 85.178 33.8561 85.5455 34.2159C85.9167 34.5758 86.2083 35.0341 86.4205 35.5909C86.6326 36.1439 86.7386 36.803 86.7386 37.5682V38.1989H79.5852V36.8125H84.767C84.7633 36.4186 84.678 36.0682 84.5114 35.7614C84.3447 35.4508 84.1117 35.2064 83.8125 35.0284C83.517 34.8504 83.1723 34.7614 82.7784 34.7614C82.358 34.7614 81.9886 34.8636 81.6705 35.0682C81.3523 35.2689 81.1042 35.5341 80.9261 35.8636C80.7519 36.1894 80.6629 36.5473 80.6591 36.9375V38.1477C80.6591 38.6553 80.7519 39.0909 80.9375 39.4545C81.1231 39.8144 81.3826 40.0909 81.7159 40.2841C82.0492 40.4735 82.4394 40.5682 82.8864 40.5682C83.1856 40.5682 83.4564 40.5265 83.6989 40.4432C83.9413 40.3561 84.1515 40.2292 84.3295 40.0625C84.5076 39.8958 84.642 39.6894 84.733 39.4432L86.6534 39.6591C86.5322 40.1667 86.3011 40.6098 85.9602 40.9886C85.6231 41.3636 85.1913 41.6553 84.6648 41.8636C84.1383 42.0682 83.536 42.1705 82.858 42.1705ZM90.9901 42.1761C90.437 42.1761 89.9389 42.0777 89.4957 41.8807C89.0563 41.6799 88.7079 41.3845 88.4503 40.9943C88.1965 40.6042 88.0696 40.1231 88.0696 39.5511C88.0696 39.0587 88.1605 38.6515 88.3423 38.3295C88.5241 38.0076 88.7723 37.75 89.0866 37.5568C89.401 37.3636 89.7552 37.2178 90.1491 37.1193C90.5469 37.017 90.9579 36.9432 91.3821 36.8977C91.8935 36.8447 92.3082 36.7973 92.6264 36.7557C92.9446 36.7102 93.1757 36.642 93.3196 36.5511C93.4673 36.4564 93.5412 36.3106 93.5412 36.1136V36.0795C93.5412 35.6515 93.4143 35.3201 93.1605 35.0852C92.9067 34.8504 92.5412 34.733 92.0639 34.733C91.5601 34.733 91.1605 34.8428 90.8651 35.0625C90.5734 35.2822 90.3764 35.5417 90.2741 35.8409L88.3537 35.5682C88.5052 35.0379 88.7552 34.5947 89.1037 34.2386C89.4522 33.8788 89.8783 33.6098 90.3821 33.4318C90.8859 33.25 91.4427 33.1591 92.0526 33.1591C92.473 33.1591 92.8916 33.2083 93.3082 33.3068C93.7249 33.4053 94.1056 33.5682 94.4503 33.7955C94.795 34.0189 95.0715 34.3239 95.2798 34.7102C95.492 35.0966 95.598 35.5795 95.598 36.1591V42H93.6207V40.8011H93.5526C93.4276 41.0436 93.2514 41.2708 93.0241 41.483C92.8007 41.6913 92.5185 41.8598 92.1776 41.9886C91.8404 42.1136 91.4446 42.1761 90.9901 42.1761ZM91.5241 40.6648C91.937 40.6648 92.295 40.5833 92.598 40.4205C92.901 40.2538 93.134 40.0341 93.2969 39.7614C93.4635 39.4886 93.5469 39.1913 93.5469 38.8693V37.8409C93.4825 37.8939 93.3726 37.9432 93.2173 37.9886C93.0658 38.0341 92.8954 38.0739 92.706 38.108C92.5166 38.142 92.3291 38.1723 92.1435 38.1989C91.9579 38.2254 91.7969 38.2481 91.6605 38.267C91.3537 38.3087 91.0791 38.3769 90.8366 38.4716C90.5942 38.5663 90.4029 38.6989 90.2628 38.8693C90.1226 39.036 90.0526 39.2519 90.0526 39.517C90.0526 39.8958 90.1908 40.1818 90.4673 40.375C90.7438 40.5682 91.0961 40.6648 91.5241 40.6648ZM104.564 35.5795L102.689 35.7841C102.636 35.5947 102.543 35.4167 102.411 35.25C102.282 35.0833 102.107 34.9489 101.888 34.8466C101.668 34.7443 101.399 34.6932 101.081 34.6932C100.653 34.6932 100.293 34.786 100.001 34.9716C99.7135 35.1572 99.5715 35.3977 99.5753 35.6932C99.5715 35.947 99.6643 36.1534 99.8537 36.3125C100.047 36.4716 100.365 36.6023 100.808 36.7045L102.297 37.0227C103.123 37.2008 103.736 37.483 104.138 37.8693C104.543 38.2557 104.748 38.7614 104.751 39.3864C104.748 39.9356 104.587 40.4205 104.268 40.8409C103.954 41.2576 103.517 41.5833 102.956 41.8182C102.395 42.053 101.751 42.1705 101.024 42.1705C99.956 42.1705 99.0961 41.947 98.4446 41.5C97.7931 41.0492 97.4048 40.4223 97.2798 39.6193L99.2855 39.4261C99.3764 39.8201 99.5696 40.1174 99.8651 40.3182C100.161 40.5189 100.545 40.6193 101.018 40.6193C101.507 40.6193 101.899 40.5189 102.195 40.3182C102.494 40.1174 102.643 39.8693 102.643 39.5739C102.643 39.3239 102.547 39.1174 102.354 38.9545C102.164 38.7917 101.869 38.6667 101.467 38.5795L99.9787 38.267C99.1416 38.0928 98.5223 37.7992 98.1207 37.3864C97.7192 36.9697 97.5204 36.4432 97.5241 35.8068C97.5204 35.2689 97.6662 34.803 97.9616 34.4091C98.2609 34.0114 98.6757 33.7045 99.206 33.4886C99.7401 33.2689 100.356 33.1591 101.053 33.1591C102.075 33.1591 102.88 33.3769 103.467 33.8125C104.058 34.2481 104.424 34.8371 104.564 35.5795ZM110.805 33.2727V34.8636H105.788V33.2727H110.805ZM107.027 31.1818H109.084V39.375C109.084 39.6515 109.125 39.8636 109.209 40.0114C109.296 40.1553 109.41 40.2538 109.55 40.3068C109.69 40.3598 109.845 40.3864 110.016 40.3864C110.144 40.3864 110.262 40.3769 110.368 40.358C110.478 40.339 110.561 40.322 110.618 40.3068L110.964 41.9148C110.855 41.9527 110.697 41.9943 110.493 42.0398C110.292 42.0852 110.046 42.1117 109.754 42.1193C109.239 42.1345 108.775 42.0568 108.362 41.8864C107.949 41.7121 107.622 41.4432 107.379 41.0795C107.141 40.7159 107.023 40.2614 107.027 39.7159V31.1818ZM120.648 42.1591C119.83 42.1591 119.102 42.0189 118.466 41.7386C117.833 41.4583 117.333 41.0682 116.966 40.5682C116.598 40.0682 116.403 39.4905 116.381 38.8352H118.517C118.536 39.1496 118.64 39.4242 118.83 39.6591C119.019 39.8902 119.271 40.0701 119.585 40.1989C119.9 40.3277 120.252 40.392 120.642 40.392C121.059 40.392 121.428 40.3201 121.75 40.1761C122.072 40.0284 122.324 39.8239 122.506 39.5625C122.688 39.3011 122.777 39 122.773 38.6591C122.777 38.3068 122.686 37.9962 122.5 37.7273C122.314 37.4583 122.045 37.2481 121.693 37.0966C121.345 36.9451 120.924 36.8693 120.432 36.8693H119.403V35.2443H120.432C120.837 35.2443 121.191 35.1742 121.494 35.0341C121.801 34.8939 122.042 34.697 122.216 34.4432C122.39 34.1856 122.475 33.8883 122.472 33.5511C122.475 33.2216 122.402 32.9356 122.25 32.6932C122.102 32.447 121.892 32.2557 121.619 32.1193C121.35 31.983 121.034 31.9148 120.67 31.9148C120.314 31.9148 119.985 31.9792 119.682 32.108C119.379 32.2367 119.134 32.4205 118.949 32.6591C118.763 32.8939 118.665 33.1742 118.653 33.5H116.625C116.64 32.8485 116.828 32.2765 117.188 31.7841C117.551 31.2879 118.036 30.9015 118.642 30.625C119.248 30.3447 119.928 30.2045 120.682 30.2045C121.458 30.2045 122.133 30.3504 122.705 30.642C123.28 30.9299 123.725 31.3182 124.04 31.8068C124.354 32.2955 124.511 32.8352 124.511 33.4261C124.515 34.0814 124.322 34.6307 123.932 35.0739C123.545 35.517 123.038 35.8068 122.409 35.9432V36.0341C123.227 36.1477 123.854 36.4508 124.29 36.9432C124.729 37.4318 124.947 38.0398 124.943 38.767C124.943 39.4186 124.758 40.0019 124.386 40.517C124.019 41.0284 123.511 41.4299 122.864 41.7216C122.22 42.0133 121.481 42.1591 120.648 42.1591ZM127.007 42V30.3636H131.462C132.303 30.3636 133.001 30.4962 133.558 30.7614C134.119 31.0227 134.537 31.3807 134.814 31.8352C135.094 32.2898 135.234 32.8049 135.234 33.3807C135.234 33.8542 135.143 34.2595 134.962 34.5966C134.78 34.9299 134.536 35.2008 134.229 35.4091C133.922 35.6174 133.579 35.767 133.2 35.858V35.9716C133.613 35.9943 134.009 36.1212 134.388 36.3523C134.77 36.5795 135.083 36.9015 135.325 37.3182C135.568 37.7348 135.689 38.2386 135.689 38.8295C135.689 39.4318 135.543 39.9735 135.251 40.4545C134.96 40.9318 134.52 41.3087 133.933 41.5852C133.346 41.8617 132.607 42 131.717 42H127.007ZM129.115 40.2386H131.382C132.147 40.2386 132.698 40.0928 133.036 39.8011C133.376 39.5057 133.547 39.1269 133.547 38.6648C133.547 38.3201 133.462 38.0095 133.291 37.733C133.121 37.4527 132.878 37.233 132.564 37.0739C132.25 36.911 131.875 36.8295 131.439 36.8295H129.115V40.2386ZM129.115 35.3125H131.2C131.564 35.3125 131.892 35.2462 132.183 35.1136C132.475 34.9773 132.704 34.786 132.871 34.5398C133.041 34.2898 133.126 33.9943 133.126 33.6534C133.126 33.2027 132.967 32.8314 132.649 32.5398C132.335 32.2481 131.867 32.1023 131.246 32.1023H129.115V35.3125Z" fill="#303236"/>
<rect x="185" y="22" width="88" height="28" rx="8" fill="#CCEBDB"/>
<path d="M206.294 32.2102V31.2727H212.84V32.2102H210.096V40H209.039V32.2102H206.294ZM213.655 40V33.4545H214.626V34.4432H214.695C214.814 34.1193 215.03 33.8565 215.342 33.6548C215.655 33.4531 216.007 33.3523 216.399 33.3523C216.473 33.3523 216.565 33.3537 216.676 33.3565C216.787 33.3594 216.871 33.3636 216.928 33.3693V34.392C216.893 34.3835 216.815 34.3707 216.693 34.3537C216.574 34.3338 216.447 34.3239 216.314 34.3239C215.996 34.3239 215.712 34.3906 215.462 34.5241C215.214 34.6548 215.018 34.8366 214.874 35.0696C214.732 35.2997 214.661 35.5625 214.661 35.858V40H213.655ZM220.665 40.1364C220.034 40.1364 219.49 39.9972 219.033 39.7188C218.578 39.4375 218.227 39.0455 217.98 38.5426C217.736 38.0369 217.614 37.4489 217.614 36.7784C217.614 36.108 217.736 35.517 217.98 35.0057C218.227 34.4915 218.571 34.0909 219.011 33.804C219.455 33.5142 219.972 33.3693 220.562 33.3693C220.903 33.3693 221.24 33.4261 221.572 33.5398C221.905 33.6534 222.207 33.8381 222.48 34.0938C222.753 34.3466 222.97 34.6818 223.132 35.0994C223.294 35.517 223.375 36.0312 223.375 36.642V37.0682H218.33V36.1989H222.352C222.352 35.8295 222.278 35.5 222.131 35.2102C221.986 34.9205 221.778 34.6918 221.509 34.5241C221.241 34.3565 220.926 34.2727 220.562 34.2727C220.162 34.2727 219.815 34.3722 219.523 34.571C219.233 34.767 219.01 35.0227 218.854 35.3381C218.697 35.6534 218.619 35.9915 218.619 36.3523V36.9318C218.619 37.4261 218.705 37.8452 218.875 38.1889C219.048 38.5298 219.288 38.7898 219.595 38.9688C219.902 39.1449 220.259 39.233 220.665 39.233C220.929 39.233 221.168 39.196 221.381 39.1222C221.597 39.0455 221.783 38.9318 221.939 38.7812C222.095 38.6278 222.216 38.4375 222.301 38.2102L223.273 38.483C223.17 38.8125 222.999 39.1023 222.757 39.3523C222.516 39.5994 222.217 39.7926 221.862 39.9318C221.507 40.0682 221.108 40.1364 220.665 40.1364ZM226.831 40.1534C226.416 40.1534 226.04 40.0753 225.702 39.919C225.364 39.7599 225.095 39.5312 224.896 39.233C224.697 38.9318 224.598 38.5682 224.598 38.142C224.598 37.767 224.672 37.4631 224.82 37.2301C224.967 36.9943 225.165 36.8097 225.412 36.6761C225.659 36.5426 225.932 36.4432 226.23 36.3778C226.531 36.3097 226.834 36.2557 227.138 36.2159C227.536 36.1648 227.858 36.1264 228.105 36.1009C228.355 36.0724 228.537 36.0256 228.651 35.9602C228.767 35.8949 228.825 35.7812 228.825 35.6193V35.5852C228.825 35.1648 228.71 34.8381 228.48 34.6051C228.253 34.3722 227.908 34.2557 227.445 34.2557C226.964 34.2557 226.588 34.3608 226.315 34.571C226.043 34.7812 225.851 35.0057 225.74 35.2443L224.786 34.9034C224.956 34.5057 225.183 34.196 225.467 33.9744C225.754 33.75 226.067 33.5937 226.405 33.5057C226.746 33.4148 227.081 33.3693 227.411 33.3693C227.621 33.3693 227.862 33.3949 228.135 33.446C228.411 33.4943 228.676 33.5952 228.932 33.7486C229.19 33.902 229.405 34.1335 229.575 34.4432C229.746 34.7528 229.831 35.1676 229.831 35.6875V40H228.825V39.1136H228.774C228.706 39.2557 228.592 39.4077 228.433 39.5696C228.274 39.7315 228.063 39.8693 227.798 39.983C227.534 40.0966 227.212 40.1534 226.831 40.1534ZM226.984 39.25C227.382 39.25 227.717 39.1719 227.99 39.0156C228.266 38.8594 228.473 38.6577 228.612 38.4105C228.754 38.1634 228.825 37.9034 228.825 37.6307V36.7102C228.783 36.7614 228.689 36.8082 228.544 36.8509C228.402 36.8906 228.237 36.9261 228.05 36.9574C227.865 36.9858 227.685 37.0114 227.509 37.0341C227.335 37.054 227.195 37.071 227.087 37.0852C226.825 37.1193 226.581 37.1747 226.354 37.2514C226.129 37.3253 225.947 37.4375 225.808 37.5881C225.672 37.7358 225.604 37.9375 225.604 38.1932C225.604 38.5426 225.733 38.8068 225.991 38.9858C226.253 39.1619 226.584 39.25 226.984 39.25ZM234.513 33.4545V34.3068H231.121V33.4545H234.513ZM232.11 31.8864H233.115V38.125C233.115 38.4091 233.157 38.6222 233.239 38.7642C233.324 38.9034 233.432 38.9972 233.563 39.0455C233.696 39.0909 233.837 39.1136 233.985 39.1136C234.096 39.1136 234.186 39.108 234.257 39.0966C234.328 39.0824 234.385 39.071 234.428 39.0625L234.632 39.9659C234.564 39.9915 234.469 40.017 234.347 40.0426C234.225 40.071 234.07 40.0852 233.882 40.0852C233.598 40.0852 233.32 40.0241 233.047 39.902C232.777 39.7798 232.553 39.5938 232.374 39.3438C232.198 39.0938 232.11 38.7784 232.11 38.3977V31.8864ZM236.026 40V33.4545H237.032V40H236.026ZM236.537 32.3636C236.341 32.3636 236.172 32.2969 236.03 32.1634C235.891 32.0298 235.821 31.8693 235.821 31.6818C235.821 31.4943 235.891 31.3338 236.03 31.2003C236.172 31.0668 236.341 31 236.537 31C236.733 31 236.901 31.0668 237.04 31.2003C237.182 31.3338 237.253 31.4943 237.253 31.6818C237.253 31.8693 237.182 32.0298 237.04 32.1634C236.901 32.2969 236.733 32.3636 236.537 32.3636ZM239.879 36.0625V40H238.874V33.4545H239.845V34.4773H239.93C240.084 34.1449 240.317 33.8778 240.629 33.6761C240.942 33.4716 241.345 33.3693 241.839 33.3693C242.283 33.3693 242.67 33.4602 243.003 33.642C243.335 33.821 243.594 34.0938 243.778 34.4602C243.963 34.8239 244.055 35.2841 244.055 35.8409V40H243.05V35.9091C243.05 35.3949 242.916 34.9943 242.649 34.7074C242.382 34.4176 242.016 34.2727 241.55 34.2727C241.229 34.2727 240.942 34.3423 240.689 34.4815C240.439 34.6207 240.241 34.8239 240.097 35.0909C239.952 35.358 239.879 35.6818 239.879 36.0625ZM248.535 42.5909C248.049 42.5909 247.632 42.5284 247.282 42.4034C246.933 42.2812 246.642 42.1193 246.409 41.9176C246.179 41.7188 245.995 41.5057 245.859 41.2784L246.66 40.7159C246.751 40.8352 246.866 40.9716 247.005 41.125C247.145 41.2812 247.335 41.4162 247.576 41.5298C247.821 41.6463 248.14 41.7045 248.535 41.7045C249.064 41.7045 249.5 41.5767 249.843 41.321C250.187 41.0653 250.359 40.6648 250.359 40.1193V38.7898H250.274C250.2 38.9091 250.095 39.0568 249.958 39.233C249.825 39.4062 249.632 39.5611 249.379 39.6974C249.129 39.831 248.791 39.8977 248.365 39.8977C247.836 39.8977 247.362 39.7727 246.941 39.5227C246.524 39.2727 246.193 38.9091 245.949 38.4318C245.707 37.9545 245.586 37.375 245.586 36.6932C245.586 36.0227 245.704 35.4389 245.94 34.9418C246.176 34.4418 246.504 34.0554 246.924 33.7827C247.345 33.5071 247.831 33.3693 248.382 33.3693C248.808 33.3693 249.146 33.4403 249.396 33.5824C249.649 33.7216 249.842 33.8807 249.975 34.0597C250.112 34.2358 250.217 34.3807 250.291 34.4943H250.393V33.4545H251.365V40.1875C251.365 40.75 251.237 41.2074 250.981 41.5597C250.728 41.9148 250.387 42.1747 249.958 42.3395C249.532 42.5071 249.058 42.5909 248.535 42.5909ZM248.501 38.9943C248.904 38.9943 249.245 38.902 249.524 38.7173C249.802 38.5327 250.014 38.267 250.159 37.9205C250.304 37.5739 250.376 37.1591 250.376 36.6761C250.376 36.2045 250.305 35.7884 250.163 35.4276C250.021 35.0668 249.811 34.7841 249.532 34.5795C249.254 34.375 248.91 34.2727 248.501 34.2727C248.075 34.2727 247.72 34.3807 247.436 34.5966C247.154 34.8125 246.943 35.1023 246.801 35.4659C246.662 35.8295 246.592 36.233 246.592 36.6761C246.592 37.1307 246.663 37.5327 246.805 37.8821C246.95 38.2287 247.163 38.5014 247.444 38.7003C247.728 38.8963 248.081 38.9943 248.501 38.9943Z" fill="#5B816C"/>
<path d="M33.0568 86V77.2727H38.3239V78.2102H34.1136V81.1591H38.0511V82.0966H34.1136V85.0625H38.392V86H33.0568ZM40.0923 86V79.4545H41.0639V80.4773H41.1491C41.2855 80.1278 41.5057 79.8565 41.8097 79.6634C42.1136 79.4673 42.4787 79.3693 42.9048 79.3693C43.3366 79.3693 43.696 79.4673 43.983 79.6634C44.2727 79.8565 44.4986 80.1278 44.6605 80.4773H44.7287C44.8963 80.1392 45.1477 79.8707 45.483 79.6719C45.8182 79.4702 46.2202 79.3693 46.6889 79.3693C47.2741 79.3693 47.7528 79.5526 48.125 79.919C48.4972 80.2827 48.6832 80.8494 48.6832 81.6193V86H47.6776V81.6193C47.6776 81.1364 47.5455 80.7912 47.2812 80.5838C47.017 80.3764 46.706 80.2727 46.348 80.2727C45.8878 80.2727 45.5313 80.4119 45.2784 80.6903C45.0256 80.9659 44.8991 81.3153 44.8991 81.7386V86H43.8764V81.517C43.8764 81.1449 43.7557 80.8452 43.5142 80.6179C43.2727 80.3878 42.9616 80.2727 42.581 80.2727C42.3196 80.2727 42.0753 80.3423 41.848 80.4815C41.6236 80.6207 41.4418 80.8139 41.3026 81.0611C41.1662 81.3054 41.098 81.5881 41.098 81.9091V86H40.0923ZM50.522 86V79.4545H51.5277V86H50.522ZM51.0334 78.3636C50.8374 78.3636 50.6683 78.2969 50.5263 78.1634C50.3871 78.0298 50.3175 77.8693 50.3175 77.6818C50.3175 77.4943 50.3871 77.3338 50.5263 77.2003C50.6683 77.0668 50.8374 77 51.0334 77C51.2294 77 51.397 77.0668 51.5362 77.2003C51.6783 77.3338 51.7493 77.4943 51.7493 77.6818C51.7493 77.8693 51.6783 78.0298 51.5362 78.1634C51.397 78.2969 51.2294 78.3636 51.0334 78.3636ZM54.3754 77.2727V86H53.3697V77.2727H54.3754ZM56.8651 88.4545C56.6946 88.4545 56.5426 88.4403 56.4091 88.4119C56.2756 88.3864 56.1832 88.3608 56.1321 88.3352L56.3878 87.4489C56.6321 87.5114 56.848 87.5341 57.0355 87.517C57.223 87.5 57.3892 87.4162 57.5341 87.2656C57.6818 87.1179 57.8168 86.8778 57.9389 86.5455L58.1264 86.0341L55.706 79.4545H56.7969L58.6037 84.6705H58.6719L60.4787 79.4545H61.5696L58.7912 86.9545C58.6662 87.2926 58.5114 87.5724 58.3267 87.794C58.142 88.0185 57.9276 88.1847 57.6832 88.2926C57.4418 88.4006 57.169 88.4545 56.8651 88.4545ZM69.1016 86H66.4084V77.2727H69.2209C70.0675 77.2727 70.7919 77.4474 71.3942 77.7969C71.9964 78.1435 72.4581 78.642 72.7791 79.2926C73.1001 79.9403 73.2607 80.7159 73.2607 81.6193C73.2607 82.5284 73.0987 83.3111 72.7749 83.9673C72.451 84.6207 71.9794 85.1236 71.3601 85.4759C70.7408 85.8253 69.9879 86 69.1016 86ZM67.4652 85.0625H69.0334C69.755 85.0625 70.353 84.9233 70.8274 84.6449C71.3018 84.3665 71.6555 83.9702 71.8885 83.456C72.1214 82.9418 72.2379 82.3295 72.2379 81.6193C72.2379 80.9148 72.1229 80.3082 71.8928 79.7997C71.6626 79.2884 71.3189 78.8963 70.8615 78.6236C70.4041 78.348 69.8345 78.2102 69.1527 78.2102H67.4652V85.0625ZM76.8232 86.1534C76.4084 86.1534 76.032 86.0753 75.6939 85.919C75.3558 85.7599 75.0874 85.5312 74.8885 85.233C74.6896 84.9318 74.5902 84.5682 74.5902 84.142C74.5902 83.767 74.6641 83.4631 74.8118 83.2301C74.9595 82.9943 75.157 82.8097 75.4041 82.6761C75.6513 82.5426 75.924 82.4432 76.2223 82.3778C76.5234 82.3097 76.826 82.2557 77.13 82.2159C77.5277 82.1648 77.8501 82.1264 78.0973 82.1009C78.3473 82.0724 78.5291 82.0256 78.6428 81.9602C78.7592 81.8949 78.8175 81.7812 78.8175 81.6193V81.5852C78.8175 81.1648 78.7024 80.8381 78.4723 80.6051C78.245 80.3722 77.8999 80.2557 77.4368 80.2557C76.9567 80.2557 76.5803 80.3608 76.3075 80.571C76.0348 80.7812 75.843 81.0057 75.7322 81.2443L74.7777 80.9034C74.9482 80.5057 75.1754 80.196 75.4595 79.9744C75.7464 79.75 76.0589 79.5937 76.397 79.5057C76.7379 79.4148 77.0732 79.3693 77.4027 79.3693C77.6129 79.3693 77.8544 79.3949 78.1271 79.446C78.4027 79.4943 78.6683 79.5952 78.924 79.7486C79.1825 79.902 79.397 80.1335 79.5675 80.4432C79.7379 80.7528 79.8232 81.1676 79.8232 81.6875V86H78.8175V85.1136H78.7663C78.6982 85.2557 78.5845 85.4077 78.4254 85.5696C78.2663 85.7315 78.0547 85.8693 77.7905 85.983C77.5263 86.0966 77.2038 86.1534 76.8232 86.1534ZM76.9766 85.25C77.3743 85.25 77.7095 85.1719 77.9822 85.0156C78.2578 84.8594 78.4652 84.6577 78.6044 84.4105C78.7464 84.1634 78.8175 83.9034 78.8175 83.6307V82.7102C78.7749 82.7614 78.6811 82.8082 78.5362 82.8509C78.3942 82.8906 78.2294 82.9261 78.0419 82.9574C77.8572 82.9858 77.6768 83.0114 77.5007 83.0341C77.3274 83.054 77.1868 83.071 77.0788 83.0852C76.8175 83.1193 76.5732 83.1747 76.3459 83.2514C76.1214 83.3253 75.9396 83.4375 75.8004 83.5881C75.6641 83.7358 75.5959 83.9375 75.5959 84.1932C75.5959 84.5426 75.7251 84.8068 75.9837 84.9858C76.245 85.1619 76.576 85.25 76.9766 85.25ZM86.7766 79.4545L84.3562 86H83.3335L80.913 79.4545H82.0039L83.8107 84.6705H83.8789L85.6857 79.4545H86.7766ZM88.104 86V79.4545H89.1097V86H88.104ZM88.6154 78.3636C88.4194 78.3636 88.2504 78.2969 88.1083 78.1634C87.9691 78.0298 87.8995 77.8693 87.8995 77.6818C87.8995 77.4943 87.9691 77.3338 88.1083 77.2003C88.2504 77.0668 88.4194 77 88.6154 77C88.8114 77 88.979 77.0668 89.1183 77.2003C89.2603 77.3338 89.3313 77.4943 89.3313 77.6818C89.3313 77.8693 89.2603 78.0298 89.1183 78.1634C88.979 78.2969 88.8114 78.3636 88.6154 78.3636ZM93.696 86.1364C93.0653 86.1364 92.5213 85.9972 92.0639 85.7188C91.6094 85.4375 91.2585 85.0455 91.0114 84.5426C90.767 84.0369 90.6449 83.4489 90.6449 82.7784C90.6449 82.108 90.767 81.517 91.0114 81.0057C91.2585 80.4915 91.6023 80.0909 92.0426 79.804C92.4858 79.5142 93.0028 79.3693 93.5938 79.3693C93.9347 79.3693 94.2713 79.4261 94.6037 79.5398C94.9361 79.6534 95.2386 79.8381 95.5114 80.0938C95.7841 80.3466 96.0014 80.6818 96.1634 81.0994C96.3253 81.517 96.4062 82.0312 96.4062 82.642V83.0682H91.3608V82.1989H95.3835C95.3835 81.8295 95.3097 81.5 95.1619 81.2102C95.017 80.9205 94.8097 80.6918 94.5398 80.5241C94.2727 80.3565 93.9574 80.2727 93.5938 80.2727C93.1932 80.2727 92.8466 80.3722 92.554 80.571C92.2642 80.767 92.0412 81.0227 91.8849 81.3381C91.7287 81.6534 91.6506 81.9915 91.6506 82.3523V82.9318C91.6506 83.4261 91.7358 83.8452 91.9062 84.1889C92.0795 84.5298 92.3196 84.7898 92.6264 84.9688C92.9332 85.1449 93.2898 85.233 93.696 85.233C93.9602 85.233 94.1989 85.196 94.4119 85.1222C94.6278 85.0455 94.8139 84.9318 94.9702 84.7812C95.1264 84.6278 95.2472 84.4375 95.3324 84.2102L96.304 84.483C96.2017 84.8125 96.0298 85.1023 95.7884 85.3523C95.5469 85.5994 95.2486 85.7926 94.8935 85.9318C94.5384 86.0682 94.1392 86.1364 93.696 86.1364ZM102.572 80.9205L101.669 81.1761C101.612 81.0256 101.528 80.8793 101.418 80.7372C101.31 80.5923 101.162 80.473 100.974 80.3793C100.787 80.2855 100.547 80.2386 100.254 80.2386C99.8537 80.2386 99.5199 80.331 99.2528 80.5156C98.9886 80.6974 98.8565 80.929 98.8565 81.2102C98.8565 81.4602 98.9474 81.6577 99.1293 81.8026C99.3111 81.9474 99.5952 82.0682 99.9815 82.1648L100.953 82.4034C101.538 82.5455 101.974 82.7628 102.261 83.0554C102.548 83.3452 102.692 83.7187 102.692 84.1761C102.692 84.5511 102.584 84.8864 102.368 85.1818C102.155 85.4773 101.857 85.7102 101.473 85.8807C101.089 86.0511 100.643 86.1364 100.135 86.1364C99.4673 86.1364 98.9148 85.9915 98.4773 85.7017C98.0398 85.4119 97.7628 84.9886 97.6463 84.4318L98.6009 84.1932C98.6918 84.5455 98.8636 84.8097 99.1165 84.9858C99.3722 85.1619 99.706 85.25 100.118 85.25C100.587 85.25 100.959 85.1506 101.234 84.9517C101.513 84.75 101.652 84.5085 101.652 84.2273C101.652 84 101.572 83.8097 101.413 83.6562C101.254 83.5 101.01 83.3835 100.68 83.3068L99.5895 83.0511C98.9901 82.9091 98.5497 82.6889 98.2685 82.3906C97.9901 82.0895 97.8509 81.7131 97.8509 81.2614C97.8509 80.892 97.9545 80.5653 98.1619 80.2812C98.3722 79.9972 98.6577 79.7741 99.0185 79.6122C99.3821 79.4503 99.794 79.3693 100.254 79.3693C100.902 79.3693 101.411 79.5114 101.78 79.7955C102.152 80.0795 102.416 80.4545 102.572 80.9205Z" fill="#4A4D52"/>
<path d="M107.717 86V77.2727H110.666C111.348 77.2727 111.907 77.3892 112.345 77.6222C112.782 77.8523 113.106 78.169 113.316 78.5724C113.527 78.9759 113.632 79.4347 113.632 79.9489C113.632 80.4631 113.527 80.919 113.316 81.3168C113.106 81.7145 112.784 82.027 112.349 82.2543C111.914 82.4787 111.359 82.5909 110.683 82.5909H108.297V81.6364H110.649C111.115 81.6364 111.49 81.5682 111.774 81.4318C112.061 81.2955 112.268 81.1023 112.396 80.8523C112.527 80.5994 112.592 80.2983 112.592 79.9489C112.592 79.5994 112.527 79.294 112.396 79.0327C112.265 78.7713 112.056 78.5696 111.77 78.4276C111.483 78.2827 111.103 78.2102 110.632 78.2102H108.774V86H107.717ZM111.825 82.0795L113.973 86H112.745L110.632 82.0795H111.825ZM117.183 86.1534C116.768 86.1534 116.391 86.0753 116.053 85.919C115.715 85.7599 115.447 85.5312 115.248 85.233C115.049 84.9318 114.95 84.5682 114.95 84.142C114.95 83.767 115.023 83.4631 115.171 83.2301C115.319 82.9943 115.516 82.8097 115.763 82.6761C116.011 82.5426 116.283 82.4432 116.582 82.3778C116.883 82.3097 117.185 82.2557 117.489 82.2159C117.887 82.1648 118.21 82.1264 118.457 82.1009C118.707 82.0724 118.888 82.0256 119.002 81.9602C119.119 81.8949 119.177 81.7812 119.177 81.6193V81.5852C119.177 81.1648 119.062 80.8381 118.832 80.6051C118.604 80.3722 118.259 80.2557 117.796 80.2557C117.316 80.2557 116.94 80.3608 116.667 80.571C116.394 80.7812 116.202 81.0057 116.092 81.2443L115.137 80.9034C115.308 80.5057 115.535 80.196 115.819 79.9744C116.106 79.75 116.418 79.5937 116.756 79.5057C117.097 79.4148 117.433 79.3693 117.762 79.3693C117.972 79.3693 118.214 79.3949 118.487 79.446C118.762 79.4943 119.028 79.5952 119.283 79.7486C119.542 79.902 119.756 80.1335 119.927 80.4432C120.097 80.7528 120.183 81.1676 120.183 81.6875V86H119.177V85.1136H119.126C119.058 85.2557 118.944 85.4077 118.785 85.5696C118.626 85.7315 118.414 85.8693 118.15 85.983C117.886 86.0966 117.563 86.1534 117.183 86.1534ZM117.336 85.25C117.734 85.25 118.069 85.1719 118.342 85.0156C118.617 84.8594 118.825 84.6577 118.964 84.4105C119.106 84.1634 119.177 83.9034 119.177 83.6307V82.7102C119.134 82.7614 119.04 82.8082 118.896 82.8509C118.754 82.8906 118.589 82.9261 118.401 82.9574C118.217 82.9858 118.036 83.0114 117.86 83.0341C117.687 83.054 117.546 83.071 117.438 83.0852C117.177 83.1193 116.933 83.1747 116.705 83.2514C116.481 83.3253 116.299 83.4375 116.16 83.5881C116.023 83.7358 115.955 83.9375 115.955 84.1932C115.955 84.5426 116.085 84.8068 116.343 84.9858C116.604 85.1619 116.935 85.25 117.336 85.25ZM124.49 86.1364C123.944 86.1364 123.463 85.9986 123.045 85.723C122.627 85.4446 122.301 85.0526 122.065 84.5469C121.829 84.0384 121.711 83.4375 121.711 82.7443C121.711 82.0568 121.829 81.4602 122.065 80.9545C122.301 80.4489 122.629 80.0582 123.049 79.7827C123.47 79.5071 123.956 79.3693 124.507 79.3693C124.933 79.3693 125.27 79.4403 125.517 79.5824C125.767 79.7216 125.957 79.8807 126.088 80.0597C126.221 80.2358 126.325 80.3807 126.399 80.4943H126.484V77.2727H127.49V86H126.518V84.9943H126.399C126.325 85.1136 126.22 85.2642 126.083 85.446C125.947 85.625 125.752 85.7855 125.5 85.9276C125.247 86.0668 124.91 86.1364 124.49 86.1364ZM124.626 85.233C125.029 85.233 125.37 85.1278 125.649 84.9176C125.927 84.7045 126.139 84.4105 126.284 84.0355C126.429 83.6577 126.501 83.2216 126.501 82.7273C126.501 82.2386 126.43 81.8111 126.288 81.4446C126.146 81.0753 125.936 80.7884 125.657 80.5838C125.379 80.3764 125.035 80.2727 124.626 80.2727C124.2 80.2727 123.845 80.3821 123.561 80.6009C123.279 80.8168 123.068 81.1108 122.926 81.483C122.787 81.8523 122.717 82.267 122.717 82.7273C122.717 83.1932 122.788 83.6165 122.93 83.9972C123.075 84.375 123.288 84.6761 123.569 84.9006C123.853 85.1222 124.206 85.233 124.626 85.233ZM129.471 86V79.4545H130.477V86H129.471ZM129.983 78.3636C129.787 78.3636 129.618 78.2969 129.475 78.1634C129.336 78.0298 129.267 77.8693 129.267 77.6818C129.267 77.4943 129.336 77.3338 129.475 77.2003C129.618 77.0668 129.787 77 129.983 77C130.179 77 130.346 77.0668 130.485 77.2003C130.627 77.3338 130.699 77.4943 130.699 77.6818C130.699 77.8693 130.627 78.0298 130.485 78.1634C130.346 78.2969 130.179 78.3636 129.983 78.3636ZM134.978 86.1364C134.387 86.1364 133.869 85.9957 133.423 85.7145C132.979 85.4332 132.633 85.0398 132.383 84.5341C132.136 84.0284 132.012 83.4375 132.012 82.7614C132.012 82.0795 132.136 81.4844 132.383 80.9759C132.633 80.4673 132.979 80.0724 133.423 79.7912C133.869 79.5099 134.387 79.3693 134.978 79.3693C135.569 79.3693 136.086 79.5099 136.529 79.7912C136.975 80.0724 137.322 80.4673 137.569 80.9759C137.819 81.4844 137.944 82.0795 137.944 82.7614C137.944 83.4375 137.819 84.0284 137.569 84.5341C137.322 85.0398 136.975 85.4332 136.529 85.7145C136.086 85.9957 135.569 86.1364 134.978 86.1364ZM134.978 85.233C135.427 85.233 135.796 85.1179 136.086 84.8878C136.376 84.6577 136.59 84.3551 136.729 83.9801C136.869 83.6051 136.938 83.1989 136.938 82.7614C136.938 82.3239 136.869 81.9162 136.729 81.5384C136.59 81.1605 136.376 80.8551 136.086 80.6222C135.796 80.3892 135.427 80.2727 134.978 80.2727C134.529 80.2727 134.16 80.3892 133.87 80.6222C133.58 80.8551 133.366 81.1605 133.227 81.5384C133.087 81.9162 133.018 82.3239 133.018 82.7614C133.018 83.1989 133.087 83.6051 133.227 83.9801C133.366 84.3551 133.58 84.6577 133.87 84.8878C134.16 85.1179 134.529 85.233 134.978 85.233ZM142.121 88.5909C141.635 88.5909 141.218 88.5284 140.868 88.4034C140.519 88.2812 140.228 88.1193 139.995 87.9176C139.765 87.7188 139.581 87.5057 139.445 87.2784L140.246 86.7159C140.337 86.8352 140.452 86.9716 140.591 87.125C140.73 87.2812 140.921 87.4162 141.162 87.5298C141.407 87.6463 141.726 87.7045 142.121 87.7045C142.65 87.7045 143.086 87.5767 143.429 87.321C143.773 87.0653 143.945 86.6648 143.945 86.1193V84.7898H143.86C143.786 84.9091 143.681 85.0568 143.544 85.233C143.411 85.4062 143.218 85.5611 142.965 85.6974C142.715 85.831 142.377 85.8977 141.951 85.8977C141.422 85.8977 140.948 85.7727 140.527 85.5227C140.11 85.2727 139.779 84.9091 139.534 84.4318C139.293 83.9545 139.172 83.375 139.172 82.6932C139.172 82.0227 139.29 81.4389 139.526 80.9418C139.762 80.4418 140.09 80.0554 140.51 79.7827C140.931 79.5071 141.417 79.3693 141.968 79.3693C142.394 79.3693 142.732 79.4403 142.982 79.5824C143.235 79.7216 143.428 79.8807 143.561 80.0597C143.698 80.2358 143.803 80.3807 143.877 80.4943H143.979V79.4545H144.951V86.1875C144.951 86.75 144.823 87.2074 144.567 87.5597C144.314 87.9148 143.973 88.1747 143.544 88.3395C143.118 88.5071 142.644 88.5909 142.121 88.5909ZM142.087 84.9943C142.49 84.9943 142.831 84.902 143.11 84.7173C143.388 84.5327 143.6 84.267 143.745 83.9205C143.89 83.5739 143.962 83.1591 143.962 82.6761C143.962 82.2045 143.891 81.7884 143.749 81.4276C143.607 81.0668 143.397 80.7841 143.118 80.5795C142.84 80.375 142.496 80.2727 142.087 80.2727C141.661 80.2727 141.306 80.3807 141.022 80.5966C140.74 80.8125 140.529 81.1023 140.387 81.4659C140.248 81.8295 140.178 82.233 140.178 82.6761C140.178 83.1307 140.249 83.5327 140.391 83.8821C140.536 84.2287 140.749 84.5014 141.03 84.7003C141.314 84.8963 141.667 84.9943 142.087 84.9943ZM146.792 86V79.4545H147.763V80.4432H147.831C147.951 80.1193 148.167 79.8565 148.479 79.6548C148.792 79.4531 149.144 79.3523 149.536 79.3523C149.61 79.3523 149.702 79.3537 149.813 79.3565C149.924 79.3594 150.007 79.3636 150.064 79.3693V80.392C150.03 80.3835 149.952 80.3707 149.83 80.3537C149.711 80.3338 149.584 80.3239 149.451 80.3239C149.132 80.3239 148.848 80.3906 148.598 80.5241C148.351 80.6548 148.155 80.8366 148.01 81.0696C147.868 81.2997 147.797 81.5625 147.797 81.858V86H146.792ZM153.183 86.1534C152.768 86.1534 152.391 86.0753 152.053 85.919C151.715 85.7599 151.447 85.5312 151.248 85.233C151.049 84.9318 150.95 84.5682 150.95 84.142C150.95 83.767 151.023 83.4631 151.171 83.2301C151.319 82.9943 151.516 82.8097 151.763 82.6761C152.011 82.5426 152.283 82.4432 152.582 82.3778C152.883 82.3097 153.185 82.2557 153.489 82.2159C153.887 82.1648 154.21 82.1264 154.457 82.1009C154.707 82.0724 154.888 82.0256 155.002 81.9602C155.119 81.8949 155.177 81.7812 155.177 81.6193V81.5852C155.177 81.1648 155.062 80.8381 154.832 80.6051C154.604 80.3722 154.259 80.2557 153.796 80.2557C153.316 80.2557 152.94 80.3608 152.667 80.571C152.394 80.7812 152.202 81.0057 152.092 81.2443L151.137 80.9034C151.308 80.5057 151.535 80.196 151.819 79.9744C152.106 79.75 152.418 79.5937 152.756 79.5057C153.097 79.4148 153.433 79.3693 153.762 79.3693C153.972 79.3693 154.214 79.3949 154.487 79.446C154.762 79.4943 155.028 79.5952 155.283 79.7486C155.542 79.902 155.756 80.1335 155.927 80.4432C156.097 80.7528 156.183 81.1676 156.183 81.6875V86H155.177V85.1136H155.126C155.058 85.2557 154.944 85.4077 154.785 85.5696C154.626 85.7315 154.414 85.8693 154.15 85.983C153.886 86.0966 153.563 86.1534 153.183 86.1534ZM153.336 85.25C153.734 85.25 154.069 85.1719 154.342 85.0156C154.617 84.8594 154.825 84.6577 154.964 84.4105C155.106 84.1634 155.177 83.9034 155.177 83.6307V82.7102C155.134 82.7614 155.04 82.8082 154.896 82.8509C154.754 82.8906 154.589 82.9261 154.401 82.9574C154.217 82.9858 154.036 83.0114 153.86 83.0341C153.687 83.054 153.546 83.071 153.438 83.0852C153.177 83.1193 152.933 83.1747 152.705 83.2514C152.481 83.3253 152.299 83.4375 152.16 83.5881C152.023 83.7358 151.955 83.9375 151.955 84.1932C151.955 84.5426 152.085 84.8068 152.343 84.9858C152.604 85.1619 152.935 85.25 153.336 85.25ZM158.018 88.4545V79.4545H158.99V80.4943H159.109C159.183 80.3807 159.285 80.2358 159.416 80.0597C159.549 79.8807 159.74 79.7216 159.987 79.5824C160.237 79.4403 160.575 79.3693 161.001 79.3693C161.552 79.3693 162.038 79.5071 162.458 79.7827C162.879 80.0582 163.207 80.4489 163.443 80.9545C163.679 81.4602 163.797 82.0568 163.797 82.7443C163.797 83.4375 163.679 84.0384 163.443 84.5469C163.207 85.0526 162.88 85.4446 162.463 85.723C162.045 85.9986 161.564 86.1364 161.018 86.1364C160.598 86.1364 160.261 86.0668 160.008 85.9276C159.755 85.7855 159.561 85.625 159.424 85.446C159.288 85.2642 159.183 85.1136 159.109 84.9943H159.024V88.4545H158.018ZM159.007 82.7273C159.007 83.2216 159.079 83.6577 159.224 84.0355C159.369 84.4105 159.581 84.7045 159.859 84.9176C160.137 85.1278 160.478 85.233 160.882 85.233C161.302 85.233 161.653 85.1222 161.934 84.9006C162.218 84.6761 162.431 84.375 162.574 83.9972C162.718 83.6165 162.791 83.1932 162.791 82.7273C162.791 82.267 162.72 81.8523 162.578 81.483C162.439 81.1108 162.227 80.8168 161.943 80.6009C161.662 80.3821 161.308 80.2727 160.882 80.2727C160.473 80.2727 160.129 80.3764 159.85 80.5838C159.572 80.7884 159.362 81.0753 159.22 81.4446C159.078 81.8111 159.007 82.2386 159.007 82.7273ZM166.336 82.0625V86H165.331V77.2727H166.336V80.4773H166.422C166.575 80.1392 166.805 79.8707 167.112 79.6719C167.422 79.4702 167.833 79.3693 168.348 79.3693C168.794 79.3693 169.184 79.4588 169.52 79.6378C169.855 79.8139 170.115 80.0852 170.299 80.4517C170.487 80.8153 170.581 81.2784 170.581 81.8409V86H169.575V81.9091C169.575 81.3892 169.44 80.9872 169.17 80.7031C168.903 80.4162 168.532 80.2727 168.058 80.2727C167.728 80.2727 167.433 80.3423 167.172 80.4815C166.913 80.6207 166.708 80.8239 166.558 81.0909C166.41 81.358 166.336 81.6818 166.336 82.0625ZM175.165 86.1364C174.534 86.1364 173.99 85.9972 173.533 85.7188C173.078 85.4375 172.727 85.0455 172.48 84.5426C172.236 84.0369 172.114 83.4489 172.114 82.7784C172.114 82.108 172.236 81.517 172.48 81.0057C172.727 80.4915 173.071 80.0909 173.511 79.804C173.955 79.5142 174.472 79.3693 175.062 79.3693C175.403 79.3693 175.74 79.4261 176.072 79.5398C176.405 79.6534 176.707 79.8381 176.98 80.0938C177.253 80.3466 177.47 80.6818 177.632 81.0994C177.794 81.517 177.875 82.0312 177.875 82.642V83.0682H172.83V82.1989H176.852C176.852 81.8295 176.778 81.5 176.631 81.2102C176.486 80.9205 176.278 80.6918 176.009 80.5241C175.741 80.3565 175.426 80.2727 175.062 80.2727C174.662 80.2727 174.315 80.3722 174.023 80.571C173.733 80.767 173.51 81.0227 173.354 81.3381C173.197 81.6534 173.119 81.9915 173.119 82.3523V82.9318C173.119 83.4261 173.205 83.8452 173.375 84.1889C173.548 84.5298 173.788 84.7898 174.095 84.9688C174.402 85.1449 174.759 85.233 175.165 85.233C175.429 85.233 175.668 85.196 175.881 85.1222C176.097 85.0455 176.283 84.9318 176.439 84.7812C176.595 84.6278 176.716 84.4375 176.801 84.2102L177.773 84.483C177.67 84.8125 177.499 85.1023 177.257 85.3523C177.016 85.5994 176.717 85.7926 176.362 85.9318C176.007 86.0682 175.608 86.1364 175.165 86.1364ZM179.405 86V79.4545H180.376V80.4432H180.445C180.564 80.1193 180.78 79.8565 181.092 79.6548C181.405 79.4531 181.757 79.3523 182.149 79.3523C182.223 79.3523 182.315 79.3537 182.426 79.3565C182.537 79.3594 182.621 79.3636 182.678 79.3693V80.392C182.643 80.3835 182.565 80.3707 182.443 80.3537C182.324 80.3338 182.197 80.3239 182.064 80.3239C181.746 80.3239 181.462 80.3906 181.212 80.5241C180.964 80.6548 180.768 80.8366 180.624 81.0696C180.482 81.2997 180.411 81.5625 180.411 81.858V86H179.405Z" fill="#888888"/>
<path d="M33.4148 106H32.3068L35.5114 97.2727H36.6023L39.8068 106H38.6989L36.0909 98.6534H36.0227L33.4148 106ZM33.8239 102.591H38.2898V103.528H33.8239V102.591ZM41.0298 106V99.4545H42.0014V100.443H42.0696C42.1889 100.119 42.4048 99.8565 42.7173 99.6548C43.0298 99.4531 43.3821 99.3523 43.7741 99.3523C43.848 99.3523 43.9403 99.3537 44.0511 99.3565C44.1619 99.3594 44.2457 99.3636 44.3026 99.3693V100.392C44.2685 100.384 44.1903 100.371 44.0682 100.354C43.9489 100.334 43.8224 100.324 43.6889 100.324C43.3707 100.324 43.0866 100.391 42.8366 100.524C42.5895 100.655 42.3935 100.837 42.2486 101.07C42.1065 101.3 42.0355 101.562 42.0355 101.858V106H41.0298ZM48.0398 106.136C47.4091 106.136 46.8651 105.997 46.4077 105.719C45.9531 105.438 45.6023 105.045 45.3551 104.543C45.1108 104.037 44.9886 103.449 44.9886 102.778C44.9886 102.108 45.1108 101.517 45.3551 101.006C45.6023 100.491 45.946 100.091 46.3864 99.804C46.8295 99.5142 47.3466 99.3693 47.9375 99.3693C48.2784 99.3693 48.6151 99.4261 48.9474 99.5398C49.2798 99.6534 49.5824 99.8381 49.8551 100.094C50.1278 100.347 50.3452 100.682 50.5071 101.099C50.669 101.517 50.75 102.031 50.75 102.642V103.068H45.7045V102.199H49.7273C49.7273 101.83 49.6534 101.5 49.5057 101.21C49.3608 100.92 49.1534 100.692 48.8835 100.524C48.6165 100.357 48.3011 100.273 47.9375 100.273C47.5369 100.273 47.1903 100.372 46.8977 100.571C46.608 100.767 46.3849 101.023 46.2287 101.338C46.0724 101.653 45.9943 101.991 45.9943 102.352V102.932C45.9943 103.426 46.0795 103.845 46.25 104.189C46.4233 104.53 46.6634 104.79 46.9702 104.969C47.277 105.145 47.6335 105.233 48.0398 105.233C48.304 105.233 48.5426 105.196 48.7557 105.122C48.9716 105.045 49.1577 104.932 49.3139 104.781C49.4702 104.628 49.5909 104.437 49.6761 104.21L50.6477 104.483C50.5455 104.812 50.3736 105.102 50.1321 105.352C49.8906 105.599 49.5923 105.793 49.2372 105.932C48.8821 106.068 48.483 106.136 48.0398 106.136ZM54.206 106.153C53.7912 106.153 53.4148 106.075 53.0767 105.919C52.7386 105.76 52.4702 105.531 52.2713 105.233C52.0724 104.932 51.973 104.568 51.973 104.142C51.973 103.767 52.0469 103.463 52.1946 103.23C52.3423 102.994 52.5398 102.81 52.7869 102.676C53.0341 102.543 53.3068 102.443 53.6051 102.378C53.9063 102.31 54.2088 102.256 54.5128 102.216C54.9105 102.165 55.233 102.126 55.4801 102.101C55.7301 102.072 55.9119 102.026 56.0256 101.96C56.142 101.895 56.2003 101.781 56.2003 101.619V101.585C56.2003 101.165 56.0852 100.838 55.8551 100.605C55.6278 100.372 55.2827 100.256 54.8196 100.256C54.3395 100.256 53.9631 100.361 53.6903 100.571C53.4176 100.781 53.2259 101.006 53.1151 101.244L52.1605 100.903C52.331 100.506 52.5582 100.196 52.8423 99.9744C53.1293 99.75 53.4418 99.5937 53.7798 99.5057C54.1207 99.4148 54.456 99.3693 54.7855 99.3693C54.9957 99.3693 55.2372 99.3949 55.5099 99.446C55.7855 99.4943 56.0511 99.5952 56.3068 99.7486C56.5653 99.902 56.7798 100.134 56.9503 100.443C57.1207 100.753 57.206 101.168 57.206 101.688V106H56.2003V105.114H56.1491C56.081 105.256 55.9673 105.408 55.8082 105.57C55.6491 105.732 55.4375 105.869 55.1733 105.983C54.9091 106.097 54.5866 106.153 54.206 106.153ZM54.3594 105.25C54.7571 105.25 55.0923 105.172 55.3651 105.016C55.6406 104.859 55.848 104.658 55.9872 104.411C56.1293 104.163 56.2003 103.903 56.2003 103.631V102.71C56.1577 102.761 56.0639 102.808 55.919 102.851C55.777 102.891 55.6122 102.926 55.4247 102.957C55.2401 102.986 55.0597 103.011 54.8835 103.034C54.7102 103.054 54.5696 103.071 54.4616 103.085C54.2003 103.119 53.956 103.175 53.7287 103.251C53.5043 103.325 53.3224 103.437 53.1832 103.588C53.0469 103.736 52.9787 103.937 52.9787 104.193C52.9787 104.543 53.108 104.807 53.3665 104.986C53.6278 105.162 53.9588 105.25 54.3594 105.25ZM62.5529 106V97.2727H65.5018C66.1836 97.2727 66.7433 97.3892 67.1808 97.6222C67.6183 97.8523 67.9421 98.169 68.1523 98.5724C68.3626 98.9759 68.4677 99.4347 68.4677 99.9489C68.4677 100.463 68.3626 100.919 68.1523 101.317C67.9421 101.714 67.6197 102.027 67.185 102.254C66.7504 102.479 66.195 102.591 65.5188 102.591H63.1325V101.636H65.4847C65.9506 101.636 66.3256 101.568 66.6097 101.432C66.8967 101.295 67.104 101.102 67.2319 100.852C67.3626 100.599 67.4279 100.298 67.4279 99.9489C67.4279 99.5994 67.3626 99.294 67.2319 99.0327C67.1012 98.7713 66.8924 98.5696 66.6055 98.4276C66.3185 98.2827 65.9393 98.2102 65.4677 98.2102H63.6097V106H62.5529ZM66.6609 102.08L68.8086 106H67.5813L65.4677 102.08H66.6609ZM72.7663 106.136C72.1357 106.136 71.5916 105.997 71.1342 105.719C70.6797 105.438 70.3288 105.045 70.0817 104.543C69.8374 104.037 69.7152 103.449 69.7152 102.778C69.7152 102.108 69.8374 101.517 70.0817 101.006C70.3288 100.491 70.6726 100.091 71.1129 99.804C71.5561 99.5142 72.0732 99.3693 72.6641 99.3693C73.005 99.3693 73.3416 99.4261 73.674 99.5398C74.0064 99.6534 74.3089 99.8381 74.5817 100.094C74.8544 100.347 75.0717 100.682 75.2337 101.099C75.3956 101.517 75.4766 102.031 75.4766 102.642V103.068H70.4311V102.199H74.4538C74.4538 101.83 74.38 101.5 74.2322 101.21C74.0874 100.92 73.88 100.692 73.6101 100.524C73.343 100.357 73.0277 100.273 72.6641 100.273C72.2635 100.273 71.9169 100.372 71.6243 100.571C71.3345 100.767 71.1115 101.023 70.9553 101.338C70.799 101.653 70.7209 101.991 70.7209 102.352V102.932C70.7209 103.426 70.8061 103.845 70.9766 104.189C71.1499 104.53 71.3899 104.79 71.6967 104.969C72.0036 105.145 72.3601 105.233 72.7663 105.233C73.0305 105.233 73.2692 105.196 73.4822 105.122C73.6982 105.045 73.8842 104.932 74.0405 104.781C74.1967 104.628 74.3175 104.437 74.4027 104.21L75.3743 104.483C75.272 104.812 75.1001 105.102 74.8587 105.352C74.6172 105.599 74.3189 105.793 73.9638 105.932C73.6087 106.068 73.2095 106.136 72.7663 106.136ZM81.6428 100.92L80.7393 101.176C80.6825 101.026 80.5987 100.879 80.4879 100.737C80.38 100.592 80.2322 100.473 80.0447 100.379C79.8572 100.286 79.6172 100.239 79.3246 100.239C78.924 100.239 78.5902 100.331 78.3232 100.516C78.0589 100.697 77.9268 100.929 77.9268 101.21C77.9268 101.46 78.0178 101.658 78.1996 101.803C78.3814 101.947 78.6655 102.068 79.0518 102.165L80.0234 102.403C80.6087 102.545 81.0447 102.763 81.3317 103.055C81.6186 103.345 81.7621 103.719 81.7621 104.176C81.7621 104.551 81.6541 104.886 81.4382 105.182C81.2251 105.477 80.9268 105.71 80.5433 105.881C80.1598 106.051 79.7138 106.136 79.2053 106.136C78.5376 106.136 77.9851 105.991 77.5476 105.702C77.1101 105.412 76.8331 104.989 76.7166 104.432L77.6712 104.193C77.7621 104.545 77.9339 104.81 78.1868 104.986C78.4425 105.162 78.7763 105.25 79.1882 105.25C79.657 105.25 80.0291 105.151 80.3047 104.952C80.5831 104.75 80.7223 104.509 80.7223 104.227C80.7223 104 80.6428 103.81 80.4837 103.656C80.3246 103.5 80.0803 103.384 79.7507 103.307L78.6598 103.051C78.0604 102.909 77.62 102.689 77.3388 102.391C77.0604 102.089 76.9212 101.713 76.9212 101.261C76.9212 100.892 77.0249 100.565 77.2322 100.281C77.4425 99.9972 77.728 99.7741 78.0888 99.6122C78.4524 99.4503 78.8643 99.3693 79.3246 99.3693C79.9723 99.3693 80.4808 99.5114 80.8501 99.7955C81.2223 100.08 81.4865 100.455 81.6428 100.92ZM83.2759 108.455V99.4545H84.2475V100.494H84.3668C84.4407 100.381 84.543 100.236 84.6737 100.06C84.8072 99.8807 84.9975 99.7216 85.2447 99.5824C85.4947 99.4403 85.8327 99.3693 86.2589 99.3693C86.81 99.3693 87.2958 99.5071 87.7163 99.7827C88.1367 100.058 88.4648 100.449 88.7006 100.955C88.9364 101.46 89.0543 102.057 89.0543 102.744C89.0543 103.438 88.9364 104.038 88.7006 104.547C88.4648 105.053 88.1381 105.445 87.7205 105.723C87.3029 105.999 86.8214 106.136 86.2759 106.136C85.8555 106.136 85.5188 106.067 85.266 105.928C85.0131 105.786 84.8185 105.625 84.6822 105.446C84.5458 105.264 84.4407 105.114 84.3668 104.994H84.2816V108.455H83.2759ZM84.2646 102.727C84.2646 103.222 84.337 103.658 84.4819 104.036C84.6268 104.411 84.8384 104.705 85.1168 104.918C85.3952 105.128 85.7362 105.233 86.1396 105.233C86.56 105.233 86.9109 105.122 87.1921 104.901C87.4762 104.676 87.6893 104.375 87.8313 103.997C87.9762 103.616 88.0487 103.193 88.0487 102.727C88.0487 102.267 87.9776 101.852 87.8356 101.483C87.6964 101.111 87.4847 100.817 87.2006 100.601C86.9194 100.382 86.5657 100.273 86.1396 100.273C85.7305 100.273 85.3867 100.376 85.1083 100.584C84.8299 100.788 84.6197 101.075 84.4776 101.445C84.3356 101.811 84.2646 102.239 84.2646 102.727ZM93.2475 106.136C92.6566 106.136 92.1381 105.996 91.6921 105.714C91.2489 105.433 90.9023 105.04 90.6523 104.534C90.4052 104.028 90.2816 103.437 90.2816 102.761C90.2816 102.08 90.4052 101.484 90.6523 100.976C90.9023 100.467 91.2489 100.072 91.6921 99.7912C92.1381 99.5099 92.6566 99.3693 93.2475 99.3693C93.8384 99.3693 94.3555 99.5099 94.7987 99.7912C95.2447 100.072 95.5913 100.467 95.8384 100.976C96.0884 101.484 96.2134 102.08 96.2134 102.761C96.2134 103.437 96.0884 104.028 95.8384 104.534C95.5913 105.04 95.2447 105.433 94.7987 105.714C94.3555 105.996 93.8384 106.136 93.2475 106.136ZM93.2475 105.233C93.6964 105.233 94.0657 105.118 94.3555 104.888C94.6452 104.658 94.8597 104.355 94.9989 103.98C95.1381 103.605 95.2077 103.199 95.2077 102.761C95.2077 102.324 95.1381 101.916 94.9989 101.538C94.8597 101.161 94.6452 100.855 94.3555 100.622C94.0657 100.389 93.6964 100.273 93.2475 100.273C92.7987 100.273 92.4293 100.389 92.1396 100.622C91.8498 100.855 91.6353 101.161 91.4961 101.538C91.3569 101.916 91.2873 102.324 91.2873 102.761C91.2873 103.199 91.3569 103.605 91.4961 103.98C91.6353 104.355 91.8498 104.658 92.1396 104.888C92.4293 105.118 92.7987 105.233 93.2475 105.233ZM98.7543 102.062V106H97.7486V99.4545H98.7202V100.477H98.8054C98.9588 100.145 99.1918 99.8778 99.5043 99.6761C99.8168 99.4716 100.22 99.3693 100.714 99.3693C101.158 99.3693 101.545 99.4602 101.878 99.642C102.21 99.821 102.469 100.094 102.653 100.46C102.838 100.824 102.93 101.284 102.93 101.841V106H101.925V101.909C101.925 101.395 101.791 100.994 101.524 100.707C101.257 100.418 100.891 100.273 100.425 100.273C100.104 100.273 99.8168 100.342 99.5639 100.482C99.3139 100.621 99.1165 100.824 98.9716 101.091C98.8267 101.358 98.7543 101.682 98.7543 102.062ZM109.404 100.92L108.501 101.176C108.444 101.026 108.36 100.879 108.25 100.737C108.142 100.592 107.994 100.473 107.806 100.379C107.619 100.286 107.379 100.239 107.086 100.239C106.686 100.239 106.352 100.331 106.085 100.516C105.821 100.697 105.689 100.929 105.689 101.21C105.689 101.46 105.779 101.658 105.961 101.803C106.143 101.947 106.427 102.068 106.814 102.165L107.785 102.403C108.37 102.545 108.806 102.763 109.093 103.055C109.38 103.345 109.524 103.719 109.524 104.176C109.524 104.551 109.416 104.886 109.2 105.182C108.987 105.477 108.689 105.71 108.305 105.881C107.922 106.051 107.475 106.136 106.967 106.136C106.299 106.136 105.747 105.991 105.309 105.702C104.872 105.412 104.595 104.989 104.478 104.432L105.433 104.193C105.524 104.545 105.696 104.81 105.949 104.986C106.204 105.162 106.538 105.25 106.95 105.25C107.419 105.25 107.791 105.151 108.066 104.952C108.345 104.75 108.484 104.509 108.484 104.227C108.484 104 108.404 103.81 108.245 103.656C108.086 103.5 107.842 103.384 107.512 103.307L106.422 103.051C105.822 102.909 105.382 102.689 105.1 102.391C104.822 102.089 104.683 101.713 104.683 101.261C104.683 100.892 104.787 100.565 104.994 100.281C105.204 99.9972 105.49 99.7741 105.85 99.6122C106.214 99.4503 106.626 99.3693 107.086 99.3693C107.734 99.3693 108.243 99.5114 108.612 99.7955C108.984 100.08 109.248 100.455 109.404 100.92ZM111.038 106V99.4545H112.043V106H111.038ZM111.549 98.3636C111.353 98.3636 111.184 98.2969 111.042 98.1634C110.903 98.0298 110.833 97.8693 110.833 97.6818C110.833 97.4943 110.903 97.3338 111.042 97.2003C111.184 97.0668 111.353 97 111.549 97C111.745 97 111.913 97.0668 112.052 97.2003C112.194 97.3338 112.265 97.4943 112.265 97.6818C112.265 97.8693 112.194 98.0298 112.052 98.1634C111.913 98.2969 111.745 98.3636 111.549 98.3636ZM114.022 106V97.2727H115.027V100.494H115.113C115.186 100.381 115.289 100.236 115.419 100.06C115.553 99.8807 115.743 99.7216 115.99 99.5824C116.24 99.4403 116.578 99.3693 117.005 99.3693C117.556 99.3693 118.042 99.5071 118.462 99.7827C118.882 100.058 119.211 100.449 119.446 100.955C119.682 101.46 119.8 102.057 119.8 102.744C119.8 103.438 119.682 104.038 119.446 104.547C119.211 105.053 118.884 105.445 118.466 105.723C118.049 105.999 117.567 106.136 117.022 106.136C116.601 106.136 116.265 106.067 116.012 105.928C115.759 105.786 115.564 105.625 115.428 105.446C115.292 105.264 115.186 105.114 115.113 104.994H114.993V106H114.022ZM115.01 102.727C115.01 103.222 115.083 103.658 115.228 104.036C115.373 104.411 115.584 104.705 115.863 104.918C116.141 105.128 116.482 105.233 116.885 105.233C117.306 105.233 117.657 105.122 117.938 104.901C118.222 104.676 118.435 104.375 118.577 103.997C118.722 103.616 118.794 103.193 118.794 102.727C118.794 102.267 118.723 101.852 118.581 101.483C118.442 101.111 118.23 100.817 117.946 100.601C117.665 100.382 117.311 100.273 116.885 100.273C116.476 100.273 116.132 100.376 115.854 100.584C115.576 100.788 115.365 101.075 115.223 101.445C115.081 101.811 115.01 102.239 115.01 102.727ZM121.338 106V99.4545H122.344V106H121.338ZM121.85 98.3636C121.654 98.3636 121.485 98.2969 121.343 98.1634C121.203 98.0298 121.134 97.8693 121.134 97.6818C121.134 97.4943 121.203 97.3338 121.343 97.2003C121.485 97.0668 121.654 97 121.85 97C122.046 97 122.213 97.0668 122.353 97.2003C122.495 97.3338 122.566 97.4943 122.566 97.6818C122.566 97.8693 122.495 98.0298 122.353 98.1634C122.213 98.2969 122.046 98.3636 121.85 98.3636ZM125.192 97.2727V106H124.186V97.2727H125.192ZM127.034 106V99.4545H128.039V106H127.034ZM127.545 98.3636C127.349 98.3636 127.18 98.2969 127.038 98.1634C126.899 98.0298 126.829 97.8693 126.829 97.6818C126.829 97.4943 126.899 97.3338 127.038 97.2003C127.18 97.0668 127.349 97 127.545 97C127.741 97 127.909 97.0668 128.048 97.2003C128.19 97.3338 128.261 97.4943 128.261 97.6818C128.261 97.8693 128.19 98.0298 128.048 98.1634C127.909 98.2969 127.741 98.3636 127.545 98.3636ZM132.728 99.4545V100.307H129.336V99.4545H132.728ZM130.325 97.8864H131.33V104.125C131.33 104.409 131.371 104.622 131.454 104.764C131.539 104.903 131.647 104.997 131.778 105.045C131.911 105.091 132.052 105.114 132.2 105.114C132.31 105.114 132.401 105.108 132.472 105.097C132.543 105.082 132.6 105.071 132.643 105.062L132.847 105.966C132.779 105.991 132.684 106.017 132.562 106.043C132.44 106.071 132.285 106.085 132.097 106.085C131.813 106.085 131.535 106.024 131.262 105.902C130.992 105.78 130.768 105.594 130.589 105.344C130.413 105.094 130.325 104.778 130.325 104.398V97.8864ZM134.888 108.455C134.718 108.455 134.566 108.44 134.433 108.412C134.299 108.386 134.207 108.361 134.156 108.335L134.411 107.449C134.656 107.511 134.871 107.534 135.059 107.517C135.246 107.5 135.413 107.416 135.558 107.266C135.705 107.118 135.84 106.878 135.962 106.545L136.15 106.034L133.729 99.4545H134.82L136.627 104.67H136.695L138.502 99.4545H139.593L136.815 106.955C136.69 107.293 136.535 107.572 136.35 107.794C136.165 108.018 135.951 108.185 135.707 108.293C135.465 108.401 135.192 108.455 134.888 108.455ZM148.932 100.92L148.028 101.176C147.972 101.026 147.888 100.879 147.777 100.737C147.669 100.592 147.521 100.473 147.334 100.379C147.146 100.286 146.906 100.239 146.614 100.239C146.213 100.239 145.879 100.331 145.612 100.516C145.348 100.697 145.216 100.929 145.216 101.21C145.216 101.46 145.307 101.658 145.489 101.803C145.67 101.947 145.955 102.068 146.341 102.165L147.312 102.403C147.898 102.545 148.334 102.763 148.621 103.055C148.908 103.345 149.051 103.719 149.051 104.176C149.051 104.551 148.943 104.886 148.727 105.182C148.514 105.477 148.216 105.71 147.832 105.881C147.449 106.051 147.003 106.136 146.494 106.136C145.827 106.136 145.274 105.991 144.837 105.702C144.399 105.412 144.122 104.989 144.006 104.432L144.96 104.193C145.051 104.545 145.223 104.81 145.476 104.986C145.732 105.162 146.065 105.25 146.477 105.25C146.946 105.25 147.318 105.151 147.594 104.952C147.872 104.75 148.011 104.509 148.011 104.227C148.011 104 147.932 103.81 147.773 103.656C147.614 103.5 147.369 103.384 147.04 103.307L145.949 103.051C145.349 102.909 144.909 102.689 144.628 102.391C144.349 102.089 144.21 101.713 144.21 101.261C144.21 100.892 144.314 100.565 144.521 100.281C144.732 99.9972 145.017 99.7741 145.378 99.6122C145.741 99.4503 146.153 99.3693 146.614 99.3693C147.261 99.3693 147.77 99.5114 148.139 99.7955C148.511 100.08 148.776 100.455 148.932 100.92ZM150.565 106V99.4545H151.571V106H150.565ZM151.076 98.3636C150.88 98.3636 150.711 98.2969 150.569 98.1634C150.43 98.0298 150.36 97.8693 150.36 97.6818C150.36 97.4943 150.43 97.3338 150.569 97.2003C150.711 97.0668 150.88 97 151.076 97C151.272 97 151.44 97.0668 151.579 97.2003C151.721 97.3338 151.792 97.4943 151.792 97.6818C151.792 97.8693 151.721 98.0298 151.579 98.1634C151.44 98.2969 151.272 98.3636 151.076 98.3636ZM154.418 102.062V106H153.413V99.4545H154.384V100.477H154.469C154.623 100.145 154.856 99.8778 155.168 99.6761C155.481 99.4716 155.884 99.3693 156.379 99.3693C156.822 99.3693 157.21 99.4602 157.542 99.642C157.874 99.821 158.133 100.094 158.317 100.46C158.502 100.824 158.594 101.284 158.594 101.841V106H157.589V101.909C157.589 101.395 157.455 100.994 157.188 100.707C156.921 100.418 156.555 100.273 156.089 100.273C155.768 100.273 155.481 100.342 155.228 100.482C154.978 100.621 154.781 100.824 154.636 101.091C154.491 101.358 154.418 101.682 154.418 102.062ZM163.091 106.136C162.478 106.136 161.949 105.991 161.506 105.702C161.063 105.412 160.722 105.013 160.483 104.504C160.245 103.996 160.125 103.415 160.125 102.761C160.125 102.097 160.248 101.51 160.492 101.001C160.739 100.49 161.083 100.091 161.523 99.804C161.966 99.5142 162.483 99.3693 163.074 99.3693C163.534 99.3693 163.949 99.4545 164.319 99.625C164.688 99.7955 164.99 100.034 165.226 100.341C165.462 100.648 165.608 101.006 165.665 101.415H164.659C164.583 101.116 164.412 100.852 164.148 100.622C163.887 100.389 163.534 100.273 163.091 100.273C162.699 100.273 162.355 100.375 162.06 100.58C161.767 100.781 161.539 101.067 161.374 101.436C161.212 101.803 161.131 102.233 161.131 102.727C161.131 103.233 161.211 103.673 161.37 104.048C161.532 104.423 161.759 104.714 162.051 104.922C162.347 105.129 162.694 105.233 163.091 105.233C163.353 105.233 163.59 105.188 163.803 105.097C164.016 105.006 164.196 104.875 164.344 104.705C164.492 104.534 164.597 104.33 164.659 104.091H165.665C165.608 104.477 165.468 104.825 165.243 105.135C165.022 105.442 164.728 105.686 164.361 105.868C163.998 106.047 163.574 106.136 163.091 106.136ZM169.88 106.136C169.249 106.136 168.705 105.997 168.248 105.719C167.793 105.438 167.442 105.045 167.195 104.543C166.951 104.037 166.828 103.449 166.828 102.778C166.828 102.108 166.951 101.517 167.195 101.006C167.442 100.491 167.786 100.091 168.226 99.804C168.669 99.5142 169.186 99.3693 169.777 99.3693C170.118 99.3693 170.455 99.4261 170.787 99.5398C171.12 99.6534 171.422 99.8381 171.695 100.094C171.968 100.347 172.185 100.682 172.347 101.099C172.509 101.517 172.59 102.031 172.59 102.642V103.068H167.544V102.199H171.567C171.567 101.83 171.493 101.5 171.346 101.21C171.201 100.92 170.993 100.692 170.723 100.524C170.456 100.357 170.141 100.273 169.777 100.273C169.377 100.273 169.03 100.372 168.738 100.571C168.448 100.767 168.225 101.023 168.069 101.338C167.912 101.653 167.834 101.991 167.834 102.352V102.932C167.834 103.426 167.919 103.845 168.09 104.189C168.263 104.53 168.503 104.79 168.81 104.969C169.117 105.145 169.473 105.233 169.88 105.233C170.144 105.233 170.382 105.196 170.596 105.122C170.811 105.045 170.998 104.932 171.154 104.781C171.31 104.628 171.431 104.437 171.516 104.21L172.488 104.483C172.385 104.812 172.213 105.102 171.972 105.352C171.73 105.599 171.432 105.793 171.077 105.932C170.722 106.068 170.323 106.136 169.88 106.136ZM174.853 106.068C174.642 106.068 174.462 105.993 174.311 105.842C174.161 105.692 174.086 105.511 174.086 105.301C174.086 105.091 174.161 104.911 174.311 104.76C174.462 104.609 174.642 104.534 174.853 104.534C175.063 104.534 175.243 104.609 175.394 104.76C175.544 104.911 175.62 105.091 175.62 105.301C175.62 105.44 175.584 105.568 175.513 105.685C175.445 105.801 175.353 105.895 175.236 105.966C175.123 106.034 174.995 106.068 174.853 106.068ZM174.853 101.21C174.642 101.21 174.462 101.135 174.311 100.984C174.161 100.834 174.086 100.653 174.086 100.443C174.086 100.233 174.161 100.053 174.311 99.902C174.462 99.7514 174.642 99.6761 174.853 99.6761C175.063 99.6761 175.243 99.7514 175.394 99.902C175.544 100.053 175.62 100.233 175.62 100.443C175.62 100.582 175.584 100.71 175.513 100.827C175.445 100.943 175.353 101.037 175.236 101.108C175.123 101.176 174.995 101.21 174.853 101.21Z" fill="#888888"/>
<path d="M188.972 97.2727V106H187.915V98.3807H187.864L185.733 99.7955V98.7216L187.915 97.2727H188.972ZM194.209 106.119C193.709 106.119 193.259 106.02 192.858 105.821C192.457 105.622 192.136 105.349 191.895 105.003C191.653 104.656 191.521 104.261 191.499 103.818H192.521C192.561 104.213 192.74 104.54 193.058 104.798C193.379 105.054 193.763 105.182 194.209 105.182C194.567 105.182 194.885 105.098 195.163 104.93C195.445 104.763 195.665 104.533 195.824 104.24C195.986 103.945 196.067 103.611 196.067 103.239C196.067 102.858 195.983 102.518 195.815 102.22C195.651 101.919 195.423 101.682 195.134 101.509C194.844 101.335 194.513 101.247 194.141 101.244C193.874 101.241 193.599 101.283 193.318 101.368C193.037 101.45 192.805 101.557 192.624 101.688L191.635 101.568L192.163 97.2727H196.697V98.2102H193.05L192.743 100.784H192.794C192.973 100.642 193.197 100.524 193.467 100.43C193.737 100.337 194.018 100.29 194.311 100.29C194.845 100.29 195.321 100.418 195.739 100.673C196.159 100.926 196.489 101.273 196.727 101.713C196.969 102.153 197.089 102.656 197.089 103.222C197.089 103.778 196.964 104.276 196.714 104.713C196.467 105.148 196.126 105.491 195.692 105.744C195.257 105.994 194.763 106.119 194.209 106.119ZM202.311 106V97.2727H207.544V98.2102H203.368V101.159H207.152V102.097H203.368V106H202.311ZM211.481 106.136C210.85 106.136 210.306 105.997 209.849 105.719C209.395 105.438 209.044 105.045 208.797 104.543C208.552 104.037 208.43 103.449 208.43 102.778C208.43 102.108 208.552 101.517 208.797 101.006C209.044 100.491 209.387 100.091 209.828 99.804C210.271 99.5142 210.788 99.3693 211.379 99.3693C211.72 99.3693 212.056 99.4261 212.389 99.5398C212.721 99.6534 213.024 99.8381 213.297 100.094C213.569 100.347 213.787 100.682 213.949 101.099C214.11 101.517 214.191 102.031 214.191 102.642V103.068H209.146V102.199H213.169C213.169 101.83 213.095 101.5 212.947 101.21C212.802 100.92 212.595 100.692 212.325 100.524C212.058 100.357 211.743 100.273 211.379 100.273C210.978 100.273 210.632 100.372 210.339 100.571C210.049 100.767 209.826 101.023 209.67 101.338C209.514 101.653 209.436 101.991 209.436 102.352V102.932C209.436 103.426 209.521 103.845 209.691 104.189C209.865 104.53 210.105 104.79 210.412 104.969C210.718 105.145 211.075 105.233 211.481 105.233C211.745 105.233 211.984 105.196 212.197 105.122C212.413 105.045 212.599 104.932 212.755 104.781C212.912 104.628 213.032 104.437 213.118 104.21L214.089 104.483C213.987 104.812 213.815 105.102 213.574 105.352C213.332 105.599 213.034 105.793 212.679 105.932C212.324 106.068 211.924 106.136 211.481 106.136ZM215.858 106V97.2727H216.863V100.494H216.949C217.022 100.381 217.125 100.236 217.255 100.06C217.389 99.8807 217.579 99.7216 217.826 99.5824C218.076 99.4403 218.414 99.3693 218.841 99.3693C219.392 99.3693 219.877 99.5071 220.298 99.7827C220.718 100.058 221.047 100.449 221.282 100.955C221.518 101.46 221.636 102.057 221.636 102.744C221.636 103.438 221.518 104.038 221.282 104.547C221.047 105.053 220.72 105.445 220.302 105.723C219.885 105.999 219.403 106.136 218.858 106.136C218.437 106.136 218.1 106.067 217.848 105.928C217.595 105.786 217.4 105.625 217.264 105.446C217.127 105.264 217.022 105.114 216.949 104.994H216.829V106H215.858ZM216.846 102.727C216.846 103.222 216.919 103.658 217.064 104.036C217.208 104.411 217.42 104.705 217.699 104.918C217.977 105.128 218.318 105.233 218.721 105.233C219.142 105.233 219.493 105.122 219.774 104.901C220.058 104.676 220.271 104.375 220.413 103.997C220.558 103.616 220.63 103.193 220.63 102.727C220.63 102.267 220.559 101.852 220.417 101.483C220.278 101.111 220.066 100.817 219.782 100.601C219.501 100.382 219.147 100.273 218.721 100.273C218.312 100.273 217.968 100.376 217.69 100.584C217.412 100.788 217.201 101.075 217.059 101.445C216.917 101.811 216.846 102.239 216.846 102.727ZM224.674 104.807L224.606 105.267C224.558 105.591 224.484 105.938 224.385 106.307C224.288 106.676 224.187 107.024 224.082 107.351C223.977 107.678 223.89 107.938 223.822 108.131H223.055C223.092 107.949 223.14 107.709 223.2 107.411C223.26 107.112 223.319 106.778 223.379 106.409C223.441 106.043 223.493 105.668 223.532 105.284L223.583 104.807H224.674ZM232.742 106.119C232.1 106.119 231.553 105.945 231.102 105.595C230.65 105.243 230.305 104.733 230.066 104.065C229.827 103.395 229.708 102.585 229.708 101.636C229.708 100.693 229.827 99.8878 230.066 99.2202C230.308 98.5497 230.654 98.0384 231.106 97.6861C231.56 97.331 232.106 97.1534 232.742 97.1534C233.379 97.1534 233.923 97.331 234.374 97.6861C234.829 98.0384 235.175 98.5497 235.414 99.2202C235.656 99.8878 235.776 100.693 235.776 101.636C235.776 102.585 235.657 103.395 235.418 104.065C235.18 104.733 234.835 105.243 234.383 105.595C233.931 105.945 233.384 106.119 232.742 106.119ZM232.742 105.182C233.379 105.182 233.873 104.875 234.225 104.261C234.577 103.648 234.754 102.773 234.754 101.636C234.754 100.881 234.673 100.237 234.511 99.706C234.352 99.1747 234.121 98.7699 233.82 98.4915C233.522 98.2131 233.163 98.0739 232.742 98.0739C232.112 98.0739 231.619 98.3849 231.263 99.0071C230.908 99.6264 230.731 100.503 230.731 101.636C230.731 102.392 230.81 103.034 230.969 103.562C231.129 104.091 231.357 104.493 231.656 104.768C231.957 105.044 232.319 105.182 232.742 105.182ZM240.174 97.1534C240.532 97.1562 240.89 97.2244 241.248 97.358C241.606 97.4915 241.933 97.7131 242.228 98.0227C242.523 98.3295 242.761 98.7486 242.94 99.2798C243.119 99.8111 243.208 100.477 243.208 101.278C243.208 102.054 243.134 102.743 242.987 103.345C242.842 103.945 242.631 104.45 242.356 104.862C242.083 105.274 241.751 105.587 241.359 105.8C240.969 106.013 240.529 106.119 240.038 106.119C239.549 106.119 239.113 106.023 238.729 105.83C238.349 105.634 238.036 105.362 237.792 105.016C237.55 104.666 237.396 104.261 237.327 103.801H238.367C238.461 104.202 238.647 104.533 238.925 104.794C239.207 105.053 239.577 105.182 240.038 105.182C240.711 105.182 241.242 104.888 241.631 104.3C242.023 103.712 242.219 102.881 242.219 101.807H242.151C241.992 102.045 241.803 102.251 241.585 102.425C241.366 102.598 241.123 102.732 240.856 102.825C240.589 102.919 240.305 102.966 240.004 102.966C239.504 102.966 239.045 102.842 238.627 102.595C238.212 102.345 237.88 102.003 237.63 101.568C237.383 101.131 237.259 100.631 237.259 100.068C237.259 99.5341 237.379 99.0455 237.617 98.6023C237.859 98.1562 238.197 97.8011 238.631 97.5369C239.069 97.2727 239.583 97.1449 240.174 97.1534ZM240.174 98.0909C239.816 98.0909 239.494 98.1804 239.207 98.3594C238.923 98.5355 238.697 98.7741 238.529 99.0753C238.364 99.3736 238.282 99.7045 238.282 100.068C238.282 100.432 238.362 100.763 238.521 101.061C238.683 101.357 238.903 101.592 239.181 101.768C239.462 101.942 239.782 102.028 240.14 102.028C240.41 102.028 240.661 101.976 240.894 101.871C241.127 101.763 241.33 101.616 241.504 101.432C241.68 101.244 241.817 101.033 241.917 100.797C242.016 100.558 242.066 100.31 242.066 100.051C242.066 99.7102 241.984 99.3906 241.819 99.0923C241.657 98.794 241.433 98.5526 241.146 98.3679C240.862 98.1832 240.538 98.0909 240.174 98.0909ZM245.634 104.884C245.424 104.884 245.243 104.808 245.093 104.658C244.942 104.507 244.867 104.327 244.867 104.116C244.867 103.906 244.942 103.726 245.093 103.575C245.243 103.425 245.424 103.349 245.634 103.349C245.844 103.349 246.025 103.425 246.175 103.575C246.326 103.726 246.401 103.906 246.401 104.116C246.401 104.256 246.365 104.384 246.294 104.5C246.226 104.616 246.134 104.71 246.017 104.781C245.904 104.849 245.776 104.884 245.634 104.884ZM245.634 100.469C245.424 100.469 245.243 100.393 245.093 100.243C244.942 100.092 244.867 99.9119 244.867 99.7017C244.867 99.4915 244.942 99.3111 245.093 99.1605C245.243 99.0099 245.424 98.9347 245.634 98.9347C245.844 98.9347 246.025 99.0099 246.175 99.1605C246.326 99.3111 246.401 99.4915 246.401 99.7017C246.401 99.8409 246.365 99.9688 246.294 100.085C246.226 100.202 246.134 100.295 246.017 100.366C245.904 100.435 245.776 100.469 245.634 100.469ZM251.137 106.119C250.575 106.119 250.074 106.023 249.633 105.83C249.196 105.636 248.848 105.368 248.589 105.024C248.333 104.678 248.194 104.276 248.172 103.818H249.245C249.268 104.099 249.365 104.342 249.535 104.547C249.706 104.749 249.929 104.905 250.204 105.016C250.48 105.126 250.785 105.182 251.12 105.182C251.495 105.182 251.828 105.116 252.118 104.986C252.407 104.855 252.635 104.673 252.799 104.44C252.964 104.207 253.047 103.938 253.047 103.631C253.047 103.31 252.967 103.027 252.808 102.783C252.649 102.536 252.416 102.342 252.109 102.203C251.802 102.064 251.427 101.994 250.984 101.994H250.285V101.057H250.984C251.331 101.057 251.635 100.994 251.896 100.869C252.16 100.744 252.366 100.568 252.514 100.341C252.664 100.114 252.74 99.8466 252.74 99.5398C252.74 99.2443 252.674 98.9872 252.544 98.7685C252.413 98.5497 252.228 98.3793 251.99 98.2571C251.754 98.1349 251.475 98.0739 251.154 98.0739C250.853 98.0739 250.569 98.1293 250.302 98.2401C250.038 98.348 249.822 98.5057 249.654 98.7131C249.487 98.9176 249.396 99.1648 249.382 99.4545H248.359C248.376 98.9972 248.514 98.5966 248.772 98.2528C249.031 97.9062 249.369 97.6364 249.787 97.4432C250.207 97.25 250.669 97.1534 251.172 97.1534C251.711 97.1534 252.174 97.2628 252.561 97.4815C252.947 97.6974 253.244 97.983 253.451 98.3381C253.659 98.6932 253.762 99.0767 253.762 99.4886C253.762 99.9801 253.633 100.399 253.375 100.746C253.119 101.092 252.771 101.332 252.331 101.466V101.534C252.882 101.625 253.312 101.859 253.622 102.237C253.931 102.612 254.086 103.077 254.086 103.631C254.086 104.105 253.957 104.531 253.699 104.909C253.443 105.284 253.093 105.58 252.65 105.795C252.207 106.011 251.703 106.119 251.137 106.119ZM258.676 106.119C258.034 106.119 257.487 105.945 257.035 105.595C256.583 105.243 256.238 104.733 256 104.065C255.761 103.395 255.642 102.585 255.642 101.636C255.642 100.693 255.761 99.8878 256 99.2202C256.241 98.5497 256.588 98.0384 257.039 97.6861C257.494 97.331 258.039 97.1534 258.676 97.1534C259.312 97.1534 259.856 97.331 260.308 97.6861C260.762 98.0384 261.109 98.5497 261.348 99.2202C261.589 99.8878 261.71 100.693 261.71 101.636C261.71 102.585 261.591 103.395 261.352 104.065C261.113 104.733 260.768 105.243 260.316 105.595C259.865 105.945 259.318 106.119 258.676 106.119ZM258.676 105.182C259.312 105.182 259.806 104.875 260.159 104.261C260.511 103.648 260.687 102.773 260.687 101.636C260.687 100.881 260.606 100.237 260.444 99.706C260.285 99.1747 260.055 98.7699 259.754 98.4915C259.456 98.2131 259.096 98.0739 258.676 98.0739C258.045 98.0739 257.552 98.3849 257.197 99.0071C256.842 99.6264 256.664 100.503 256.664 101.636C256.664 102.392 256.744 103.034 256.903 103.562C257.062 104.091 257.291 104.493 257.589 104.768C257.89 105.044 258.252 105.182 258.676 105.182Z" fill="#888888"/>
</g>
<defs>
<filter id="filter0_ddd_3864_9927" x="0" y="0" width="305" height="136" filterUnits="userSpaceOnUse" color-interpolation-filters="sRGB">
<feFlood flood-opacity="0" result="BackgroundImageFix"/>
<feColorMatrix in="SourceAlpha" type="matrix" values="0 0 0 0 0 0 0 0 0 0 0 0 0 0 0 0 0 0 127 0" result="hardAlpha"/>
<feOffset dy="2"/>
<feGaussianBlur stdDeviation="4"/>
<feComposite in2="hardAlpha" operator="out"/>
<feColorMatrix type="matrix" values="0 0 0 0 0 0 0 0 0 0 0 0 0 0 0 0 0 0 0.03 0"/>
<feBlend mode="normal" in2="BackgroundImageFix" result="effect1_dropShadow_3864_9927"/>
<feColorMatrix in="SourceAlpha" type="matrix" values="0 0 0 0 0 0 0 0 0 0 0 0 0 0 0 0 0 0 127 0" result="hardAlpha"/>
<feOffset dy="1"/>
<feGaussianBlur stdDeviation="1"/>
<feComposite in2="hardAlpha" operator="out"/>
<feColorMatrix type="matrix" values="0 0 0 0 0 0 0 0 0 0 0 0 0 0 0 0 0 0 0.06 0"/>
<feBlend mode="normal" in2="effect1_dropShadow_3864_9927" result="effect2_dropShadow_3864_9927"/>
<feColorMatrix in="SourceAlpha" type="matrix" values="0 0 0 0 0 0 0 0 0 0 0 0 0 0 0 0 0 0 127 0" result="hardAlpha"/>
<feOffset dy="4"/>
<feGaussianBlur stdDeviation="3"/>
<feComposite in2="hardAlpha" operator="out"/>
<feColorMatrix type="matrix" values="0 0 0 0 0 0 0 0 0 0 0 0 0 0 0 0 0 0 0.02 0"/>
<feBlend mode="normal" in2="effect2_dropShadow_3864_9927" result="effect3_dropShadow_3864_9927"/>
<feBlend mode="normal" in="SourceGraphic" in2="effect3_dropShadow_3864_9927" result="shape"/>
</filter>
</defs>
</svg>
