<svg width="305" height="136" viewBox="0 0 305 136" fill="none" xmlns="http://www.w3.org/2000/svg">
<g filter="url(#filter0_ddd_3864_9926)">
<path d="M8 16C8 10.4772 12.4772 6 18 6H287C292.523 6 297 10.4772 297 16V116C297 121.523 292.523 126 287 126H18C12.4771 126 8 121.523 8 116V16Z" fill="#FDFDFD" shape-rendering="crispEdges"/>
<path d="M33.1477 42V30.3636H35.2557V40.233H40.3807V42H33.1477ZM42.1193 42V33.2727H44.1761V42H42.1193ZM43.1534 32.0341C42.8277 32.0341 42.5473 31.9261 42.3125 31.7102C42.0777 31.4905 41.9602 31.2273 41.9602 30.9205C41.9602 30.6098 42.0777 30.3466 42.3125 30.1307C42.5473 29.911 42.8277 29.8011 43.1534 29.8011C43.483 29.8011 43.7633 29.911 43.9943 30.1307C44.2292 30.3466 44.3466 30.6098 44.3466 30.9205C44.3466 31.2273 44.2292 31.4905 43.9943 31.7102C43.7633 31.9261 43.483 32.0341 43.1534 32.0341ZM48.348 36.8864V42H46.2912V33.2727H48.2571V34.7557H48.3594C48.5601 34.267 48.8802 33.8788 49.3196 33.5909C49.7628 33.303 50.3101 33.1591 50.9616 33.1591C51.5639 33.1591 52.0885 33.2879 52.5355 33.5455C52.9863 33.803 53.3348 34.1761 53.581 34.6648C53.831 35.1534 53.9541 35.7462 53.9503 36.4432V42H51.8935V36.7614C51.8935 36.178 51.742 35.7216 51.4389 35.392C51.1397 35.0625 50.7249 34.8977 50.1946 34.8977C49.8348 34.8977 49.5147 34.9773 49.2344 35.1364C48.9579 35.2917 48.7401 35.517 48.581 35.8125C48.4257 36.108 48.348 36.4659 48.348 36.8864ZM58.5526 42.1761C57.9995 42.1761 57.5014 42.0777 57.0582 41.8807C56.6188 41.6799 56.2704 41.3845 56.0128 40.9943C55.759 40.6042 55.6321 40.1231 55.6321 39.5511C55.6321 39.0587 55.723 38.6515 55.9048 38.3295C56.0866 38.0076 56.3348 37.75 56.6491 37.5568C56.9635 37.3636 57.3177 37.2178 57.7116 37.1193C58.1094 37.017 58.5204 36.9432 58.9446 36.8977C59.456 36.8447 59.8707 36.7973 60.1889 36.7557C60.5071 36.7102 60.7382 36.642 60.8821 36.5511C61.0298 36.4564 61.1037 36.3106 61.1037 36.1136V36.0795C61.1037 35.6515 60.9768 35.3201 60.723 35.0852C60.4692 34.8504 60.1037 34.733 59.6264 34.733C59.1226 34.733 58.723 34.8428 58.4276 35.0625C58.1359 35.2822 57.9389 35.5417 57.8366 35.8409L55.9162 35.5682C56.0677 35.0379 56.3177 34.5947 56.6662 34.2386C57.0147 33.8788 57.4408 33.6098 57.9446 33.4318C58.4484 33.25 59.0052 33.1591 59.6151 33.1591C60.0355 33.1591 60.4541 33.2083 60.8707 33.3068C61.2874 33.4053 61.6681 33.5682 62.0128 33.7955C62.3575 34.0189 62.634 34.3239 62.8423 34.7102C63.0545 35.0966 63.1605 35.5795 63.1605 36.1591V42H61.1832V40.8011H61.1151C60.9901 41.0436 60.8139 41.2708 60.5866 41.483C60.3632 41.6913 60.081 41.8598 59.7401 41.9886C59.4029 42.1136 59.0071 42.1761 58.5526 42.1761ZM59.0866 40.6648C59.4995 40.6648 59.8575 40.5833 60.1605 40.4205C60.4635 40.2538 60.6965 40.0341 60.8594 39.7614C61.026 39.4886 61.1094 39.1913 61.1094 38.8693V37.8409C61.045 37.8939 60.9351 37.9432 60.7798 37.9886C60.6283 38.0341 60.4579 38.0739 60.2685 38.108C60.0791 38.142 59.8916 38.1723 59.706 38.1989C59.5204 38.2254 59.3594 38.2481 59.223 38.267C58.9162 38.3087 58.6416 38.3769 58.3991 38.4716C58.1567 38.5663 57.9654 38.6989 57.8253 38.8693C57.6851 39.036 57.6151 39.2519 57.6151 39.517C57.6151 39.8958 57.7533 40.1818 58.0298 40.375C58.3063 40.5682 58.6586 40.6648 59.0866 40.6648ZM69.0355 42.1705C68.1643 42.1705 67.4162 41.9792 66.7912 41.5966C66.17 41.214 65.6908 40.6856 65.3537 40.0114C65.0204 39.3333 64.8537 38.553 64.8537 37.6705C64.8537 36.7841 65.0241 36.0019 65.3651 35.3239C65.706 34.642 66.187 34.1117 66.8082 33.733C67.4332 33.3504 68.1719 33.1591 69.0241 33.1591C69.7325 33.1591 70.3594 33.2898 70.9048 33.5511C71.4541 33.8087 71.8916 34.1742 72.2173 34.6477C72.5431 35.1174 72.7287 35.6667 72.7741 36.2955H70.8082C70.7287 35.875 70.5393 35.5246 70.2401 35.2443C69.9446 34.9602 69.5488 34.8182 69.0526 34.8182C68.6321 34.8182 68.2628 34.9318 67.9446 35.1591C67.6264 35.3826 67.3783 35.7045 67.2003 36.125C67.026 36.5455 66.9389 37.0492 66.9389 37.6364C66.9389 38.2311 67.026 38.7424 67.2003 39.1705C67.3745 39.5947 67.6188 39.9223 67.9332 40.1534C68.2514 40.3807 68.6245 40.4943 69.0526 40.4943C69.3556 40.4943 69.6264 40.4375 69.8651 40.3239C70.1075 40.2064 70.3101 40.0379 70.473 39.8182C70.6359 39.5985 70.7476 39.3314 70.8082 39.017H72.7741C72.7249 39.6345 72.5431 40.1818 72.2287 40.6591C71.9143 41.1326 71.4863 41.5038 70.9446 41.7727C70.4029 42.0379 69.7666 42.1705 69.0355 42.1705ZM78.4091 42V40.4773L82.4489 36.517C82.8352 36.1269 83.1572 35.7803 83.4148 35.4773C83.6723 35.1742 83.8655 34.8807 83.9943 34.5966C84.1231 34.3125 84.1875 34.0095 84.1875 33.6875C84.1875 33.3201 84.1042 33.0057 83.9375 32.7443C83.7708 32.4792 83.5417 32.2746 83.25 32.1307C82.9583 31.9867 82.6269 31.9148 82.2557 31.9148C81.8731 31.9148 81.5379 31.9943 81.25 32.1534C80.9621 32.3087 80.7386 32.5303 80.5795 32.8182C80.4242 33.1061 80.3466 33.4489 80.3466 33.8466H78.3409C78.3409 33.108 78.5095 32.4659 78.8466 31.9205C79.1837 31.375 79.6477 30.9527 80.2386 30.6534C80.8333 30.3542 81.5152 30.2045 82.2841 30.2045C83.0644 30.2045 83.75 30.3504 84.3409 30.642C84.9318 30.9337 85.3902 31.3333 85.7159 31.8409C86.0455 32.3485 86.2102 32.928 86.2102 33.5795C86.2102 34.0152 86.1269 34.4432 85.9602 34.8636C85.7936 35.2841 85.5 35.75 85.0795 36.2614C84.6629 36.7727 84.0777 37.392 83.3239 38.1193L81.3182 40.1591V40.2386H86.3864V42H78.4091ZM89.9545 42H87.7045L91.8011 30.3636H94.4034L98.5057 42H96.2557L93.1477 32.75H93.0568L89.9545 42ZM90.0284 37.4375H96.1648V39.1307H90.0284V37.4375Z" fill="#303236"/>
<rect x="185" y="22" width="88" height="28" rx="8" fill="#E2EEE9"/>
<path d="M224.807 37.2727H225.966L226.938 38.5511L227.194 38.892L228.643 40.8182H227.483L226.529 39.5398L226.29 39.2159L224.807 37.2727ZM229.001 35.6364C229.001 36.5568 228.834 37.3523 228.502 38.0227C228.17 38.6932 227.714 39.2102 227.134 39.5739C226.555 39.9375 225.893 40.1193 225.148 40.1193C224.404 40.1193 223.742 39.9375 223.162 39.5739C222.583 39.2102 222.127 38.6932 221.795 38.0227C221.462 37.3523 221.296 36.5568 221.296 35.6364C221.296 34.7159 221.462 33.9205 221.795 33.25C222.127 32.5795 222.583 32.0625 223.162 31.6989C223.742 31.3352 224.404 31.1534 225.148 31.1534C225.893 31.1534 226.555 31.3352 227.134 31.6989C227.714 32.0625 228.17 32.5795 228.502 33.25C228.834 33.9205 229.001 34.7159 229.001 35.6364ZM227.978 35.6364C227.978 34.8807 227.851 34.2429 227.599 33.723C227.349 33.2031 227.009 32.8097 226.58 32.5426C226.154 32.2756 225.677 32.142 225.148 32.142C224.62 32.142 224.141 32.2756 223.712 32.5426C223.286 32.8097 222.947 33.2031 222.694 33.723C222.444 34.2429 222.319 34.8807 222.319 35.6364C222.319 36.392 222.444 37.0298 222.694 37.5497C222.947 38.0696 223.286 38.4631 223.712 38.7301C224.141 38.9972 224.62 39.1307 225.148 39.1307C225.677 39.1307 226.154 38.9972 226.58 38.7301C227.009 38.4631 227.349 38.0696 227.599 37.5497C227.851 37.0298 227.978 36.392 227.978 35.6364ZM230.725 40H229.617L232.822 31.2727H233.913L237.117 40H236.009L233.401 32.6534H233.333L230.725 40ZM231.134 36.5909H235.6V37.5284H231.134V36.5909Z" fill="#7E928A"/>
<path d="M36.3977 77.2727H37.4545V83.5114C37.4545 84.0682 37.3523 84.5412 37.1477 84.9304C36.9432 85.3196 36.6548 85.6151 36.2827 85.8168C35.9105 86.0185 35.4716 86.1193 34.9659 86.1193C34.4886 86.1193 34.0639 86.0327 33.6918 85.8594C33.3196 85.6832 33.027 85.4332 32.8139 85.1094C32.6009 84.7855 32.4943 84.4006 32.4943 83.9545H33.5341C33.5341 84.2017 33.5952 84.4176 33.7173 84.6023C33.8423 84.7841 34.0128 84.9261 34.2287 85.0284C34.4446 85.1307 34.6903 85.1818 34.9659 85.1818C35.2699 85.1818 35.5284 85.1179 35.7415 84.9901C35.9545 84.8622 36.1165 84.6747 36.2273 84.4276C36.3409 84.1776 36.3977 83.8722 36.3977 83.5114V77.2727ZM42.0952 86.1364C41.5043 86.1364 40.9858 85.9957 40.5398 85.7145C40.0966 85.4332 39.75 85.0398 39.5 84.5341C39.2528 84.0284 39.1293 83.4375 39.1293 82.7614C39.1293 82.0795 39.2528 81.4844 39.5 80.9759C39.75 80.4673 40.0966 80.0724 40.5398 79.7912C40.9858 79.5099 41.5043 79.3693 42.0952 79.3693C42.6861 79.3693 43.2031 79.5099 43.6463 79.7912C44.0923 80.0724 44.4389 80.4673 44.6861 80.9759C44.9361 81.4844 45.0611 82.0795 45.0611 82.7614C45.0611 83.4375 44.9361 84.0284 44.6861 84.5341C44.4389 85.0398 44.0923 85.4332 43.6463 85.7145C43.2031 85.9957 42.6861 86.1364 42.0952 86.1364ZM42.0952 85.233C42.544 85.233 42.9134 85.1179 43.2031 84.8878C43.4929 84.6577 43.7074 84.3551 43.8466 83.9801C43.9858 83.6051 44.0554 83.1989 44.0554 82.7614C44.0554 82.3239 43.9858 81.9162 43.8466 81.5384C43.7074 81.1605 43.4929 80.8551 43.2031 80.6222C42.9134 80.3892 42.544 80.2727 42.0952 80.2727C41.6463 80.2727 41.277 80.3892 40.9872 80.6222C40.6974 80.8551 40.483 81.1605 40.3438 81.5384C40.2045 81.9162 40.1349 82.3239 40.1349 82.7614C40.1349 83.1989 40.2045 83.6051 40.3438 83.9801C40.483 84.3551 40.6974 84.6577 40.9872 84.8878C41.277 85.1179 41.6463 85.233 42.0952 85.233ZM47.6019 82.0625V86H46.5962V77.2727H47.6019V80.4773H47.6871C47.8406 80.1392 48.0707 79.8707 48.3775 79.6719C48.6871 79.4702 49.0991 79.3693 49.6133 79.3693C50.0593 79.3693 50.4499 79.4588 50.7852 79.6378C51.1204 79.8139 51.3803 80.0852 51.565 80.4517C51.7525 80.8153 51.8462 81.2784 51.8462 81.8409V86H50.8406V81.9091C50.8406 81.3892 50.7056 80.9872 50.4357 80.7031C50.1687 80.4162 49.7979 80.2727 49.3235 80.2727C48.994 80.2727 48.6985 80.3423 48.4371 80.4815C48.1786 80.6207 47.9741 80.8239 47.8235 81.0909C47.6758 81.358 47.6019 81.6818 47.6019 82.0625ZM54.6918 82.0625V86H53.6861V79.4545H54.6577V80.4773H54.7429C54.8963 80.1449 55.1293 79.8778 55.4418 79.6761C55.7543 79.4716 56.1577 79.3693 56.652 79.3693C57.0952 79.3693 57.483 79.4602 57.8153 79.642C58.1477 79.821 58.4063 80.0938 58.5909 80.4602C58.7756 80.8239 58.8679 81.2841 58.8679 81.8409V86H57.8622V81.9091C57.8622 81.3949 57.7287 80.9943 57.4616 80.7074C57.1946 80.4176 56.8281 80.2727 56.3622 80.2727C56.0412 80.2727 55.7543 80.3423 55.5014 80.4815C55.2514 80.6207 55.054 80.8239 54.9091 81.0909C54.7642 81.358 54.6918 81.6818 54.6918 82.0625ZM68.9897 79.4545C68.9386 79.0227 68.7312 78.6875 68.3675 78.4489C68.0039 78.2102 67.5579 78.0909 67.0295 78.0909C66.6431 78.0909 66.305 78.1534 66.0153 78.2784C65.7283 78.4034 65.5039 78.5753 65.342 78.794C65.1829 79.0128 65.1033 79.2614 65.1033 79.5398C65.1033 79.7727 65.1587 79.973 65.2695 80.1406C65.3832 80.3054 65.5281 80.4432 65.7042 80.554C65.8803 80.6619 66.065 80.7514 66.2582 80.8224C66.4513 80.8906 66.6289 80.946 66.7908 80.9886L67.6772 81.2273C67.9045 81.2869 68.1573 81.3693 68.4357 81.4744C68.717 81.5795 68.9854 81.723 69.2411 81.9048C69.4996 82.0838 69.7127 82.3139 69.8803 82.5952C70.0479 82.8764 70.1317 83.2216 70.1317 83.6307C70.1317 84.1023 70.0082 84.5284 69.761 84.9091C69.5167 85.2898 69.1587 85.5923 68.6871 85.8168C68.2184 86.0412 67.6488 86.1534 66.9783 86.1534C66.3533 86.1534 65.8121 86.0526 65.3548 85.8509C64.9002 85.6491 64.5423 85.3679 64.2809 85.0071C64.0224 84.6463 63.8761 84.2273 63.842 83.75H64.9329C64.9613 84.0795 65.0721 84.3523 65.2653 84.5682C65.4613 84.7812 65.7085 84.9403 66.0067 85.0455C66.3079 85.1477 66.6317 85.1989 66.9783 85.1989C67.3817 85.1989 67.744 85.1335 68.065 85.0028C68.386 84.8693 68.6403 84.6847 68.8278 84.4489C69.0153 84.2102 69.109 83.9318 69.109 83.6136C69.109 83.3239 69.0281 83.0881 68.8661 82.9062C68.7042 82.7244 68.4911 82.5767 68.2269 82.4631C67.9627 82.3494 67.6772 82.25 67.3704 82.1648L66.2965 81.858C65.6147 81.6619 65.0749 81.3821 64.6772 81.0185C64.2795 80.6548 64.0806 80.179 64.0806 79.5909C64.0806 79.1023 64.2127 78.6761 64.4769 78.3125C64.744 77.946 65.1019 77.6619 65.5508 77.4602C66.0025 77.2557 66.5067 77.1534 67.0636 77.1534C67.6261 77.1534 68.1261 77.2543 68.5636 77.456C69.0011 77.6548 69.3477 77.9276 69.6033 78.2741C69.8619 78.6207 69.9982 79.0142 70.0124 79.4545H68.9897ZM71.733 86V79.4545H72.7045V80.4773H72.7898C72.9261 80.1278 73.1463 79.8565 73.4503 79.6634C73.7543 79.4673 74.1193 79.3693 74.5455 79.3693C74.9773 79.3693 75.3366 79.4673 75.6236 79.6634C75.9134 79.8565 76.1392 80.1278 76.3011 80.4773H76.3693C76.5369 80.1392 76.7884 79.8707 77.1236 79.6719C77.4588 79.4702 77.8608 79.3693 78.3295 79.3693C78.9148 79.3693 79.3935 79.5526 79.7656 79.919C80.1378 80.2827 80.3239 80.8494 80.3239 81.6193V86H79.3182V81.6193C79.3182 81.1364 79.1861 80.7912 78.9219 80.5838C78.6577 80.3764 78.3466 80.2727 77.9886 80.2727C77.5284 80.2727 77.1719 80.4119 76.919 80.6903C76.6662 80.9659 76.5398 81.3153 76.5398 81.7386V86H75.517V81.517C75.517 81.1449 75.3963 80.8452 75.1548 80.6179C74.9134 80.3878 74.6023 80.2727 74.2216 80.2727C73.9602 80.2727 73.7159 80.3423 73.4886 80.4815C73.2642 80.6207 73.0824 80.8139 72.9432 81.0611C72.8068 81.3054 72.7386 81.5881 72.7386 81.9091V86H71.733ZM82.1626 86V79.4545H83.1683V86H82.1626ZM82.674 78.3636C82.478 78.3636 82.3089 78.2969 82.1669 78.1634C82.0277 78.0298 81.9581 77.8693 81.9581 77.6818C81.9581 77.4943 82.0277 77.3338 82.1669 77.2003C82.3089 77.0668 82.478 77 82.674 77C82.87 77 83.0376 77.0668 83.1768 77.2003C83.3189 77.3338 83.3899 77.4943 83.3899 77.6818C83.3899 77.8693 83.3189 78.0298 83.1768 78.1634C83.0376 78.2969 82.87 78.3636 82.674 78.3636ZM87.8569 79.4545V80.3068H84.4648V79.4545H87.8569ZM85.4535 77.8864H86.4592V84.125C86.4592 84.4091 86.5004 84.6222 86.5827 84.7642C86.668 84.9034 86.7759 84.9972 86.9066 85.0455C87.0401 85.0909 87.1808 85.1136 87.3285 85.1136C87.4393 85.1136 87.5302 85.108 87.6012 85.0966C87.6722 85.0824 87.729 85.071 87.7717 85.0625L87.9762 85.9659C87.908 85.9915 87.8129 86.017 87.6907 86.0426C87.5685 86.071 87.4137 86.0852 87.2262 86.0852C86.9421 86.0852 86.6637 86.0241 86.391 85.902C86.1211 85.7798 85.8967 85.5938 85.7177 85.3438C85.5415 85.0938 85.4535 84.7784 85.4535 84.3977V77.8864ZM90.516 82.0625V86H89.5103V77.2727H90.516V80.4773H90.6012C90.7546 80.1392 90.9847 79.8707 91.2915 79.6719C91.6012 79.4702 92.0131 79.3693 92.5273 79.3693C92.9734 79.3693 93.364 79.4588 93.6992 79.6378C94.0344 79.8139 94.2944 80.0852 94.479 80.4517C94.6665 80.8153 94.7603 81.2784 94.7603 81.8409V86H93.7546V81.9091C93.7546 81.3892 93.6197 80.9872 93.3498 80.7031C93.0827 80.4162 92.712 80.2727 92.2376 80.2727C91.908 80.2727 91.6126 80.3423 91.3512 80.4815C91.0927 80.6207 90.8881 80.8239 90.7376 81.0909C90.5898 81.358 90.516 81.6818 90.516 82.0625Z" fill="#4A4D52"/>
<path d="M100.112 86V77.2727H103.06C103.745 77.2727 104.305 77.3963 104.739 77.6435C105.177 77.8878 105.501 78.2188 105.711 78.6364C105.921 79.054 106.026 79.5199 106.026 80.0341C106.026 80.5483 105.921 81.0156 105.711 81.4361C105.504 81.8565 105.183 82.1918 104.748 82.4418C104.313 82.6889 103.756 82.8125 103.077 82.8125H100.964V81.875H103.043C103.512 81.875 103.888 81.794 104.173 81.6321C104.457 81.4702 104.663 81.2514 104.79 80.9759C104.921 80.6974 104.987 80.3835 104.987 80.0341C104.987 79.6847 104.921 79.3722 104.79 79.0966C104.663 78.821 104.455 78.6051 104.168 78.4489C103.881 78.2898 103.501 78.2102 103.026 78.2102H101.168V86H100.112ZM108.598 82.0625V86H107.592V77.2727H108.598V80.4773H108.683C108.837 80.1392 109.067 79.8707 109.374 79.6719C109.683 79.4702 110.095 79.3693 110.609 79.3693C111.055 79.3693 111.446 79.4588 111.781 79.6378C112.116 79.8139 112.376 80.0852 112.561 80.4517C112.749 80.8153 112.842 81.2784 112.842 81.8409V86H111.837V81.9091C111.837 81.3892 111.702 80.9872 111.432 80.7031C111.165 80.4162 110.794 80.2727 110.32 80.2727C109.99 80.2727 109.695 80.3423 109.433 80.4815C109.175 80.6207 108.97 80.8239 108.82 81.0909C108.672 81.358 108.598 81.6818 108.598 82.0625ZM115.096 88.4545C114.925 88.4545 114.773 88.4403 114.64 88.4119C114.506 88.3864 114.414 88.3608 114.363 88.3352L114.618 87.4489C114.863 87.5114 115.078 87.5341 115.266 87.517C115.453 87.5 115.62 87.4162 115.765 87.2656C115.912 87.1179 116.047 86.8778 116.169 86.5455L116.357 86.0341L113.936 79.4545H115.027L116.834 84.6705H116.902L118.709 79.4545H119.8L117.022 86.9545C116.897 87.2926 116.742 87.5724 116.557 87.794C116.373 88.0185 116.158 88.1847 115.914 88.2926C115.672 88.4006 115.4 88.4545 115.096 88.4545ZM123.552 86.1364C122.939 86.1364 122.41 85.9915 121.967 85.7017C121.524 85.4119 121.183 85.0128 120.944 84.5043C120.706 83.9957 120.586 83.4148 120.586 82.7614C120.586 82.0966 120.708 81.5099 120.953 81.0014C121.2 80.4901 121.544 80.0909 121.984 79.804C122.427 79.5142 122.944 79.3693 123.535 79.3693C123.995 79.3693 124.41 79.4545 124.779 79.625C125.149 79.7955 125.451 80.0341 125.687 80.3409C125.923 80.6477 126.069 81.0057 126.126 81.4148H125.12C125.044 81.1165 124.873 80.8523 124.609 80.6222C124.348 80.3892 123.995 80.2727 123.552 80.2727C123.16 80.2727 122.816 80.375 122.521 80.5795C122.228 80.7812 122 81.0668 121.835 81.4361C121.673 81.8026 121.592 82.233 121.592 82.7273C121.592 83.233 121.672 83.6733 121.831 84.0483C121.993 84.4233 122.22 84.7145 122.512 84.9219C122.808 85.1293 123.154 85.233 123.552 85.233C123.814 85.233 124.051 85.1875 124.264 85.0966C124.477 85.0057 124.657 84.875 124.805 84.7045C124.953 84.5341 125.058 84.3295 125.12 84.0909H126.126C126.069 84.4773 125.929 84.8253 125.704 85.1349C125.483 85.4418 125.189 85.6861 124.822 85.8679C124.458 86.0469 124.035 86.1364 123.552 86.1364ZM127.596 86V79.4545H128.602V86H127.596ZM128.108 78.3636C127.912 78.3636 127.743 78.2969 127.6 78.1634C127.461 78.0298 127.392 77.8693 127.392 77.6818C127.392 77.4943 127.461 77.3338 127.6 77.2003C127.743 77.0668 127.912 77 128.108 77C128.304 77 128.471 77.0668 128.61 77.2003C128.752 77.3338 128.824 77.4943 128.824 77.6818C128.824 77.8693 128.752 78.0298 128.61 78.1634C128.471 78.2969 128.304 78.3636 128.108 78.3636ZM135.08 80.9205L134.177 81.1761C134.12 81.0256 134.036 80.8793 133.925 80.7372C133.817 80.5923 133.67 80.473 133.482 80.3793C133.295 80.2855 133.055 80.2386 132.762 80.2386C132.362 80.2386 132.028 80.331 131.761 80.5156C131.496 80.6974 131.364 80.929 131.364 81.2102C131.364 81.4602 131.455 81.6577 131.637 81.8026C131.819 81.9474 132.103 82.0682 132.489 82.1648L133.461 82.4034C134.046 82.5455 134.482 82.7628 134.769 83.0554C135.056 83.3452 135.2 83.7187 135.2 84.1761C135.2 84.5511 135.092 84.8864 134.876 85.1818C134.663 85.4773 134.364 85.7102 133.981 85.8807C133.597 86.0511 133.151 86.1364 132.643 86.1364C131.975 86.1364 131.423 85.9915 130.985 85.7017C130.548 85.4119 130.271 84.9886 130.154 84.4318L131.109 84.1932C131.2 84.5455 131.371 84.8097 131.624 84.9858C131.88 85.1619 132.214 85.25 132.626 85.25C133.094 85.25 133.467 85.1506 133.742 84.9517C134.021 84.75 134.16 84.5085 134.16 84.2273C134.16 84 134.08 83.8097 133.921 83.6562C133.762 83.5 133.518 83.3835 133.188 83.3068L132.097 83.0511C131.498 82.9091 131.058 82.6889 130.776 82.3906C130.498 82.0895 130.359 81.7131 130.359 81.2614C130.359 80.892 130.462 80.5653 130.67 80.2812C130.88 79.9972 131.165 79.7741 131.526 79.6122C131.89 79.4503 132.302 79.3693 132.762 79.3693C133.41 79.3693 133.918 79.5114 134.288 79.7955C134.66 80.0795 134.924 80.4545 135.08 80.9205ZM136.713 86V79.4545H137.719V86H136.713ZM137.225 78.3636C137.029 78.3636 136.86 78.2969 136.718 78.1634C136.578 78.0298 136.509 77.8693 136.509 77.6818C136.509 77.4943 136.578 77.3338 136.718 77.2003C136.86 77.0668 137.029 77 137.225 77C137.421 77 137.588 77.0668 137.728 77.2003C137.87 77.3338 137.941 77.4943 137.941 77.6818C137.941 77.8693 137.87 78.0298 137.728 78.1634C137.588 78.2969 137.421 78.3636 137.225 78.3636ZM144.197 80.9205L143.294 81.1761C143.237 81.0256 143.153 80.8793 143.043 80.7372C142.935 80.5923 142.787 80.473 142.599 80.3793C142.412 80.2855 142.172 80.2386 141.879 80.2386C141.479 80.2386 141.145 80.331 140.878 80.5156C140.614 80.6974 140.482 80.929 140.482 81.2102C140.482 81.4602 140.572 81.6577 140.754 81.8026C140.936 81.9474 141.22 82.0682 141.607 82.1648L142.578 82.4034C143.163 82.5455 143.599 82.7628 143.886 83.0554C144.173 83.3452 144.317 83.7187 144.317 84.1761C144.317 84.5511 144.209 84.8864 143.993 85.1818C143.78 85.4773 143.482 85.7102 143.098 85.8807C142.714 86.0511 142.268 86.1364 141.76 86.1364C141.092 86.1364 140.54 85.9915 140.102 85.7017C139.665 85.4119 139.388 84.9886 139.271 84.4318L140.226 84.1932C140.317 84.5455 140.489 84.8097 140.741 84.9858C140.997 85.1619 141.331 85.25 141.743 85.25C142.212 85.25 142.584 85.1506 142.859 84.9517C143.138 84.75 143.277 84.5085 143.277 84.2273C143.277 84 143.197 83.8097 143.038 83.6562C142.879 83.5 142.635 83.3835 142.305 83.3068L141.214 83.0511C140.615 82.9091 140.175 82.6889 139.893 82.3906C139.615 82.0895 139.476 81.7131 139.476 81.2614C139.476 80.892 139.58 80.5653 139.787 80.2812C139.997 79.9972 140.283 79.7741 140.643 79.6122C141.007 79.4503 141.419 79.3693 141.879 79.3693C142.527 79.3693 143.036 79.5114 143.405 79.7955C143.777 80.0795 144.041 80.4545 144.197 80.9205ZM148.677 79.4545V80.3068H145.285V79.4545H148.677ZM146.274 77.8864H147.279V84.125C147.279 84.4091 147.321 84.6222 147.403 84.7642C147.488 84.9034 147.596 84.9972 147.727 85.0455C147.86 85.0909 148.001 85.1136 148.149 85.1136C148.26 85.1136 148.35 85.108 148.422 85.0966C148.493 85.0824 148.549 85.071 148.592 85.0625L148.797 85.9659C148.728 85.9915 148.633 86.017 148.511 86.0426C148.389 86.071 148.234 86.0852 148.047 86.0852C147.762 86.0852 147.484 86.0241 147.211 85.902C146.941 85.7798 146.717 85.5938 146.538 85.3438C146.362 85.0938 146.274 84.7784 146.274 84.3977V77.8864Z" fill="#888888"/>
<path d="M33.4148 106H32.3068L35.5114 97.2727H36.6023L39.8068 106H38.6989L36.0909 98.6534H36.0227L33.4148 106ZM33.8239 102.591H38.2898V103.528H33.8239V102.591ZM41.0298 106V99.4545H42.0014V100.443H42.0696C42.1889 100.119 42.4048 99.8565 42.7173 99.6548C43.0298 99.4531 43.3821 99.3523 43.7741 99.3523C43.848 99.3523 43.9403 99.3537 44.0511 99.3565C44.1619 99.3594 44.2457 99.3636 44.3026 99.3693V100.392C44.2685 100.384 44.1903 100.371 44.0682 100.354C43.9489 100.334 43.8224 100.324 43.6889 100.324C43.3707 100.324 43.0866 100.391 42.8366 100.524C42.5895 100.655 42.3935 100.837 42.2486 101.07C42.1065 101.3 42.0355 101.562 42.0355 101.858V106H41.0298ZM48.0398 106.136C47.4091 106.136 46.8651 105.997 46.4077 105.719C45.9531 105.438 45.6023 105.045 45.3551 104.543C45.1108 104.037 44.9886 103.449 44.9886 102.778C44.9886 102.108 45.1108 101.517 45.3551 101.006C45.6023 100.491 45.946 100.091 46.3864 99.804C46.8295 99.5142 47.3466 99.3693 47.9375 99.3693C48.2784 99.3693 48.6151 99.4261 48.9474 99.5398C49.2798 99.6534 49.5824 99.8381 49.8551 100.094C50.1278 100.347 50.3452 100.682 50.5071 101.099C50.669 101.517 50.75 102.031 50.75 102.642V103.068H45.7045V102.199H49.7273C49.7273 101.83 49.6534 101.5 49.5057 101.21C49.3608 100.92 49.1534 100.692 48.8835 100.524C48.6165 100.357 48.3011 100.273 47.9375 100.273C47.5369 100.273 47.1903 100.372 46.8977 100.571C46.608 100.767 46.3849 101.023 46.2287 101.338C46.0724 101.653 45.9943 101.991 45.9943 102.352V102.932C45.9943 103.426 46.0795 103.845 46.25 104.189C46.4233 104.53 46.6634 104.79 46.9702 104.969C47.277 105.145 47.6335 105.233 48.0398 105.233C48.304 105.233 48.5426 105.196 48.7557 105.122C48.9716 105.045 49.1577 104.932 49.3139 104.781C49.4702 104.628 49.5909 104.437 49.6761 104.21L50.6477 104.483C50.5455 104.812 50.3736 105.102 50.1321 105.352C49.8906 105.599 49.5923 105.793 49.2372 105.932C48.8821 106.068 48.483 106.136 48.0398 106.136ZM54.206 106.153C53.7912 106.153 53.4148 106.075 53.0767 105.919C52.7386 105.76 52.4702 105.531 52.2713 105.233C52.0724 104.932 51.973 104.568 51.973 104.142C51.973 103.767 52.0469 103.463 52.1946 103.23C52.3423 102.994 52.5398 102.81 52.7869 102.676C53.0341 102.543 53.3068 102.443 53.6051 102.378C53.9063 102.31 54.2088 102.256 54.5128 102.216C54.9105 102.165 55.233 102.126 55.4801 102.101C55.7301 102.072 55.9119 102.026 56.0256 101.96C56.142 101.895 56.2003 101.781 56.2003 101.619V101.585C56.2003 101.165 56.0852 100.838 55.8551 100.605C55.6278 100.372 55.2827 100.256 54.8196 100.256C54.3395 100.256 53.9631 100.361 53.6903 100.571C53.4176 100.781 53.2259 101.006 53.1151 101.244L52.1605 100.903C52.331 100.506 52.5582 100.196 52.8423 99.9744C53.1293 99.75 53.4418 99.5937 53.7798 99.5057C54.1207 99.4148 54.456 99.3693 54.7855 99.3693C54.9957 99.3693 55.2372 99.3949 55.5099 99.446C55.7855 99.4943 56.0511 99.5952 56.3068 99.7486C56.5653 99.902 56.7798 100.134 56.9503 100.443C57.1207 100.753 57.206 101.168 57.206 101.688V106H56.2003V105.114H56.1491C56.081 105.256 55.9673 105.408 55.8082 105.57C55.6491 105.732 55.4375 105.869 55.1733 105.983C54.9091 106.097 54.5866 106.153 54.206 106.153ZM54.3594 105.25C54.7571 105.25 55.0923 105.172 55.3651 105.016C55.6406 104.859 55.848 104.658 55.9872 104.411C56.1293 104.163 56.2003 103.903 56.2003 103.631V102.71C56.1577 102.761 56.0639 102.808 55.919 102.851C55.777 102.891 55.6122 102.926 55.4247 102.957C55.2401 102.986 55.0597 103.011 54.8835 103.034C54.7102 103.054 54.5696 103.071 54.4616 103.085C54.2003 103.119 53.956 103.175 53.7287 103.251C53.5043 103.325 53.3224 103.437 53.1832 103.588C53.0469 103.736 52.9787 103.937 52.9787 104.193C52.9787 104.543 53.108 104.807 53.3665 104.986C53.6278 105.162 53.9588 105.25 54.3594 105.25ZM62.5529 106V97.2727H65.5018C66.1836 97.2727 66.7433 97.3892 67.1808 97.6222C67.6183 97.8523 67.9421 98.169 68.1523 98.5724C68.3626 98.9759 68.4677 99.4347 68.4677 99.9489C68.4677 100.463 68.3626 100.919 68.1523 101.317C67.9421 101.714 67.6197 102.027 67.185 102.254C66.7504 102.479 66.195 102.591 65.5188 102.591H63.1325V101.636H65.4847C65.9506 101.636 66.3256 101.568 66.6097 101.432C66.8967 101.295 67.104 101.102 67.2319 100.852C67.3626 100.599 67.4279 100.298 67.4279 99.9489C67.4279 99.5994 67.3626 99.294 67.2319 99.0327C67.1012 98.7713 66.8924 98.5696 66.6055 98.4276C66.3185 98.2827 65.9393 98.2102 65.4677 98.2102H63.6097V106H62.5529ZM66.6609 102.08L68.8086 106H67.5813L65.4677 102.08H66.6609ZM72.7663 106.136C72.1357 106.136 71.5916 105.997 71.1342 105.719C70.6797 105.438 70.3288 105.045 70.0817 104.543C69.8374 104.037 69.7152 103.449 69.7152 102.778C69.7152 102.108 69.8374 101.517 70.0817 101.006C70.3288 100.491 70.6726 100.091 71.1129 99.804C71.5561 99.5142 72.0732 99.3693 72.6641 99.3693C73.005 99.3693 73.3416 99.4261 73.674 99.5398C74.0064 99.6534 74.3089 99.8381 74.5817 100.094C74.8544 100.347 75.0717 100.682 75.2337 101.099C75.3956 101.517 75.4766 102.031 75.4766 102.642V103.068H70.4311V102.199H74.4538C74.4538 101.83 74.38 101.5 74.2322 101.21C74.0874 100.92 73.88 100.692 73.6101 100.524C73.343 100.357 73.0277 100.273 72.6641 100.273C72.2635 100.273 71.9169 100.372 71.6243 100.571C71.3345 100.767 71.1115 101.023 70.9553 101.338C70.799 101.653 70.7209 101.991 70.7209 102.352V102.932C70.7209 103.426 70.8061 103.845 70.9766 104.189C71.1499 104.53 71.3899 104.79 71.6967 104.969C72.0036 105.145 72.3601 105.233 72.7663 105.233C73.0305 105.233 73.2692 105.196 73.4822 105.122C73.6982 105.045 73.8842 104.932 74.0405 104.781C74.1967 104.628 74.3175 104.437 74.4027 104.21L75.3743 104.483C75.272 104.812 75.1001 105.102 74.8587 105.352C74.6172 105.599 74.3189 105.793 73.9638 105.932C73.6087 106.068 73.2095 106.136 72.7663 106.136ZM81.6428 100.92L80.7393 101.176C80.6825 101.026 80.5987 100.879 80.4879 100.737C80.38 100.592 80.2322 100.473 80.0447 100.379C79.8572 100.286 79.6172 100.239 79.3246 100.239C78.924 100.239 78.5902 100.331 78.3232 100.516C78.0589 100.697 77.9268 100.929 77.9268 101.21C77.9268 101.46 78.0178 101.658 78.1996 101.803C78.3814 101.947 78.6655 102.068 79.0518 102.165L80.0234 102.403C80.6087 102.545 81.0447 102.763 81.3317 103.055C81.6186 103.345 81.7621 103.719 81.7621 104.176C81.7621 104.551 81.6541 104.886 81.4382 105.182C81.2251 105.477 80.9268 105.71 80.5433 105.881C80.1598 106.051 79.7138 106.136 79.2053 106.136C78.5376 106.136 77.9851 105.991 77.5476 105.702C77.1101 105.412 76.8331 104.989 76.7166 104.432L77.6712 104.193C77.7621 104.545 77.9339 104.81 78.1868 104.986C78.4425 105.162 78.7763 105.25 79.1882 105.25C79.657 105.25 80.0291 105.151 80.3047 104.952C80.5831 104.75 80.7223 104.509 80.7223 104.227C80.7223 104 80.6428 103.81 80.4837 103.656C80.3246 103.5 80.0803 103.384 79.7507 103.307L78.6598 103.051C78.0604 102.909 77.62 102.689 77.3388 102.391C77.0604 102.089 76.9212 101.713 76.9212 101.261C76.9212 100.892 77.0249 100.565 77.2322 100.281C77.4425 99.9972 77.728 99.7741 78.0888 99.6122C78.4524 99.4503 78.8643 99.3693 79.3246 99.3693C79.9723 99.3693 80.4808 99.5114 80.8501 99.7955C81.2223 100.08 81.4865 100.455 81.6428 100.92ZM83.2759 108.455V99.4545H84.2475V100.494H84.3668C84.4407 100.381 84.543 100.236 84.6737 100.06C84.8072 99.8807 84.9975 99.7216 85.2447 99.5824C85.4947 99.4403 85.8327 99.3693 86.2589 99.3693C86.81 99.3693 87.2958 99.5071 87.7163 99.7827C88.1367 100.058 88.4648 100.449 88.7006 100.955C88.9364 101.46 89.0543 102.057 89.0543 102.744C89.0543 103.438 88.9364 104.038 88.7006 104.547C88.4648 105.053 88.1381 105.445 87.7205 105.723C87.3029 105.999 86.8214 106.136 86.2759 106.136C85.8555 106.136 85.5188 106.067 85.266 105.928C85.0131 105.786 84.8185 105.625 84.6822 105.446C84.5458 105.264 84.4407 105.114 84.3668 104.994H84.2816V108.455H83.2759ZM84.2646 102.727C84.2646 103.222 84.337 103.658 84.4819 104.036C84.6268 104.411 84.8384 104.705 85.1168 104.918C85.3952 105.128 85.7362 105.233 86.1396 105.233C86.56 105.233 86.9109 105.122 87.1921 104.901C87.4762 104.676 87.6893 104.375 87.8313 103.997C87.9762 103.616 88.0487 103.193 88.0487 102.727C88.0487 102.267 87.9776 101.852 87.8356 101.483C87.6964 101.111 87.4847 100.817 87.2006 100.601C86.9194 100.382 86.5657 100.273 86.1396 100.273C85.7305 100.273 85.3867 100.376 85.1083 100.584C84.8299 100.788 84.6197 101.075 84.4776 101.445C84.3356 101.811 84.2646 102.239 84.2646 102.727ZM93.2475 106.136C92.6566 106.136 92.1381 105.996 91.6921 105.714C91.2489 105.433 90.9023 105.04 90.6523 104.534C90.4052 104.028 90.2816 103.437 90.2816 102.761C90.2816 102.08 90.4052 101.484 90.6523 100.976C90.9023 100.467 91.2489 100.072 91.6921 99.7912C92.1381 99.5099 92.6566 99.3693 93.2475 99.3693C93.8384 99.3693 94.3555 99.5099 94.7987 99.7912C95.2447 100.072 95.5913 100.467 95.8384 100.976C96.0884 101.484 96.2134 102.08 96.2134 102.761C96.2134 103.437 96.0884 104.028 95.8384 104.534C95.5913 105.04 95.2447 105.433 94.7987 105.714C94.3555 105.996 93.8384 106.136 93.2475 106.136ZM93.2475 105.233C93.6964 105.233 94.0657 105.118 94.3555 104.888C94.6452 104.658 94.8597 104.355 94.9989 103.98C95.1381 103.605 95.2077 103.199 95.2077 102.761C95.2077 102.324 95.1381 101.916 94.9989 101.538C94.8597 101.161 94.6452 100.855 94.3555 100.622C94.0657 100.389 93.6964 100.273 93.2475 100.273C92.7987 100.273 92.4293 100.389 92.1396 100.622C91.8498 100.855 91.6353 101.161 91.4961 101.538C91.3569 101.916 91.2873 102.324 91.2873 102.761C91.2873 103.199 91.3569 103.605 91.4961 103.98C91.6353 104.355 91.8498 104.658 92.1396 104.888C92.4293 105.118 92.7987 105.233 93.2475 105.233ZM98.7543 102.062V106H97.7486V99.4545H98.7202V100.477H98.8054C98.9588 100.145 99.1918 99.8778 99.5043 99.6761C99.8168 99.4716 100.22 99.3693 100.714 99.3693C101.158 99.3693 101.545 99.4602 101.878 99.642C102.21 99.821 102.469 100.094 102.653 100.46C102.838 100.824 102.93 101.284 102.93 101.841V106H101.925V101.909C101.925 101.395 101.791 100.994 101.524 100.707C101.257 100.418 100.891 100.273 100.425 100.273C100.104 100.273 99.8168 100.342 99.5639 100.482C99.3139 100.621 99.1165 100.824 98.9716 101.091C98.8267 101.358 98.7543 101.682 98.7543 102.062ZM109.404 100.92L108.501 101.176C108.444 101.026 108.36 100.879 108.25 100.737C108.142 100.592 107.994 100.473 107.806 100.379C107.619 100.286 107.379 100.239 107.086 100.239C106.686 100.239 106.352 100.331 106.085 100.516C105.821 100.697 105.689 100.929 105.689 101.21C105.689 101.46 105.779 101.658 105.961 101.803C106.143 101.947 106.427 102.068 106.814 102.165L107.785 102.403C108.37 102.545 108.806 102.763 109.093 103.055C109.38 103.345 109.524 103.719 109.524 104.176C109.524 104.551 109.416 104.886 109.2 105.182C108.987 105.477 108.689 105.71 108.305 105.881C107.922 106.051 107.475 106.136 106.967 106.136C106.299 106.136 105.747 105.991 105.309 105.702C104.872 105.412 104.595 104.989 104.478 104.432L105.433 104.193C105.524 104.545 105.696 104.81 105.949 104.986C106.204 105.162 106.538 105.25 106.95 105.25C107.419 105.25 107.791 105.151 108.066 104.952C108.345 104.75 108.484 104.509 108.484 104.227C108.484 104 108.404 103.81 108.245 103.656C108.086 103.5 107.842 103.384 107.512 103.307L106.422 103.051C105.822 102.909 105.382 102.689 105.1 102.391C104.822 102.089 104.683 101.713 104.683 101.261C104.683 100.892 104.787 100.565 104.994 100.281C105.204 99.9972 105.49 99.7741 105.85 99.6122C106.214 99.4503 106.626 99.3693 107.086 99.3693C107.734 99.3693 108.243 99.5114 108.612 99.7955C108.984 100.08 109.248 100.455 109.404 100.92ZM111.038 106V99.4545H112.043V106H111.038ZM111.549 98.3636C111.353 98.3636 111.184 98.2969 111.042 98.1634C110.903 98.0298 110.833 97.8693 110.833 97.6818C110.833 97.4943 110.903 97.3338 111.042 97.2003C111.184 97.0668 111.353 97 111.549 97C111.745 97 111.913 97.0668 112.052 97.2003C112.194 97.3338 112.265 97.4943 112.265 97.6818C112.265 97.8693 112.194 98.0298 112.052 98.1634C111.913 98.2969 111.745 98.3636 111.549 98.3636ZM114.022 106V97.2727H115.027V100.494H115.113C115.186 100.381 115.289 100.236 115.419 100.06C115.553 99.8807 115.743 99.7216 115.99 99.5824C116.24 99.4403 116.578 99.3693 117.005 99.3693C117.556 99.3693 118.042 99.5071 118.462 99.7827C118.882 100.058 119.211 100.449 119.446 100.955C119.682 101.46 119.8 102.057 119.8 102.744C119.8 103.438 119.682 104.038 119.446 104.547C119.211 105.053 118.884 105.445 118.466 105.723C118.049 105.999 117.567 106.136 117.022 106.136C116.601 106.136 116.265 106.067 116.012 105.928C115.759 105.786 115.564 105.625 115.428 105.446C115.292 105.264 115.186 105.114 115.113 104.994H114.993V106H114.022ZM115.01 102.727C115.01 103.222 115.083 103.658 115.228 104.036C115.373 104.411 115.584 104.705 115.863 104.918C116.141 105.128 116.482 105.233 116.885 105.233C117.306 105.233 117.657 105.122 117.938 104.901C118.222 104.676 118.435 104.375 118.577 103.997C118.722 103.616 118.794 103.193 118.794 102.727C118.794 102.267 118.723 101.852 118.581 101.483C118.442 101.111 118.23 100.817 117.946 100.601C117.665 100.382 117.311 100.273 116.885 100.273C116.476 100.273 116.132 100.376 115.854 100.584C115.576 100.788 115.365 101.075 115.223 101.445C115.081 101.811 115.01 102.239 115.01 102.727ZM121.338 106V99.4545H122.344V106H121.338ZM121.85 98.3636C121.654 98.3636 121.485 98.2969 121.343 98.1634C121.203 98.0298 121.134 97.8693 121.134 97.6818C121.134 97.4943 121.203 97.3338 121.343 97.2003C121.485 97.0668 121.654 97 121.85 97C122.046 97 122.213 97.0668 122.353 97.2003C122.495 97.3338 122.566 97.4943 122.566 97.6818C122.566 97.8693 122.495 98.0298 122.353 98.1634C122.213 98.2969 122.046 98.3636 121.85 98.3636ZM125.192 97.2727V106H124.186V97.2727H125.192ZM127.034 106V99.4545H128.039V106H127.034ZM127.545 98.3636C127.349 98.3636 127.18 98.2969 127.038 98.1634C126.899 98.0298 126.829 97.8693 126.829 97.6818C126.829 97.4943 126.899 97.3338 127.038 97.2003C127.18 97.0668 127.349 97 127.545 97C127.741 97 127.909 97.0668 128.048 97.2003C128.19 97.3338 128.261 97.4943 128.261 97.6818C128.261 97.8693 128.19 98.0298 128.048 98.1634C127.909 98.2969 127.741 98.3636 127.545 98.3636ZM132.728 99.4545V100.307H129.336V99.4545H132.728ZM130.325 97.8864H131.33V104.125C131.33 104.409 131.371 104.622 131.454 104.764C131.539 104.903 131.647 104.997 131.778 105.045C131.911 105.091 132.052 105.114 132.2 105.114C132.31 105.114 132.401 105.108 132.472 105.097C132.543 105.082 132.6 105.071 132.643 105.062L132.847 105.966C132.779 105.991 132.684 106.017 132.562 106.043C132.44 106.071 132.285 106.085 132.097 106.085C131.813 106.085 131.535 106.024 131.262 105.902C130.992 105.78 130.768 105.594 130.589 105.344C130.413 105.094 130.325 104.778 130.325 104.398V97.8864ZM134.888 108.455C134.718 108.455 134.566 108.44 134.433 108.412C134.299 108.386 134.207 108.361 134.156 108.335L134.411 107.449C134.656 107.511 134.871 107.534 135.059 107.517C135.246 107.5 135.413 107.416 135.558 107.266C135.705 107.118 135.84 106.878 135.962 106.545L136.15 106.034L133.729 99.4545H134.82L136.627 104.67H136.695L138.502 99.4545H139.593L136.815 106.955C136.69 107.293 136.535 107.572 136.35 107.794C136.165 108.018 135.951 108.185 135.707 108.293C135.465 108.401 135.192 108.455 134.888 108.455ZM148.932 100.92L148.028 101.176C147.972 101.026 147.888 100.879 147.777 100.737C147.669 100.592 147.521 100.473 147.334 100.379C147.146 100.286 146.906 100.239 146.614 100.239C146.213 100.239 145.879 100.331 145.612 100.516C145.348 100.697 145.216 100.929 145.216 101.21C145.216 101.46 145.307 101.658 145.489 101.803C145.67 101.947 145.955 102.068 146.341 102.165L147.312 102.403C147.898 102.545 148.334 102.763 148.621 103.055C148.908 103.345 149.051 103.719 149.051 104.176C149.051 104.551 148.943 104.886 148.727 105.182C148.514 105.477 148.216 105.71 147.832 105.881C147.449 106.051 147.003 106.136 146.494 106.136C145.827 106.136 145.274 105.991 144.837 105.702C144.399 105.412 144.122 104.989 144.006 104.432L144.96 104.193C145.051 104.545 145.223 104.81 145.476 104.986C145.732 105.162 146.065 105.25 146.477 105.25C146.946 105.25 147.318 105.151 147.594 104.952C147.872 104.75 148.011 104.509 148.011 104.227C148.011 104 147.932 103.81 147.773 103.656C147.614 103.5 147.369 103.384 147.04 103.307L145.949 103.051C145.349 102.909 144.909 102.689 144.628 102.391C144.349 102.089 144.21 101.713 144.21 101.261C144.21 100.892 144.314 100.565 144.521 100.281C144.732 99.9972 145.017 99.7741 145.378 99.6122C145.741 99.4503 146.153 99.3693 146.614 99.3693C147.261 99.3693 147.77 99.5114 148.139 99.7955C148.511 100.08 148.776 100.455 148.932 100.92ZM150.565 106V99.4545H151.571V106H150.565ZM151.076 98.3636C150.88 98.3636 150.711 98.2969 150.569 98.1634C150.43 98.0298 150.36 97.8693 150.36 97.6818C150.36 97.4943 150.43 97.3338 150.569 97.2003C150.711 97.0668 150.88 97 151.076 97C151.272 97 151.44 97.0668 151.579 97.2003C151.721 97.3338 151.792 97.4943 151.792 97.6818C151.792 97.8693 151.721 98.0298 151.579 98.1634C151.44 98.2969 151.272 98.3636 151.076 98.3636ZM154.418 102.062V106H153.413V99.4545H154.384V100.477H154.469C154.623 100.145 154.856 99.8778 155.168 99.6761C155.481 99.4716 155.884 99.3693 156.379 99.3693C156.822 99.3693 157.21 99.4602 157.542 99.642C157.874 99.821 158.133 100.094 158.317 100.46C158.502 100.824 158.594 101.284 158.594 101.841V106H157.589V101.909C157.589 101.395 157.455 100.994 157.188 100.707C156.921 100.418 156.555 100.273 156.089 100.273C155.768 100.273 155.481 100.342 155.228 100.482C154.978 100.621 154.781 100.824 154.636 101.091C154.491 101.358 154.418 101.682 154.418 102.062ZM163.091 106.136C162.478 106.136 161.949 105.991 161.506 105.702C161.063 105.412 160.722 105.013 160.483 104.504C160.245 103.996 160.125 103.415 160.125 102.761C160.125 102.097 160.248 101.51 160.492 101.001C160.739 100.49 161.083 100.091 161.523 99.804C161.966 99.5142 162.483 99.3693 163.074 99.3693C163.534 99.3693 163.949 99.4545 164.319 99.625C164.688 99.7955 164.99 100.034 165.226 100.341C165.462 100.648 165.608 101.006 165.665 101.415H164.659C164.583 101.116 164.412 100.852 164.148 100.622C163.887 100.389 163.534 100.273 163.091 100.273C162.699 100.273 162.355 100.375 162.06 100.58C161.767 100.781 161.539 101.067 161.374 101.436C161.212 101.803 161.131 102.233 161.131 102.727C161.131 103.233 161.211 103.673 161.37 104.048C161.532 104.423 161.759 104.714 162.051 104.922C162.347 105.129 162.694 105.233 163.091 105.233C163.353 105.233 163.59 105.188 163.803 105.097C164.016 105.006 164.196 104.875 164.344 104.705C164.492 104.534 164.597 104.33 164.659 104.091H165.665C165.608 104.477 165.468 104.825 165.243 105.135C165.022 105.442 164.728 105.686 164.361 105.868C163.998 106.047 163.574 106.136 163.091 106.136ZM169.88 106.136C169.249 106.136 168.705 105.997 168.248 105.719C167.793 105.438 167.442 105.045 167.195 104.543C166.951 104.037 166.828 103.449 166.828 102.778C166.828 102.108 166.951 101.517 167.195 101.006C167.442 100.491 167.786 100.091 168.226 99.804C168.669 99.5142 169.186 99.3693 169.777 99.3693C170.118 99.3693 170.455 99.4261 170.787 99.5398C171.12 99.6534 171.422 99.8381 171.695 100.094C171.968 100.347 172.185 100.682 172.347 101.099C172.509 101.517 172.59 102.031 172.59 102.642V103.068H167.544V102.199H171.567C171.567 101.83 171.493 101.5 171.346 101.21C171.201 100.92 170.993 100.692 170.723 100.524C170.456 100.357 170.141 100.273 169.777 100.273C169.377 100.273 169.03 100.372 168.738 100.571C168.448 100.767 168.225 101.023 168.069 101.338C167.912 101.653 167.834 101.991 167.834 102.352V102.932C167.834 103.426 167.919 103.845 168.09 104.189C168.263 104.53 168.503 104.79 168.81 104.969C169.117 105.145 169.473 105.233 169.88 105.233C170.144 105.233 170.382 105.196 170.596 105.122C170.811 105.045 170.998 104.932 171.154 104.781C171.31 104.628 171.431 104.437 171.516 104.21L172.488 104.483C172.385 104.812 172.213 105.102 171.972 105.352C171.73 105.599 171.432 105.793 171.077 105.932C170.722 106.068 170.323 106.136 169.88 106.136ZM174.853 106.068C174.642 106.068 174.462 105.993 174.311 105.842C174.161 105.692 174.086 105.511 174.086 105.301C174.086 105.091 174.161 104.911 174.311 104.76C174.462 104.609 174.642 104.534 174.853 104.534C175.063 104.534 175.243 104.609 175.394 104.76C175.544 104.911 175.62 105.091 175.62 105.301C175.62 105.44 175.584 105.568 175.513 105.685C175.445 105.801 175.353 105.895 175.236 105.966C175.123 106.034 174.995 106.068 174.853 106.068ZM174.853 101.21C174.642 101.21 174.462 101.135 174.311 100.984C174.161 100.834 174.086 100.653 174.086 100.443C174.086 100.233 174.161 100.053 174.311 99.902C174.462 99.7514 174.642 99.6761 174.853 99.6761C175.063 99.6761 175.243 99.7514 175.394 99.902C175.544 100.053 175.62 100.233 175.62 100.443C175.62 100.582 175.584 100.71 175.513 100.827C175.445 100.943 175.353 101.037 175.236 101.108C175.123 101.176 174.995 101.21 174.853 101.21Z" fill="#888888"/>
<path d="M188.972 97.2727V106H187.915V98.3807H187.864L185.733 99.7955V98.7216L187.915 97.2727H188.972ZM194.209 106.119C193.709 106.119 193.259 106.02 192.858 105.821C192.457 105.622 192.136 105.349 191.895 105.003C191.653 104.656 191.521 104.261 191.499 103.818H192.521C192.561 104.213 192.74 104.54 193.058 104.798C193.379 105.054 193.763 105.182 194.209 105.182C194.567 105.182 194.885 105.098 195.163 104.93C195.445 104.763 195.665 104.533 195.824 104.24C195.986 103.945 196.067 103.611 196.067 103.239C196.067 102.858 195.983 102.518 195.815 102.22C195.651 101.919 195.423 101.682 195.134 101.509C194.844 101.335 194.513 101.247 194.141 101.244C193.874 101.241 193.599 101.283 193.318 101.368C193.037 101.45 192.805 101.557 192.624 101.688L191.635 101.568L192.163 97.2727H196.697V98.2102H193.05L192.743 100.784H192.794C192.973 100.642 193.197 100.524 193.467 100.43C193.737 100.337 194.018 100.29 194.311 100.29C194.845 100.29 195.321 100.418 195.739 100.673C196.159 100.926 196.489 101.273 196.727 101.713C196.969 102.153 197.089 102.656 197.089 103.222C197.089 103.778 196.964 104.276 196.714 104.713C196.467 105.148 196.126 105.491 195.692 105.744C195.257 105.994 194.763 106.119 194.209 106.119ZM202.311 106V97.2727H207.544V98.2102H203.368V101.159H207.152V102.097H203.368V106H202.311ZM211.481 106.136C210.85 106.136 210.306 105.997 209.849 105.719C209.395 105.438 209.044 105.045 208.797 104.543C208.552 104.037 208.43 103.449 208.43 102.778C208.43 102.108 208.552 101.517 208.797 101.006C209.044 100.491 209.387 100.091 209.828 99.804C210.271 99.5142 210.788 99.3693 211.379 99.3693C211.72 99.3693 212.056 99.4261 212.389 99.5398C212.721 99.6534 213.024 99.8381 213.297 100.094C213.569 100.347 213.787 100.682 213.949 101.099C214.11 101.517 214.191 102.031 214.191 102.642V103.068H209.146V102.199H213.169C213.169 101.83 213.095 101.5 212.947 101.21C212.802 100.92 212.595 100.692 212.325 100.524C212.058 100.357 211.743 100.273 211.379 100.273C210.978 100.273 210.632 100.372 210.339 100.571C210.049 100.767 209.826 101.023 209.67 101.338C209.514 101.653 209.436 101.991 209.436 102.352V102.932C209.436 103.426 209.521 103.845 209.691 104.189C209.865 104.53 210.105 104.79 210.412 104.969C210.718 105.145 211.075 105.233 211.481 105.233C211.745 105.233 211.984 105.196 212.197 105.122C212.413 105.045 212.599 104.932 212.755 104.781C212.912 104.628 213.032 104.437 213.118 104.21L214.089 104.483C213.987 104.812 213.815 105.102 213.574 105.352C213.332 105.599 213.034 105.793 212.679 105.932C212.324 106.068 211.924 106.136 211.481 106.136ZM215.858 106V97.2727H216.863V100.494H216.949C217.022 100.381 217.125 100.236 217.255 100.06C217.389 99.8807 217.579 99.7216 217.826 99.5824C218.076 99.4403 218.414 99.3693 218.841 99.3693C219.392 99.3693 219.877 99.5071 220.298 99.7827C220.718 100.058 221.047 100.449 221.282 100.955C221.518 101.46 221.636 102.057 221.636 102.744C221.636 103.438 221.518 104.038 221.282 104.547C221.047 105.053 220.72 105.445 220.302 105.723C219.885 105.999 219.403 106.136 218.858 106.136C218.437 106.136 218.1 106.067 217.848 105.928C217.595 105.786 217.4 105.625 217.264 105.446C217.127 105.264 217.022 105.114 216.949 104.994H216.829V106H215.858ZM216.846 102.727C216.846 103.222 216.919 103.658 217.064 104.036C217.208 104.411 217.42 104.705 217.699 104.918C217.977 105.128 218.318 105.233 218.721 105.233C219.142 105.233 219.493 105.122 219.774 104.901C220.058 104.676 220.271 104.375 220.413 103.997C220.558 103.616 220.63 103.193 220.63 102.727C220.63 102.267 220.559 101.852 220.417 101.483C220.278 101.111 220.066 100.817 219.782 100.601C219.501 100.382 219.147 100.273 218.721 100.273C218.312 100.273 217.968 100.376 217.69 100.584C217.412 100.788 217.201 101.075 217.059 101.445C216.917 101.811 216.846 102.239 216.846 102.727ZM224.674 104.807L224.606 105.267C224.558 105.591 224.484 105.938 224.385 106.307C224.288 106.676 224.187 107.024 224.082 107.351C223.977 107.678 223.89 107.938 223.822 108.131H223.055C223.092 107.949 223.14 107.709 223.2 107.411C223.26 107.112 223.319 106.778 223.379 106.409C223.441 106.043 223.493 105.668 223.532 105.284L223.583 104.807H224.674ZM232.964 97.2727V106H231.907V98.3807H231.856L229.725 99.7955V98.7216L231.907 97.2727H232.964ZM238.201 106.119C237.701 106.119 237.251 106.02 236.85 105.821C236.45 105.622 236.129 105.349 235.887 105.003C235.646 104.656 235.513 104.261 235.491 103.818H236.513C236.553 104.213 236.732 104.54 237.05 104.798C237.371 105.054 237.755 105.182 238.201 105.182C238.559 105.182 238.877 105.098 239.156 104.93C239.437 104.763 239.657 104.533 239.816 104.24C239.978 103.945 240.059 103.611 240.059 103.239C240.059 102.858 239.975 102.518 239.808 102.22C239.643 101.919 239.415 101.682 239.126 101.509C238.836 101.335 238.505 101.247 238.133 101.244C237.866 101.241 237.592 101.283 237.31 101.368C237.029 101.45 236.798 101.557 236.616 101.688L235.627 101.568L236.156 97.2727H240.69V98.2102H237.042L236.735 100.784H236.786C236.965 100.642 237.19 100.524 237.46 100.43C237.729 100.337 238.011 100.29 238.303 100.29C238.837 100.29 239.313 100.418 239.731 100.673C240.151 100.926 240.481 101.273 240.719 101.713C240.961 102.153 241.082 102.656 241.082 103.222C241.082 103.778 240.957 104.276 240.707 104.713C240.46 105.148 240.119 105.491 239.684 105.744C239.249 105.994 238.755 106.119 238.201 106.119ZM243.525 104.884C243.314 104.884 243.134 104.808 242.983 104.658C242.833 104.507 242.757 104.327 242.757 104.116C242.757 103.906 242.833 103.726 242.983 103.575C243.134 103.425 243.314 103.349 243.525 103.349C243.735 103.349 243.915 103.425 244.066 103.575C244.216 103.726 244.292 103.906 244.292 104.116C244.292 104.256 244.256 104.384 244.185 104.5C244.117 104.616 244.025 104.71 243.908 104.781C243.794 104.849 243.667 104.884 243.525 104.884ZM243.525 100.469C243.314 100.469 243.134 100.393 242.983 100.243C242.833 100.092 242.757 99.9119 242.757 99.7017C242.757 99.4915 242.833 99.3111 242.983 99.1605C243.134 99.0099 243.314 98.9347 243.525 98.9347C243.735 98.9347 243.915 99.0099 244.066 99.1605C244.216 99.3111 244.292 99.4915 244.292 99.7017C244.292 99.8409 244.256 99.9688 244.185 100.085C244.117 100.202 244.025 100.295 243.908 100.366C243.794 100.435 243.667 100.469 243.525 100.469ZM245.875 104.21V103.341L249.71 97.2727H250.341V98.6193H249.914L247.017 103.205V103.273H252.181V104.21H245.875ZM249.983 106V103.946V103.541V97.2727H250.988V106H249.983ZM253.574 104.21V103.341L257.409 97.2727H258.04V98.6193H257.614L254.716 103.205V103.273H259.881V104.21H253.574ZM257.682 106V103.946V103.541V97.2727H258.688V106H257.682Z" fill="#888888"/>
</g>
<defs>
<filter id="filter0_ddd_3864_9926" x="0" y="0" width="305" height="136" filterUnits="userSpaceOnUse" color-interpolation-filters="sRGB">
<feFlood flood-opacity="0" result="BackgroundImageFix"/>
<feColorMatrix in="SourceAlpha" type="matrix" values="0 0 0 0 0 0 0 0 0 0 0 0 0 0 0 0 0 0 127 0" result="hardAlpha"/>
<feOffset dy="2"/>
<feGaussianBlur stdDeviation="4"/>
<feComposite in2="hardAlpha" operator="out"/>
<feColorMatrix type="matrix" values="0 0 0 0 0 0 0 0 0 0 0 0 0 0 0 0 0 0 0.03 0"/>
<feBlend mode="normal" in2="BackgroundImageFix" result="effect1_dropShadow_3864_9926"/>
<feColorMatrix in="SourceAlpha" type="matrix" values="0 0 0 0 0 0 0 0 0 0 0 0 0 0 0 0 0 0 127 0" result="hardAlpha"/>
<feOffset dy="1"/>
<feGaussianBlur stdDeviation="1"/>
<feComposite in2="hardAlpha" operator="out"/>
<feColorMatrix type="matrix" values="0 0 0 0 0 0 0 0 0 0 0 0 0 0 0 0 0 0 0.06 0"/>
<feBlend mode="normal" in2="effect1_dropShadow_3864_9926" result="effect2_dropShadow_3864_9926"/>
<feColorMatrix in="SourceAlpha" type="matrix" values="0 0 0 0 0 0 0 0 0 0 0 0 0 0 0 0 0 0 127 0" result="hardAlpha"/>
<feOffset dy="4"/>
<feGaussianBlur stdDeviation="3"/>
<feComposite in2="hardAlpha" operator="out"/>
<feColorMatrix type="matrix" values="0 0 0 0 0 0 0 0 0 0 0 0 0 0 0 0 0 0 0.02 0"/>
<feBlend mode="normal" in2="effect2_dropShadow_3864_9926" result="effect3_dropShadow_3864_9926"/>
<feBlend mode="normal" in="SourceGraphic" in2="effect3_dropShadow_3864_9926" result="shape"/>
</filter>
</defs>
</svg>
