<svg width="305" height="136" viewBox="0 0 305 136" fill="none" xmlns="http://www.w3.org/2000/svg">
<g filter="url(#filter0_ddd_3864_9925)">
<path d="M8 16C8 10.4772 12.4772 6 18 6H287C292.523 6 297 10.4772 297 16V116C297 121.523 292.523 126 287 126H18C12.4771 126 8 121.523 8 116V16Z" fill="#FDFDFD" shape-rendering="crispEdges"/>
<path d="M42.7102 30.3636V42H40.8352L35.3523 34.0739H35.2557V42H33.1477V30.3636H35.0341L40.5114 38.2955H40.6136V30.3636H42.7102ZM48.723 42.1705C47.8707 42.1705 47.1321 41.983 46.5071 41.608C45.8821 41.233 45.3973 40.7083 45.0526 40.0341C44.7116 39.3598 44.5412 38.572 44.5412 37.6705C44.5412 36.7689 44.7116 35.9792 45.0526 35.3011C45.3973 34.6231 45.8821 34.0966 46.5071 33.7216C47.1321 33.3466 47.8707 33.1591 48.723 33.1591C49.5753 33.1591 50.3139 33.3466 50.9389 33.7216C51.5639 34.0966 52.0469 34.6231 52.3878 35.3011C52.7325 35.9792 52.9048 36.7689 52.9048 37.6705C52.9048 38.572 52.7325 39.3598 52.3878 40.0341C52.0469 40.7083 51.5639 41.233 50.9389 41.608C50.3139 41.983 49.5753 42.1705 48.723 42.1705ZM48.7344 40.5227C49.1965 40.5227 49.5829 40.3958 49.8935 40.142C50.2041 39.8845 50.4351 39.5398 50.5866 39.108C50.742 38.6761 50.8196 38.1951 50.8196 37.6648C50.8196 37.1307 50.742 36.6477 50.5866 36.2159C50.4351 35.7803 50.2041 35.4337 49.8935 35.1761C49.5829 34.9186 49.1965 34.7898 48.7344 34.7898C48.2609 34.7898 47.867 34.9186 47.5526 35.1761C47.242 35.4337 47.009 35.7803 46.8537 36.2159C46.7022 36.6477 46.6264 37.1307 46.6264 37.6648C46.6264 38.1951 46.7022 38.6761 46.8537 39.108C47.009 39.5398 47.242 39.8845 47.5526 40.142C47.867 40.3958 48.2609 40.5227 48.7344 40.5227ZM54.6506 42V33.2727H56.6449V34.7273H56.7358C56.8949 34.2235 57.1676 33.8352 57.554 33.5625C57.9441 33.286 58.3892 33.1477 58.8892 33.1477C59.0028 33.1477 59.1297 33.1534 59.2699 33.1648C59.4138 33.1723 59.5331 33.1856 59.6278 33.2045V35.0966C59.5407 35.0663 59.4025 35.0398 59.2131 35.017C59.0275 34.9905 58.8475 34.9773 58.6733 34.9773C58.2983 34.9773 57.9612 35.0587 57.6619 35.2216C57.3665 35.3807 57.1335 35.6023 56.9631 35.8864C56.7926 36.1705 56.7074 36.4981 56.7074 36.8693V42H54.6506ZM65.821 33.2727V34.8636H60.804V33.2727H65.821ZM62.0426 31.1818H64.0994V39.375C64.0994 39.6515 64.1411 39.8636 64.2244 40.0114C64.3116 40.1553 64.4252 40.2538 64.5653 40.3068C64.7055 40.3598 64.8608 40.3864 65.0312 40.3864C65.16 40.3864 65.2775 40.3769 65.3835 40.358C65.4934 40.339 65.5767 40.322 65.6335 40.3068L65.9801 41.9148C65.8703 41.9527 65.7131 41.9943 65.5085 42.0398C65.3078 42.0852 65.0616 42.1117 64.7699 42.1193C64.2547 42.1345 63.7907 42.0568 63.3778 41.8864C62.965 41.7121 62.6373 41.4432 62.3949 41.0795C62.1563 40.7159 62.0388 40.2614 62.0426 39.7159V31.1818ZM69.7855 36.8864V42H67.7287V30.3636H69.7401V34.7557H69.8423C70.0469 34.2633 70.3632 33.875 70.7912 33.5909C71.223 33.303 71.7723 33.1591 72.4389 33.1591C73.045 33.1591 73.5734 33.286 74.0241 33.5398C74.4749 33.7936 74.8234 34.1648 75.0696 34.6534C75.3196 35.142 75.4446 35.7386 75.4446 36.4432V42H73.3878V36.7614C73.3878 36.1742 73.2363 35.7178 72.9332 35.392C72.634 35.0625 72.2135 34.8977 71.6719 34.8977C71.3082 34.8977 70.9825 34.9773 70.6946 35.1364C70.4105 35.2917 70.187 35.517 70.0241 35.8125C69.8651 36.108 69.7855 36.4659 69.7855 36.8864ZM79.3423 42L76.8764 33.2727H78.973L80.5071 39.4091H80.5866L82.1548 33.2727H84.2287L85.7969 39.375H85.8821L87.3935 33.2727H89.4957L87.0241 42H84.8821L83.2457 36.1023H83.1264L81.4901 42H79.3423ZM94.5455 42.1705C93.6705 42.1705 92.9148 41.9886 92.2784 41.625C91.6458 41.2576 91.1591 40.7386 90.8182 40.0682C90.4773 39.3939 90.3068 38.6004 90.3068 37.6875C90.3068 36.7898 90.4773 36.0019 90.8182 35.3239C91.1629 34.642 91.6439 34.1117 92.2614 33.733C92.8788 33.3504 93.6042 33.1591 94.4375 33.1591C94.9754 33.1591 95.483 33.2462 95.9602 33.4205C96.4413 33.5909 96.8655 33.8561 97.233 34.2159C97.6042 34.5758 97.8958 35.0341 98.108 35.5909C98.3201 36.1439 98.4261 36.803 98.4261 37.5682V38.1989H91.2727V36.8125H96.4545C96.4508 36.4186 96.3655 36.0682 96.1989 35.7614C96.0322 35.4508 95.7992 35.2064 95.5 35.0284C95.2045 34.8504 94.8598 34.7614 94.4659 34.7614C94.0455 34.7614 93.6761 34.8636 93.358 35.0682C93.0398 35.2689 92.7917 35.5341 92.6136 35.8636C92.4394 36.1894 92.3504 36.5473 92.3466 36.9375V38.1477C92.3466 38.6553 92.4394 39.0909 92.625 39.4545C92.8106 39.8144 93.0701 40.0909 93.4034 40.2841C93.7367 40.4735 94.1269 40.5682 94.5739 40.5682C94.8731 40.5682 95.1439 40.5265 95.3864 40.4432C95.6288 40.3561 95.839 40.2292 96.017 40.0625C96.1951 39.8958 96.3295 39.6894 96.4205 39.4432L98.3409 39.6591C98.2197 40.1667 97.9886 40.6098 97.6477 40.9886C97.3106 41.3636 96.8788 41.6553 96.3523 41.8636C95.8258 42.0682 95.2235 42.1705 94.5455 42.1705ZM107.064 35.5795L105.189 35.7841C105.136 35.5947 105.043 35.4167 104.911 35.25C104.782 35.0833 104.607 34.9489 104.388 34.8466C104.168 34.7443 103.899 34.6932 103.581 34.6932C103.153 34.6932 102.793 34.786 102.501 34.9716C102.214 35.1572 102.071 35.3977 102.075 35.6932C102.071 35.947 102.164 36.1534 102.354 36.3125C102.547 36.4716 102.865 36.6023 103.308 36.7045L104.797 37.0227C105.623 37.2008 106.236 37.483 106.638 37.8693C107.043 38.2557 107.248 38.7614 107.251 39.3864C107.248 39.9356 107.087 40.4205 106.768 40.8409C106.454 41.2576 106.017 41.5833 105.456 41.8182C104.895 42.053 104.251 42.1705 103.524 42.1705C102.456 42.1705 101.596 41.947 100.945 41.5C100.293 41.0492 99.9048 40.4223 99.7798 39.6193L101.786 39.4261C101.876 39.8201 102.07 40.1174 102.365 40.3182C102.661 40.5189 103.045 40.6193 103.518 40.6193C104.007 40.6193 104.399 40.5189 104.695 40.3182C104.994 40.1174 105.143 39.8693 105.143 39.5739C105.143 39.3239 105.047 39.1174 104.854 38.9545C104.664 38.7917 104.369 38.6667 103.967 38.5795L102.479 38.267C101.642 38.0928 101.022 37.7992 100.621 37.3864C100.219 36.9697 100.02 36.4432 100.024 35.8068C100.02 35.2689 100.166 34.803 100.462 34.4091C100.761 34.0114 101.176 33.7045 101.706 33.4886C102.24 33.2689 102.856 33.1591 103.553 33.1591C104.575 33.1591 105.38 33.3769 105.967 33.8125C106.558 34.2481 106.924 34.8371 107.064 35.5795ZM113.305 33.2727V34.8636H108.288V33.2727H113.305ZM109.527 31.1818H111.584V39.375C111.584 39.6515 111.625 39.8636 111.709 40.0114C111.796 40.1553 111.91 40.2538 112.05 40.3068C112.19 40.3598 112.345 40.3864 112.516 40.3864C112.644 40.3864 112.762 40.3769 112.868 40.358C112.978 40.339 113.061 40.322 113.118 40.3068L113.464 41.9148C113.355 41.9527 113.197 41.9943 112.993 42.0398C112.792 42.0852 112.546 42.1117 112.254 42.1193C111.739 42.1345 111.275 42.0568 110.862 41.8864C110.449 41.7121 110.122 41.4432 109.879 41.0795C109.641 40.7159 109.523 40.2614 109.527 39.7159V31.1818ZM119.085 42V30.3636H121.193V40.233H126.318V42H119.085ZM128.057 42V33.2727H130.114V42H128.057ZM129.091 32.0341C128.765 32.0341 128.485 31.9261 128.25 31.7102C128.015 31.4905 127.898 31.2273 127.898 30.9205C127.898 30.6098 128.015 30.3466 128.25 30.1307C128.485 29.911 128.765 29.8011 129.091 29.8011C129.42 29.8011 129.701 29.911 129.932 30.1307C130.167 30.3466 130.284 30.6098 130.284 30.9205C130.284 31.2273 130.167 31.4905 129.932 31.7102C129.701 31.9261 129.42 32.0341 129.091 32.0341ZM134.286 36.8864V42H132.229V33.2727H134.195V34.7557H134.297C134.498 34.267 134.818 33.8788 135.257 33.5909C135.7 33.303 136.248 33.1591 136.899 33.1591C137.501 33.1591 138.026 33.2879 138.473 33.5455C138.924 33.803 139.272 34.1761 139.518 34.6648C139.768 35.1534 139.892 35.7462 139.888 36.4432V42H137.831V36.7614C137.831 36.178 137.679 35.7216 137.376 35.392C137.077 35.0625 136.662 34.8977 136.132 34.8977C135.772 34.8977 135.452 34.9773 135.172 35.1364C134.895 35.2917 134.678 35.517 134.518 35.8125C134.363 36.108 134.286 36.4659 134.286 36.8864ZM144.49 42.1761C143.937 42.1761 143.439 42.0777 142.996 41.8807C142.556 41.6799 142.208 41.3845 141.95 40.9943C141.696 40.6042 141.57 40.1231 141.57 39.5511C141.57 39.0587 141.661 38.6515 141.842 38.3295C142.024 38.0076 142.272 37.75 142.587 37.5568C142.901 37.3636 143.255 37.2178 143.649 37.1193C144.047 37.017 144.458 36.9432 144.882 36.8977C145.393 36.8447 145.808 36.7973 146.126 36.7557C146.445 36.7102 146.676 36.642 146.82 36.5511C146.967 36.4564 147.041 36.3106 147.041 36.1136V36.0795C147.041 35.6515 146.914 35.3201 146.661 35.0852C146.407 34.8504 146.041 34.733 145.564 34.733C145.06 34.733 144.661 34.8428 144.365 35.0625C144.073 35.2822 143.876 35.5417 143.774 35.8409L141.854 35.5682C142.005 35.0379 142.255 34.5947 142.604 34.2386C142.952 33.8788 143.378 33.6098 143.882 33.4318C144.386 33.25 144.943 33.1591 145.553 33.1591C145.973 33.1591 146.392 33.2083 146.808 33.3068C147.225 33.4053 147.606 33.5682 147.95 33.7955C148.295 34.0189 148.571 34.3239 148.78 34.7102C148.992 35.0966 149.098 35.5795 149.098 36.1591V42H147.121V40.8011H147.053C146.928 41.0436 146.751 41.2708 146.524 41.483C146.301 41.6913 146.018 41.8598 145.678 41.9886C145.34 42.1136 144.945 42.1761 144.49 42.1761ZM145.024 40.6648C145.437 40.6648 145.795 40.5833 146.098 40.4205C146.401 40.2538 146.634 40.0341 146.797 39.7614C146.964 39.4886 147.047 39.1913 147.047 38.8693V37.8409C146.982 37.8939 146.873 37.9432 146.717 37.9886C146.566 38.0341 146.395 38.0739 146.206 38.108C146.017 38.142 145.829 38.1723 145.643 38.1989C145.458 38.2254 145.297 38.2481 145.161 38.267C144.854 38.3087 144.579 38.3769 144.337 38.4716C144.094 38.5663 143.903 38.6989 143.763 38.8693C143.623 39.036 143.553 39.2519 143.553 39.517C143.553 39.8958 143.691 40.1818 143.967 40.375C144.244 40.5682 144.596 40.6648 145.024 40.6648ZM154.973 42.1705C154.102 42.1705 153.354 41.9792 152.729 41.5966C152.107 41.214 151.628 40.6856 151.291 40.0114C150.958 39.3333 150.791 38.553 150.791 37.6705C150.791 36.7841 150.962 36.0019 151.303 35.3239C151.643 34.642 152.125 34.1117 152.746 33.733C153.371 33.3504 154.109 33.1591 154.962 33.1591C155.67 33.1591 156.297 33.2898 156.842 33.5511C157.392 33.8087 157.829 34.1742 158.155 34.6477C158.481 35.1174 158.666 35.6667 158.712 36.2955H156.746C156.666 35.875 156.477 35.5246 156.178 35.2443C155.882 34.9602 155.486 34.8182 154.99 34.8182C154.57 34.8182 154.2 34.9318 153.882 35.1591C153.564 35.3826 153.316 35.7045 153.138 36.125C152.964 36.5455 152.876 37.0492 152.876 37.6364C152.876 38.2311 152.964 38.7424 153.138 39.1705C153.312 39.5947 153.556 39.9223 153.871 40.1534C154.189 40.3807 154.562 40.4943 154.99 40.4943C155.293 40.4943 155.564 40.4375 155.803 40.3239C156.045 40.2064 156.248 40.0379 156.411 39.8182C156.573 39.5985 156.685 39.3314 156.746 39.017H158.712C158.662 39.6345 158.481 40.1818 158.166 40.6591C157.852 41.1326 157.424 41.5038 156.882 41.7727C156.34 42.0379 155.704 42.1705 154.973 42.1705ZM168.523 42.1591C167.705 42.1591 166.977 42.0189 166.341 41.7386C165.708 41.4583 165.208 41.0682 164.841 40.5682C164.473 40.0682 164.278 39.4905 164.256 38.8352H166.392C166.411 39.1496 166.515 39.4242 166.705 39.6591C166.894 39.8902 167.146 40.0701 167.46 40.1989C167.775 40.3277 168.127 40.392 168.517 40.392C168.934 40.392 169.303 40.3201 169.625 40.1761C169.947 40.0284 170.199 39.8239 170.381 39.5625C170.563 39.3011 170.652 39 170.648 38.6591C170.652 38.3068 170.561 37.9962 170.375 37.7273C170.189 37.4583 169.92 37.2481 169.568 37.0966C169.22 36.9451 168.799 36.8693 168.307 36.8693H167.278V35.2443H168.307C168.712 35.2443 169.066 35.1742 169.369 35.0341C169.676 34.8939 169.917 34.697 170.091 34.4432C170.265 34.1856 170.35 33.8883 170.347 33.5511C170.35 33.2216 170.277 32.9356 170.125 32.6932C169.977 32.447 169.767 32.2557 169.494 32.1193C169.225 31.983 168.909 31.9148 168.545 31.9148C168.189 31.9148 167.86 31.9792 167.557 32.108C167.254 32.2367 167.009 32.4205 166.824 32.6591C166.638 32.8939 166.54 33.1742 166.528 33.5H164.5C164.515 32.8485 164.703 32.2765 165.062 31.7841C165.426 31.2879 165.911 30.9015 166.517 30.625C167.123 30.3447 167.803 30.2045 168.557 30.2045C169.333 30.2045 170.008 30.3504 170.58 30.642C171.155 30.9299 171.6 31.3182 171.915 31.8068C172.229 32.2955 172.386 32.8352 172.386 33.4261C172.39 34.0814 172.197 34.6307 171.807 35.0739C171.42 35.517 170.913 35.8068 170.284 35.9432V36.0341C171.102 36.1477 171.729 36.4508 172.165 36.9432C172.604 37.4318 172.822 38.0398 172.818 38.767C172.818 39.4186 172.633 40.0019 172.261 40.517C171.894 41.0284 171.386 41.4299 170.739 41.7216C170.095 42.0133 169.356 42.1591 168.523 42.1591Z" fill="#303236"/>
<rect x="185" y="22" width="88" height="28" rx="8" fill="#FAD282"/>
<path d="M198.44 40V31.2727H201.491C202.099 31.2727 202.6 31.3778 202.995 31.5881C203.39 31.7955 203.684 32.0753 203.877 32.4276C204.07 32.777 204.167 33.1648 204.167 33.5909C204.167 33.9659 204.1 34.2756 203.967 34.5199C203.836 34.7642 203.663 34.9574 203.447 35.0994C203.234 35.2415 203.002 35.3466 202.752 35.4148V35.5C203.019 35.517 203.288 35.6108 203.558 35.7812C203.827 35.9517 204.053 36.196 204.235 36.5142C204.417 36.8324 204.508 37.2216 204.508 37.6818C204.508 38.1193 204.408 38.5128 204.21 38.8622C204.011 39.2116 203.697 39.4886 203.268 39.6932C202.839 39.8977 202.281 40 201.593 40H198.44ZM199.496 39.0625H201.593C202.283 39.0625 202.773 38.929 203.063 38.6619C203.356 38.392 203.502 38.0653 203.502 37.6818C203.502 37.3864 203.427 37.1136 203.276 36.8636C203.126 36.6108 202.911 36.4091 202.633 36.2585C202.354 36.1051 202.025 36.0284 201.644 36.0284H199.496V39.0625ZM199.496 35.108H201.457C201.775 35.108 202.062 35.0455 202.317 34.9205C202.576 34.7955 202.781 34.6193 202.931 34.392C203.085 34.1648 203.161 33.8977 203.161 33.5909C203.161 33.2074 203.028 32.8821 202.761 32.6151C202.494 32.3452 202.07 32.2102 201.491 32.2102H199.496V35.108ZM206.108 40V33.4545H207.08V34.4432H207.148C207.267 34.1193 207.483 33.8565 207.795 33.6548C208.108 33.4531 208.46 33.3523 208.852 33.3523C208.926 33.3523 209.018 33.3537 209.129 33.3565C209.24 33.3594 209.324 33.3636 209.381 33.3693V34.392C209.347 34.3835 209.268 34.3707 209.146 34.3537C209.027 34.3338 208.901 34.3239 208.767 34.3239C208.449 34.3239 208.165 34.3906 207.915 34.5241C207.668 34.6548 207.472 34.8366 207.327 35.0696C207.185 35.2997 207.114 35.5625 207.114 35.858V40H206.108ZM213.118 40.1364C212.487 40.1364 211.943 39.9972 211.486 39.7188C211.031 39.4375 210.68 39.0455 210.433 38.5426C210.189 38.0369 210.067 37.4489 210.067 36.7784C210.067 36.108 210.189 35.517 210.433 35.0057C210.68 34.4915 211.024 34.0909 211.464 33.804C211.908 33.5142 212.425 33.3693 213.016 33.3693C213.357 33.3693 213.693 33.4261 214.026 33.5398C214.358 33.6534 214.661 33.8381 214.933 34.0938C215.206 34.3466 215.423 34.6818 215.585 35.0994C215.747 35.517 215.828 36.0312 215.828 36.642V37.0682H210.783V36.1989H214.805C214.805 35.8295 214.732 35.5 214.584 35.2102C214.439 34.9205 214.232 34.6918 213.962 34.5241C213.695 34.3565 213.379 34.2727 213.016 34.2727C212.615 34.2727 212.268 34.3722 211.976 34.571C211.686 34.767 211.463 35.0227 211.307 35.3381C211.151 35.6534 211.072 35.9915 211.072 36.3523V36.9318C211.072 37.4261 211.158 37.8452 211.328 38.1889C211.501 38.5298 211.741 38.7898 212.048 38.9688C212.355 39.1449 212.712 39.233 213.118 39.233C213.382 39.233 213.621 39.196 213.834 39.1222C214.05 39.0455 214.236 38.9318 214.392 38.7812C214.548 38.6278 214.669 38.4375 214.754 38.2102L215.726 38.483C215.624 38.8125 215.452 39.1023 215.21 39.3523C214.969 39.5994 214.67 39.7926 214.315 39.9318C213.96 40.0682 213.561 40.1364 213.118 40.1364ZM219.284 40.1534C218.869 40.1534 218.493 40.0753 218.155 39.919C217.817 39.7599 217.548 39.5312 217.349 39.233C217.151 38.9318 217.051 38.5682 217.051 38.142C217.051 37.767 217.125 37.4631 217.273 37.2301C217.42 36.9943 217.618 36.8097 217.865 36.6761C218.112 36.5426 218.385 36.4432 218.683 36.3778C218.984 36.3097 219.287 36.2557 219.591 36.2159C219.989 36.1648 220.311 36.1264 220.558 36.1009C220.808 36.0724 220.99 36.0256 221.104 35.9602C221.22 35.8949 221.278 35.7812 221.278 35.6193V35.5852C221.278 35.1648 221.163 34.8381 220.933 34.6051C220.706 34.3722 220.361 34.2557 219.898 34.2557C219.418 34.2557 219.041 34.3608 218.768 34.571C218.496 34.7812 218.304 35.0057 218.193 35.2443L217.239 34.9034C217.409 34.5057 217.636 34.196 217.92 33.9744C218.207 33.75 218.52 33.5937 218.858 33.5057C219.199 33.4148 219.534 33.3693 219.864 33.3693C220.074 33.3693 220.315 33.3949 220.588 33.446C220.864 33.4943 221.129 33.5952 221.385 33.7486C221.643 33.902 221.858 34.1335 222.028 34.4432C222.199 34.7528 222.284 35.1676 222.284 35.6875V40H221.278V39.1136H221.227C221.159 39.2557 221.045 39.4077 220.886 39.5696C220.727 39.7315 220.516 39.8693 220.251 39.983C219.987 40.0966 219.665 40.1534 219.284 40.1534ZM219.438 39.25C219.835 39.25 220.17 39.1719 220.443 39.0156C220.719 38.8594 220.926 38.6577 221.065 38.4105C221.207 38.1634 221.278 37.9034 221.278 37.6307V36.7102C221.236 36.7614 221.142 36.8082 220.997 36.8509C220.855 36.8906 220.69 36.9261 220.503 36.9574C220.318 36.9858 220.138 37.0114 219.962 37.0341C219.788 37.054 219.648 37.071 219.54 37.0852C219.278 37.1193 219.034 37.1747 218.807 37.2514C218.582 37.3253 218.401 37.4375 218.261 37.5881C218.125 37.7358 218.057 37.9375 218.057 38.1932C218.057 38.5426 218.186 38.8068 218.445 38.9858C218.706 39.1619 219.037 39.25 219.438 39.25ZM225.057 37.6136L225.04 36.3693H225.245L228.108 33.4545H229.353L226.301 36.5398H226.216L225.057 37.6136ZM224.12 40V31.2727H225.125V40H224.12ZM228.279 40L225.722 36.7614L226.438 36.0625L229.557 40H228.279ZM232.849 40.1364C232.304 40.1364 231.822 39.9986 231.404 39.723C230.987 39.4446 230.66 39.0526 230.424 38.5469C230.189 38.0384 230.071 37.4375 230.071 36.7443C230.071 36.0568 230.189 35.4602 230.424 34.9545C230.66 34.4489 230.988 34.0582 231.409 33.7827C231.829 33.5071 232.315 33.3693 232.866 33.3693C233.292 33.3693 233.629 33.4403 233.876 33.5824C234.126 33.7216 234.316 33.8807 234.447 34.0597C234.581 34.2358 234.684 34.3807 234.758 34.4943H234.843V31.2727H235.849V40H234.877V38.9943H234.758C234.684 39.1136 234.579 39.2642 234.443 39.446C234.306 39.625 234.112 39.7855 233.859 39.9276C233.606 40.0668 233.27 40.1364 232.849 40.1364ZM232.985 39.233C233.389 39.233 233.73 39.1278 234.008 38.9176C234.287 38.7045 234.498 38.4105 234.643 38.0355C234.788 37.6577 234.86 37.2216 234.86 36.7273C234.86 36.2386 234.789 35.8111 234.647 35.4446C234.505 35.0753 234.295 34.7884 234.017 34.5838C233.738 34.3764 233.395 34.2727 232.985 34.2727C232.559 34.2727 232.204 34.3821 231.92 34.6009C231.639 34.8168 231.427 35.1108 231.285 35.483C231.146 35.8523 231.076 36.267 231.076 36.7273C231.076 37.1932 231.147 37.6165 231.289 37.9972C231.434 38.375 231.647 38.6761 231.929 38.9006C232.213 39.1222 232.565 39.233 232.985 39.233ZM240.49 40.1364C239.899 40.1364 239.38 39.9957 238.934 39.7145C238.491 39.4332 238.145 39.0398 237.895 38.5341C237.647 38.0284 237.524 37.4375 237.524 36.7614C237.524 36.0795 237.647 35.4844 237.895 34.9759C238.145 34.4673 238.491 34.0724 238.934 33.7912C239.38 33.5099 239.899 33.3693 240.49 33.3693C241.081 33.3693 241.598 33.5099 242.041 33.7912C242.487 34.0724 242.833 34.4673 243.081 34.9759C243.331 35.4844 243.456 36.0795 243.456 36.7614C243.456 37.4375 243.331 38.0284 243.081 38.5341C242.833 39.0398 242.487 39.4332 242.041 39.7145C241.598 39.9957 241.081 40.1364 240.49 40.1364ZM240.49 39.233C240.939 39.233 241.308 39.1179 241.598 38.8878C241.887 38.6577 242.102 38.3551 242.241 37.9801C242.38 37.6051 242.45 37.1989 242.45 36.7614C242.45 36.3239 242.38 35.9162 242.241 35.5384C242.102 35.1605 241.887 34.8551 241.598 34.6222C241.308 34.3892 240.939 34.2727 240.49 34.2727C240.041 34.2727 239.672 34.3892 239.382 34.6222C239.092 34.8551 238.877 35.1605 238.738 35.5384C238.599 35.9162 238.529 36.3239 238.529 36.7614C238.529 37.1989 238.599 37.6051 238.738 37.9801C238.877 38.3551 239.092 38.6577 239.382 38.8878C239.672 39.1179 240.041 39.233 240.49 39.233ZM246.251 40L244.257 33.4545H245.314L246.728 38.4659H246.797L248.194 33.4545H249.268L250.649 38.4489H250.717L252.132 33.4545H253.189L251.194 40H250.206L248.774 34.9716H248.672L247.24 40H246.251ZM255.524 36.0625V40H254.518V33.4545H255.49V34.4773H255.575C255.728 34.1449 255.961 33.8778 256.274 33.6761C256.586 33.4716 256.99 33.3693 257.484 33.3693C257.927 33.3693 258.315 33.4602 258.647 33.642C258.98 33.821 259.238 34.0938 259.423 34.4602C259.608 34.8239 259.7 35.2841 259.7 35.8409V40H258.694V35.9091C258.694 35.3949 258.561 34.9943 258.294 34.7074C258.027 34.4176 257.66 34.2727 257.194 34.2727C256.873 34.2727 256.586 34.3423 256.333 34.4815C256.083 34.6207 255.886 34.8239 255.741 35.0909C255.596 35.358 255.524 35.6818 255.524 36.0625Z" fill="#907955"/>
<path d="M36.3977 77.2727H37.4545V83.5114C37.4545 84.0682 37.3523 84.5412 37.1477 84.9304C36.9432 85.3196 36.6548 85.6151 36.2827 85.8168C35.9105 86.0185 35.4716 86.1193 34.9659 86.1193C34.4886 86.1193 34.0639 86.0327 33.6918 85.8594C33.3196 85.6832 33.027 85.4332 32.8139 85.1094C32.6009 84.7855 32.4943 84.4006 32.4943 83.9545H33.5341C33.5341 84.2017 33.5952 84.4176 33.7173 84.6023C33.8423 84.7841 34.0128 84.9261 34.2287 85.0284C34.4446 85.1307 34.6903 85.1818 34.9659 85.1818C35.2699 85.1818 35.5284 85.1179 35.7415 84.9901C35.9545 84.8622 36.1165 84.6747 36.2273 84.4276C36.3409 84.1776 36.3977 83.8722 36.3977 83.5114V77.2727ZM39.4361 86V79.4545H40.4418V86H39.4361ZM39.9474 78.3636C39.7514 78.3636 39.5824 78.2969 39.4403 78.1634C39.3011 78.0298 39.2315 77.8693 39.2315 77.6818C39.2315 77.4943 39.3011 77.3338 39.4403 77.2003C39.5824 77.0668 39.7514 77 39.9474 77C40.1435 77 40.3111 77.0668 40.4503 77.2003C40.5923 77.3338 40.6634 77.4943 40.6634 77.6818C40.6634 77.8693 40.5923 78.0298 40.4503 78.1634C40.3111 78.2969 40.1435 78.3636 39.9474 78.3636ZM42.2837 86V79.4545H43.2553V80.4773H43.3406C43.4769 80.1278 43.6971 79.8565 44.0011 79.6634C44.305 79.4673 44.6701 79.3693 45.0962 79.3693C45.5281 79.3693 45.8874 79.4673 46.1744 79.6634C46.4641 79.8565 46.69 80.1278 46.8519 80.4773H46.9201C47.0877 80.1392 47.3391 79.8707 47.6744 79.6719C48.0096 79.4702 48.4116 79.3693 48.8803 79.3693C49.4656 79.3693 49.9442 79.5526 50.3164 79.919C50.6886 80.2827 50.8746 80.8494 50.8746 81.6193V86H49.869V81.6193C49.869 81.1364 49.7369 80.7912 49.4727 80.5838C49.2085 80.3764 48.8974 80.2727 48.5394 80.2727C48.0792 80.2727 47.7227 80.4119 47.4698 80.6903C47.217 80.9659 47.0906 81.3153 47.0906 81.7386V86H46.0678V81.517C46.0678 81.1449 45.9471 80.8452 45.7056 80.6179C45.4641 80.3878 45.1531 80.2727 44.7724 80.2727C44.511 80.2727 44.2667 80.3423 44.0394 80.4815C43.815 80.6207 43.6332 80.8139 43.494 81.0611C43.3576 81.3054 43.2894 81.5881 43.2894 81.9091V86H42.2837ZM60.9975 79.4545C60.9464 79.0227 60.739 78.6875 60.3754 78.4489C60.0117 78.2102 59.5657 78.0909 59.0373 78.0909C58.6509 78.0909 58.3129 78.1534 58.0231 78.2784C57.7362 78.4034 57.5117 78.5753 57.3498 78.794C57.1907 79.0128 57.1112 79.2614 57.1112 79.5398C57.1112 79.7727 57.1665 79.973 57.2773 80.1406C57.391 80.3054 57.5359 80.4432 57.712 80.554C57.8881 80.6619 58.0728 80.7514 58.266 80.8224C58.4592 80.8906 58.6367 80.946 58.7987 80.9886L59.685 81.2273C59.9123 81.2869 60.1651 81.3693 60.4435 81.4744C60.7248 81.5795 60.9933 81.723 61.2489 81.9048C61.5075 82.0838 61.7205 82.3139 61.8881 82.5952C62.0558 82.8764 62.1396 83.2216 62.1396 83.6307C62.1396 84.1023 62.016 84.5284 61.7688 84.9091C61.5245 85.2898 61.1665 85.5923 60.695 85.8168C60.2262 86.0412 59.6566 86.1534 58.9862 86.1534C58.3612 86.1534 57.82 86.0526 57.3626 85.8509C56.908 85.6491 56.5501 85.3679 56.2887 85.0071C56.0302 84.6463 55.8839 84.2273 55.8498 83.75H56.9407C56.9691 84.0795 57.0799 84.3523 57.2731 84.5682C57.4691 84.7812 57.7163 84.9403 58.0146 85.0455C58.3157 85.1477 58.6396 85.1989 58.9862 85.1989C59.3896 85.1989 59.7518 85.1335 60.0728 85.0028C60.3938 84.8693 60.6481 84.6847 60.8356 84.4489C61.0231 84.2102 61.1168 83.9318 61.1168 83.6136C61.1168 83.3239 61.0359 83.0881 60.8739 82.9062C60.712 82.7244 60.4989 82.5767 60.2347 82.4631C59.9705 82.3494 59.685 82.25 59.3782 82.1648L58.3043 81.858C57.6225 81.6619 57.0827 81.3821 56.685 81.0185C56.2873 80.6548 56.0884 80.179 56.0884 79.5909C56.0884 79.1023 56.2205 78.6761 56.4847 78.3125C56.7518 77.946 57.1097 77.6619 57.5586 77.4602C58.0103 77.2557 58.5146 77.1534 59.0714 77.1534C59.6339 77.1534 60.1339 77.2543 60.5714 77.456C61.0089 77.6548 61.3555 77.9276 61.6112 78.2741C61.8697 78.6207 62.006 79.0142 62.0202 79.4545H60.9975ZM63.7408 86V79.4545H64.7464V86H63.7408ZM64.2521 78.3636C64.0561 78.3636 63.8871 78.2969 63.745 78.1634C63.6058 78.0298 63.5362 77.8693 63.5362 77.6818C63.5362 77.4943 63.6058 77.3338 63.745 77.2003C63.8871 77.0668 64.0561 77 64.2521 77C64.4482 77 64.6158 77.0668 64.755 77.2003C64.897 77.3338 64.968 77.4943 64.968 77.6818C64.968 77.8693 64.897 78.0298 64.755 78.1634C64.6158 78.2969 64.4482 78.3636 64.2521 78.3636ZM66.5884 86V79.4545H67.56V80.4773H67.6452C67.7816 80.1278 68.0018 79.8565 68.3058 79.6634C68.6097 79.4673 68.9748 79.3693 69.4009 79.3693C69.8327 79.3693 70.1921 79.4673 70.479 79.6634C70.7688 79.8565 70.9947 80.1278 71.1566 80.4773H71.2248C71.3924 80.1392 71.6438 79.8707 71.979 79.6719C72.3143 79.4702 72.7163 79.3693 73.185 79.3693C73.7702 79.3693 74.2489 79.5526 74.6211 79.919C74.9933 80.2827 75.1793 80.8494 75.1793 81.6193V86H74.1737V81.6193C74.1737 81.1364 74.0415 80.7912 73.7773 80.5838C73.5131 80.3764 73.2021 80.2727 72.8441 80.2727C72.3839 80.2727 72.0273 80.4119 71.7745 80.6903C71.5217 80.9659 71.3952 81.3153 71.3952 81.7386V86H70.3725V81.517C70.3725 81.1449 70.2518 80.8452 70.0103 80.6179C69.7688 80.3878 69.4577 80.2727 69.0771 80.2727C68.8157 80.2727 68.5714 80.3423 68.3441 80.4815C68.1197 80.6207 67.9379 80.8139 67.7987 81.0611C67.6623 81.3054 67.5941 81.5881 67.5941 81.9091V86H66.5884ZM77.0181 88.4545V79.4545H77.9897V80.4943H78.109C78.1829 80.3807 78.2852 80.2358 78.4158 80.0597C78.5494 79.8807 78.7397 79.7216 78.9869 79.5824C79.2369 79.4403 79.5749 79.3693 80.0011 79.3693C80.5522 79.3693 81.038 79.5071 81.4585 79.7827C81.8789 80.0582 82.207 80.4489 82.4428 80.9545C82.6786 81.4602 82.7965 82.0568 82.7965 82.7443C82.7965 83.4375 82.6786 84.0384 82.4428 84.5469C82.207 85.0526 81.8803 85.4446 81.4627 85.723C81.0451 85.9986 80.5636 86.1364 80.0181 86.1364C79.5977 86.1364 79.261 86.0668 79.0082 85.9276C78.7553 85.7855 78.5607 85.625 78.4244 85.446C78.288 85.2642 78.1829 85.1136 78.109 84.9943H78.0238V88.4545H77.0181ZM78.0067 82.7273C78.0067 83.2216 78.0792 83.6577 78.2241 84.0355C78.369 84.4105 78.5806 84.7045 78.859 84.9176C79.1374 85.1278 79.4783 85.233 79.8817 85.233C80.3022 85.233 80.6531 85.1222 80.9343 84.9006C81.2184 84.6761 81.4315 84.375 81.5735 83.9972C81.7184 83.6165 81.7908 83.1932 81.7908 82.7273C81.7908 82.267 81.7198 81.8523 81.5778 81.483C81.4386 81.1108 81.2269 80.8168 80.9428 80.6009C80.6616 80.3821 80.3079 80.2727 79.8817 80.2727C79.4727 80.2727 79.1289 80.3764 78.8505 80.5838C78.5721 80.7884 78.3619 81.0753 78.2198 81.4446C78.0778 81.8111 78.0067 82.2386 78.0067 82.7273ZM88.967 80.9205L88.0636 81.1761C88.0067 81.0256 87.9229 80.8793 87.8121 80.7372C87.7042 80.5923 87.5565 80.473 87.369 80.3793C87.1815 80.2855 86.9414 80.2386 86.6488 80.2386C86.2482 80.2386 85.9144 80.331 85.6474 80.5156C85.3832 80.6974 85.2511 80.929 85.2511 81.2102C85.2511 81.4602 85.342 81.6577 85.5238 81.8026C85.7056 81.9474 85.9897 82.0682 86.3761 82.1648L87.3477 82.4034C87.9329 82.5455 88.369 82.7628 88.6559 83.0554C88.9428 83.3452 89.0863 83.7187 89.0863 84.1761C89.0863 84.5511 88.9783 84.8864 88.7624 85.1818C88.5494 85.4773 88.2511 85.7102 87.8675 85.8807C87.484 86.0511 87.038 86.1364 86.5295 86.1364C85.8619 86.1364 85.3093 85.9915 84.8718 85.7017C84.4343 85.4119 84.1573 84.9886 84.0408 84.4318L84.9954 84.1932C85.0863 84.5455 85.2582 84.8097 85.511 84.9858C85.7667 85.1619 86.1005 85.25 86.5124 85.25C86.9812 85.25 87.3533 85.1506 87.6289 84.9517C87.9073 84.75 88.0465 84.5085 88.0465 84.2273C88.0465 84 87.967 83.8097 87.8079 83.6562C87.6488 83.5 87.4045 83.3835 87.0749 83.3068L85.984 83.0511C85.3846 82.9091 84.9442 82.6889 84.663 82.3906C84.3846 82.0895 84.2454 81.7131 84.2454 81.2614C84.2454 80.892 84.3491 80.5653 84.5565 80.2812C84.7667 79.9972 85.0522 79.7741 85.413 79.6122C85.7766 79.4503 86.1886 79.3693 86.6488 79.3693C87.2965 79.3693 87.805 79.5114 88.1744 79.7955C88.5465 80.0795 88.8107 80.4545 88.967 80.9205ZM93.2592 86.1364C92.6683 86.1364 92.1499 85.9957 91.7038 85.7145C91.2607 85.4332 90.9141 85.0398 90.6641 84.5341C90.4169 84.0284 90.2933 83.4375 90.2933 82.7614C90.2933 82.0795 90.4169 81.4844 90.6641 80.9759C90.9141 80.4673 91.2607 80.0724 91.7038 79.7912C92.1499 79.5099 92.6683 79.3693 93.2592 79.3693C93.8501 79.3693 94.3672 79.5099 94.8104 79.7912C95.2564 80.0724 95.603 80.4673 95.8501 80.9759C96.1001 81.4844 96.2251 82.0795 96.2251 82.7614C96.2251 83.4375 96.1001 84.0284 95.8501 84.5341C95.603 85.0398 95.2564 85.4332 94.8104 85.7145C94.3672 85.9957 93.8501 86.1364 93.2592 86.1364ZM93.2592 85.233C93.7081 85.233 94.0774 85.1179 94.3672 84.8878C94.657 84.6577 94.8714 84.3551 95.0107 83.9801C95.1499 83.6051 95.2195 83.1989 95.2195 82.7614C95.2195 82.3239 95.1499 81.9162 95.0107 81.5384C94.8714 81.1605 94.657 80.8551 94.3672 80.6222C94.0774 80.3892 93.7081 80.2727 93.2592 80.2727C92.8104 80.2727 92.4411 80.3892 92.1513 80.6222C91.8615 80.8551 91.647 81.1605 91.5078 81.5384C91.3686 81.9162 91.299 82.3239 91.299 82.7614C91.299 83.1989 91.3686 83.6051 91.5078 83.9801C91.647 84.3551 91.8615 84.6577 92.1513 84.8878C92.4411 85.1179 92.8104 85.233 93.2592 85.233ZM98.766 82.0625V86H97.7603V79.4545H98.7319V80.4773H98.8171C98.9705 80.1449 99.2035 79.8778 99.516 79.6761C99.8285 79.4716 100.232 79.3693 100.726 79.3693C101.169 79.3693 101.557 79.4602 101.89 79.642C102.222 79.821 102.48 80.0938 102.665 80.4602C102.85 80.8239 102.942 81.2841 102.942 81.8409V86H101.936V81.9091C101.936 81.3949 101.803 80.9943 101.536 80.7074C101.269 80.4176 100.902 80.2727 100.436 80.2727C100.115 80.2727 99.8285 80.3423 99.5756 80.4815C99.3256 80.6207 99.1282 80.8239 98.9833 81.0909C98.8384 81.358 98.766 81.6818 98.766 82.0625Z" fill="#4A4D52"/>
<path d="M108.291 86V77.2727H111.24C111.925 77.2727 112.484 77.3963 112.919 77.6435C113.357 77.8878 113.68 78.2188 113.891 78.6364C114.101 79.054 114.206 79.5199 114.206 80.0341C114.206 80.5483 114.101 81.0156 113.891 81.4361C113.683 81.8565 113.362 82.1918 112.928 82.4418C112.493 82.6889 111.936 82.8125 111.257 82.8125H109.143V81.875H111.223C111.692 81.875 112.068 81.794 112.352 81.6321C112.636 81.4702 112.842 81.2514 112.97 80.9759C113.101 80.6974 113.166 80.3835 113.166 80.0341C113.166 79.6847 113.101 79.3722 112.97 79.0966C112.842 78.821 112.635 78.6051 112.348 78.4489C112.061 78.2898 111.68 78.2102 111.206 78.2102H109.348V86H108.291ZM116.778 82.0625V86H115.772V77.2727H116.778V80.4773H116.863C117.016 80.1392 117.246 79.8707 117.553 79.6719C117.863 79.4702 118.275 79.3693 118.789 79.3693C119.235 79.3693 119.626 79.4588 119.961 79.6378C120.296 79.8139 120.556 80.0852 120.741 80.4517C120.928 80.8153 121.022 81.2784 121.022 81.8409V86H120.016V81.9091C120.016 81.3892 119.881 80.9872 119.612 80.7031C119.344 80.4162 118.974 80.2727 118.499 80.2727C118.17 80.2727 117.874 80.3423 117.613 80.4815C117.354 80.6207 117.15 80.8239 116.999 81.0909C116.852 81.358 116.778 81.6818 116.778 82.0625ZM123.275 88.4545C123.105 88.4545 122.953 88.4403 122.819 88.4119C122.686 88.3864 122.593 88.3608 122.542 88.3352L122.798 87.4489C123.042 87.5114 123.258 87.5341 123.446 87.517C123.633 87.5 123.799 87.4162 123.944 87.2656C124.092 87.1179 124.227 86.8778 124.349 86.5455L124.537 86.0341L122.116 79.4545H123.207L125.014 84.6705H125.082L126.889 79.4545H127.98L125.201 86.9545C125.076 87.2926 124.922 87.5724 124.737 87.794C124.552 88.0185 124.338 88.1847 124.093 88.2926C123.852 88.4006 123.579 88.4545 123.275 88.4545ZM131.732 86.1364C131.118 86.1364 130.59 85.9915 130.147 85.7017C129.703 85.4119 129.363 85.0128 129.124 84.5043C128.885 83.9957 128.766 83.4148 128.766 82.7614C128.766 82.0966 128.888 81.5099 129.132 81.0014C129.38 80.4901 129.723 80.0909 130.164 79.804C130.607 79.5142 131.124 79.3693 131.715 79.3693C132.175 79.3693 132.59 79.4545 132.959 79.625C133.328 79.7955 133.631 80.0341 133.867 80.3409C134.103 80.6477 134.249 81.0057 134.306 81.4148H133.3C133.223 81.1165 133.053 80.8523 132.789 80.6222C132.527 80.3892 132.175 80.2727 131.732 80.2727C131.34 80.2727 130.996 80.375 130.701 80.5795C130.408 80.7812 130.179 81.0668 130.015 81.4361C129.853 81.8026 129.772 82.233 129.772 82.7273C129.772 83.233 129.851 83.6733 130.01 84.0483C130.172 84.4233 130.4 84.7145 130.692 84.9219C130.988 85.1293 131.334 85.233 131.732 85.233C131.993 85.233 132.23 85.1875 132.444 85.0966C132.657 85.0057 132.837 84.875 132.985 84.7045C133.132 84.5341 133.238 84.3295 133.3 84.0909H134.306C134.249 84.4773 134.108 84.8253 133.884 85.1349C133.662 85.4418 133.368 85.6861 133.002 85.8679C132.638 86.0469 132.215 86.1364 131.732 86.1364ZM135.776 86V79.4545H136.782V86H135.776ZM136.287 78.3636C136.091 78.3636 135.922 78.2969 135.78 78.1634C135.641 78.0298 135.571 77.8693 135.571 77.6818C135.571 77.4943 135.641 77.3338 135.78 77.2003C135.922 77.0668 136.091 77 136.287 77C136.483 77 136.651 77.0668 136.79 77.2003C136.932 77.3338 137.003 77.4943 137.003 77.6818C137.003 77.8693 136.932 78.0298 136.79 78.1634C136.651 78.2969 136.483 78.3636 136.287 78.3636ZM143.26 80.9205L142.357 81.1761C142.3 81.0256 142.216 80.8793 142.105 80.7372C141.997 80.5923 141.849 80.473 141.662 80.3793C141.474 80.2855 141.234 80.2386 140.942 80.2386C140.541 80.2386 140.207 80.331 139.94 80.5156C139.676 80.6974 139.544 80.929 139.544 81.2102C139.544 81.4602 139.635 81.6577 139.817 81.8026C139.999 81.9474 140.283 82.0682 140.669 82.1648L141.641 82.4034C142.226 82.5455 142.662 82.7628 142.949 83.0554C143.236 83.3452 143.379 83.7187 143.379 84.1761C143.379 84.5511 143.271 84.8864 143.055 85.1818C142.842 85.4773 142.544 85.7102 142.161 85.8807C141.777 86.0511 141.331 86.1364 140.822 86.1364C140.155 86.1364 139.602 85.9915 139.165 85.7017C138.727 85.4119 138.45 84.9886 138.334 84.4318L139.288 84.1932C139.379 84.5455 139.551 84.8097 139.804 84.9858C140.06 85.1619 140.393 85.25 140.805 85.25C141.274 85.25 141.646 85.1506 141.922 84.9517C142.2 84.75 142.339 84.5085 142.339 84.2273C142.339 84 142.26 83.8097 142.101 83.6562C141.942 83.5 141.697 83.3835 141.368 83.3068L140.277 83.0511C139.678 82.9091 139.237 82.6889 138.956 82.3906C138.678 82.0895 138.538 81.7131 138.538 81.2614C138.538 80.892 138.642 80.5653 138.849 80.2812C139.06 79.9972 139.345 79.7741 139.706 79.6122C140.07 79.4503 140.482 79.3693 140.942 79.3693C141.589 79.3693 142.098 79.5114 142.467 79.7955C142.839 80.0795 143.104 80.4545 143.26 80.9205ZM144.893 86V79.4545H145.899V86H144.893ZM145.404 78.3636C145.208 78.3636 145.039 78.2969 144.897 78.1634C144.758 78.0298 144.689 77.8693 144.689 77.6818C144.689 77.4943 144.758 77.3338 144.897 77.2003C145.039 77.0668 145.208 77 145.404 77C145.6 77 145.768 77.0668 145.907 77.2003C146.049 77.3338 146.12 77.4943 146.12 77.6818C146.12 77.8693 146.049 78.0298 145.907 78.1634C145.768 78.2969 145.6 78.3636 145.404 78.3636ZM152.377 80.9205L151.474 81.1761C151.417 81.0256 151.333 80.8793 151.222 80.7372C151.114 80.5923 150.967 80.473 150.779 80.3793C150.592 80.2855 150.352 80.2386 150.059 80.2386C149.658 80.2386 149.325 80.331 149.058 80.5156C148.793 80.6974 148.661 80.929 148.661 81.2102C148.661 81.4602 148.752 81.6577 148.934 81.8026C149.116 81.9474 149.4 82.0682 149.786 82.1648L150.758 82.4034C151.343 82.5455 151.779 82.7628 152.066 83.0554C152.353 83.3452 152.496 83.7187 152.496 84.1761C152.496 84.5511 152.388 84.8864 152.173 85.1818C151.96 85.4773 151.661 85.7102 151.278 85.8807C150.894 86.0511 150.448 86.1364 149.94 86.1364C149.272 86.1364 148.719 85.9915 148.282 85.7017C147.844 85.4119 147.567 84.9886 147.451 84.4318L148.406 84.1932C148.496 84.5455 148.668 84.8097 148.921 84.9858C149.177 85.1619 149.511 85.25 149.923 85.25C150.391 85.25 150.763 85.1506 151.039 84.9517C151.317 84.75 151.457 84.5085 151.457 84.2273C151.457 84 151.377 83.8097 151.218 83.6562C151.059 83.5 150.815 83.3835 150.485 83.3068L149.394 83.0511C148.795 82.9091 148.354 82.6889 148.073 82.3906C147.795 82.0895 147.656 81.7131 147.656 81.2614C147.656 80.892 147.759 80.5653 147.967 80.2812C148.177 79.9972 148.462 79.7741 148.823 79.6122C149.187 79.4503 149.599 79.3693 150.059 79.3693C150.707 79.3693 151.215 79.5114 151.585 79.7955C151.957 80.0795 152.221 80.4545 152.377 80.9205ZM156.857 79.4545V80.3068H153.465V79.4545H156.857ZM154.453 77.8864H155.459V84.125C155.459 84.4091 155.5 84.6222 155.583 84.7642C155.668 84.9034 155.776 84.9972 155.907 85.0455C156.04 85.0909 156.181 85.1136 156.328 85.1136C156.439 85.1136 156.53 85.108 156.601 85.0966C156.672 85.0824 156.729 85.071 156.772 85.0625L156.976 85.9659C156.908 85.9915 156.813 86.017 156.691 86.0426C156.569 86.071 156.414 86.0852 156.226 86.0852C155.942 86.0852 155.664 86.0241 155.391 85.902C155.121 85.7798 154.897 85.5938 154.718 85.3438C154.542 85.0938 154.453 84.7784 154.453 84.3977V77.8864Z" fill="#888888"/>
<path d="M33.4148 106H32.3068L35.5114 97.2727H36.6023L39.8068 106H38.6989L36.0909 98.6534H36.0227L33.4148 106ZM33.8239 102.591H38.2898V103.528H33.8239V102.591ZM41.0298 106V99.4545H42.0014V100.443H42.0696C42.1889 100.119 42.4048 99.8565 42.7173 99.6548C43.0298 99.4531 43.3821 99.3523 43.7741 99.3523C43.848 99.3523 43.9403 99.3537 44.0511 99.3565C44.1619 99.3594 44.2457 99.3636 44.3026 99.3693V100.392C44.2685 100.384 44.1903 100.371 44.0682 100.354C43.9489 100.334 43.8224 100.324 43.6889 100.324C43.3707 100.324 43.0866 100.391 42.8366 100.524C42.5895 100.655 42.3935 100.837 42.2486 101.07C42.1065 101.3 42.0355 101.562 42.0355 101.858V106H41.0298ZM48.0398 106.136C47.4091 106.136 46.8651 105.997 46.4077 105.719C45.9531 105.438 45.6023 105.045 45.3551 104.543C45.1108 104.037 44.9886 103.449 44.9886 102.778C44.9886 102.108 45.1108 101.517 45.3551 101.006C45.6023 100.491 45.946 100.091 46.3864 99.804C46.8295 99.5142 47.3466 99.3693 47.9375 99.3693C48.2784 99.3693 48.6151 99.4261 48.9474 99.5398C49.2798 99.6534 49.5824 99.8381 49.8551 100.094C50.1278 100.347 50.3452 100.682 50.5071 101.099C50.669 101.517 50.75 102.031 50.75 102.642V103.068H45.7045V102.199H49.7273C49.7273 101.83 49.6534 101.5 49.5057 101.21C49.3608 100.92 49.1534 100.692 48.8835 100.524C48.6165 100.357 48.3011 100.273 47.9375 100.273C47.5369 100.273 47.1903 100.372 46.8977 100.571C46.608 100.767 46.3849 101.023 46.2287 101.338C46.0724 101.653 45.9943 101.991 45.9943 102.352V102.932C45.9943 103.426 46.0795 103.845 46.25 104.189C46.4233 104.53 46.6634 104.79 46.9702 104.969C47.277 105.145 47.6335 105.233 48.0398 105.233C48.304 105.233 48.5426 105.196 48.7557 105.122C48.9716 105.045 49.1577 104.932 49.3139 104.781C49.4702 104.628 49.5909 104.437 49.6761 104.21L50.6477 104.483C50.5455 104.812 50.3736 105.102 50.1321 105.352C49.8906 105.599 49.5923 105.793 49.2372 105.932C48.8821 106.068 48.483 106.136 48.0398 106.136ZM54.206 106.153C53.7912 106.153 53.4148 106.075 53.0767 105.919C52.7386 105.76 52.4702 105.531 52.2713 105.233C52.0724 104.932 51.973 104.568 51.973 104.142C51.973 103.767 52.0469 103.463 52.1946 103.23C52.3423 102.994 52.5398 102.81 52.7869 102.676C53.0341 102.543 53.3068 102.443 53.6051 102.378C53.9063 102.31 54.2088 102.256 54.5128 102.216C54.9105 102.165 55.233 102.126 55.4801 102.101C55.7301 102.072 55.9119 102.026 56.0256 101.96C56.142 101.895 56.2003 101.781 56.2003 101.619V101.585C56.2003 101.165 56.0852 100.838 55.8551 100.605C55.6278 100.372 55.2827 100.256 54.8196 100.256C54.3395 100.256 53.9631 100.361 53.6903 100.571C53.4176 100.781 53.2259 101.006 53.1151 101.244L52.1605 100.903C52.331 100.506 52.5582 100.196 52.8423 99.9744C53.1293 99.75 53.4418 99.5937 53.7798 99.5057C54.1207 99.4148 54.456 99.3693 54.7855 99.3693C54.9957 99.3693 55.2372 99.3949 55.5099 99.446C55.7855 99.4943 56.0511 99.5952 56.3068 99.7486C56.5653 99.902 56.7798 100.134 56.9503 100.443C57.1207 100.753 57.206 101.168 57.206 101.688V106H56.2003V105.114H56.1491C56.081 105.256 55.9673 105.408 55.8082 105.57C55.6491 105.732 55.4375 105.869 55.1733 105.983C54.9091 106.097 54.5866 106.153 54.206 106.153ZM54.3594 105.25C54.7571 105.25 55.0923 105.172 55.3651 105.016C55.6406 104.859 55.848 104.658 55.9872 104.411C56.1293 104.163 56.2003 103.903 56.2003 103.631V102.71C56.1577 102.761 56.0639 102.808 55.919 102.851C55.777 102.891 55.6122 102.926 55.4247 102.957C55.2401 102.986 55.0597 103.011 54.8835 103.034C54.7102 103.054 54.5696 103.071 54.4616 103.085C54.2003 103.119 53.956 103.175 53.7287 103.251C53.5043 103.325 53.3224 103.437 53.1832 103.588C53.0469 103.736 52.9787 103.937 52.9787 104.193C52.9787 104.543 53.108 104.807 53.3665 104.986C53.6278 105.162 53.9588 105.25 54.3594 105.25ZM62.5529 106V97.2727H65.5018C66.1836 97.2727 66.7433 97.3892 67.1808 97.6222C67.6183 97.8523 67.9421 98.169 68.1523 98.5724C68.3626 98.9759 68.4677 99.4347 68.4677 99.9489C68.4677 100.463 68.3626 100.919 68.1523 101.317C67.9421 101.714 67.6197 102.027 67.185 102.254C66.7504 102.479 66.195 102.591 65.5188 102.591H63.1325V101.636H65.4847C65.9506 101.636 66.3256 101.568 66.6097 101.432C66.8967 101.295 67.104 101.102 67.2319 100.852C67.3626 100.599 67.4279 100.298 67.4279 99.9489C67.4279 99.5994 67.3626 99.294 67.2319 99.0327C67.1012 98.7713 66.8924 98.5696 66.6055 98.4276C66.3185 98.2827 65.9393 98.2102 65.4677 98.2102H63.6097V106H62.5529ZM66.6609 102.08L68.8086 106H67.5813L65.4677 102.08H66.6609ZM72.7663 106.136C72.1357 106.136 71.5916 105.997 71.1342 105.719C70.6797 105.438 70.3288 105.045 70.0817 104.543C69.8374 104.037 69.7152 103.449 69.7152 102.778C69.7152 102.108 69.8374 101.517 70.0817 101.006C70.3288 100.491 70.6726 100.091 71.1129 99.804C71.5561 99.5142 72.0732 99.3693 72.6641 99.3693C73.005 99.3693 73.3416 99.4261 73.674 99.5398C74.0064 99.6534 74.3089 99.8381 74.5817 100.094C74.8544 100.347 75.0717 100.682 75.2337 101.099C75.3956 101.517 75.4766 102.031 75.4766 102.642V103.068H70.4311V102.199H74.4538C74.4538 101.83 74.38 101.5 74.2322 101.21C74.0874 100.92 73.88 100.692 73.6101 100.524C73.343 100.357 73.0277 100.273 72.6641 100.273C72.2635 100.273 71.9169 100.372 71.6243 100.571C71.3345 100.767 71.1115 101.023 70.9553 101.338C70.799 101.653 70.7209 101.991 70.7209 102.352V102.932C70.7209 103.426 70.8061 103.845 70.9766 104.189C71.1499 104.53 71.3899 104.79 71.6967 104.969C72.0036 105.145 72.3601 105.233 72.7663 105.233C73.0305 105.233 73.2692 105.196 73.4822 105.122C73.6982 105.045 73.8842 104.932 74.0405 104.781C74.1967 104.628 74.3175 104.437 74.4027 104.21L75.3743 104.483C75.272 104.812 75.1001 105.102 74.8587 105.352C74.6172 105.599 74.3189 105.793 73.9638 105.932C73.6087 106.068 73.2095 106.136 72.7663 106.136ZM81.6428 100.92L80.7393 101.176C80.6825 101.026 80.5987 100.879 80.4879 100.737C80.38 100.592 80.2322 100.473 80.0447 100.379C79.8572 100.286 79.6172 100.239 79.3246 100.239C78.924 100.239 78.5902 100.331 78.3232 100.516C78.0589 100.697 77.9268 100.929 77.9268 101.21C77.9268 101.46 78.0178 101.658 78.1996 101.803C78.3814 101.947 78.6655 102.068 79.0518 102.165L80.0234 102.403C80.6087 102.545 81.0447 102.763 81.3317 103.055C81.6186 103.345 81.7621 103.719 81.7621 104.176C81.7621 104.551 81.6541 104.886 81.4382 105.182C81.2251 105.477 80.9268 105.71 80.5433 105.881C80.1598 106.051 79.7138 106.136 79.2053 106.136C78.5376 106.136 77.9851 105.991 77.5476 105.702C77.1101 105.412 76.8331 104.989 76.7166 104.432L77.6712 104.193C77.7621 104.545 77.9339 104.81 78.1868 104.986C78.4425 105.162 78.7763 105.25 79.1882 105.25C79.657 105.25 80.0291 105.151 80.3047 104.952C80.5831 104.75 80.7223 104.509 80.7223 104.227C80.7223 104 80.6428 103.81 80.4837 103.656C80.3246 103.5 80.0803 103.384 79.7507 103.307L78.6598 103.051C78.0604 102.909 77.62 102.689 77.3388 102.391C77.0604 102.089 76.9212 101.713 76.9212 101.261C76.9212 100.892 77.0249 100.565 77.2322 100.281C77.4425 99.9972 77.728 99.7741 78.0888 99.6122C78.4524 99.4503 78.8643 99.3693 79.3246 99.3693C79.9723 99.3693 80.4808 99.5114 80.8501 99.7955C81.2223 100.08 81.4865 100.455 81.6428 100.92ZM83.2759 108.455V99.4545H84.2475V100.494H84.3668C84.4407 100.381 84.543 100.236 84.6737 100.06C84.8072 99.8807 84.9975 99.7216 85.2447 99.5824C85.4947 99.4403 85.8327 99.3693 86.2589 99.3693C86.81 99.3693 87.2958 99.5071 87.7163 99.7827C88.1367 100.058 88.4648 100.449 88.7006 100.955C88.9364 101.46 89.0543 102.057 89.0543 102.744C89.0543 103.438 88.9364 104.038 88.7006 104.547C88.4648 105.053 88.1381 105.445 87.7205 105.723C87.3029 105.999 86.8214 106.136 86.2759 106.136C85.8555 106.136 85.5188 106.067 85.266 105.928C85.0131 105.786 84.8185 105.625 84.6822 105.446C84.5458 105.264 84.4407 105.114 84.3668 104.994H84.2816V108.455H83.2759ZM84.2646 102.727C84.2646 103.222 84.337 103.658 84.4819 104.036C84.6268 104.411 84.8384 104.705 85.1168 104.918C85.3952 105.128 85.7362 105.233 86.1396 105.233C86.56 105.233 86.9109 105.122 87.1921 104.901C87.4762 104.676 87.6893 104.375 87.8313 103.997C87.9762 103.616 88.0487 103.193 88.0487 102.727C88.0487 102.267 87.9776 101.852 87.8356 101.483C87.6964 101.111 87.4847 100.817 87.2006 100.601C86.9194 100.382 86.5657 100.273 86.1396 100.273C85.7305 100.273 85.3867 100.376 85.1083 100.584C84.8299 100.788 84.6197 101.075 84.4776 101.445C84.3356 101.811 84.2646 102.239 84.2646 102.727ZM93.2475 106.136C92.6566 106.136 92.1381 105.996 91.6921 105.714C91.2489 105.433 90.9023 105.04 90.6523 104.534C90.4052 104.028 90.2816 103.437 90.2816 102.761C90.2816 102.08 90.4052 101.484 90.6523 100.976C90.9023 100.467 91.2489 100.072 91.6921 99.7912C92.1381 99.5099 92.6566 99.3693 93.2475 99.3693C93.8384 99.3693 94.3555 99.5099 94.7987 99.7912C95.2447 100.072 95.5913 100.467 95.8384 100.976C96.0884 101.484 96.2134 102.08 96.2134 102.761C96.2134 103.437 96.0884 104.028 95.8384 104.534C95.5913 105.04 95.2447 105.433 94.7987 105.714C94.3555 105.996 93.8384 106.136 93.2475 106.136ZM93.2475 105.233C93.6964 105.233 94.0657 105.118 94.3555 104.888C94.6452 104.658 94.8597 104.355 94.9989 103.98C95.1381 103.605 95.2077 103.199 95.2077 102.761C95.2077 102.324 95.1381 101.916 94.9989 101.538C94.8597 101.161 94.6452 100.855 94.3555 100.622C94.0657 100.389 93.6964 100.273 93.2475 100.273C92.7987 100.273 92.4293 100.389 92.1396 100.622C91.8498 100.855 91.6353 101.161 91.4961 101.538C91.3569 101.916 91.2873 102.324 91.2873 102.761C91.2873 103.199 91.3569 103.605 91.4961 103.98C91.6353 104.355 91.8498 104.658 92.1396 104.888C92.4293 105.118 92.7987 105.233 93.2475 105.233ZM98.7543 102.062V106H97.7486V99.4545H98.7202V100.477H98.8054C98.9588 100.145 99.1918 99.8778 99.5043 99.6761C99.8168 99.4716 100.22 99.3693 100.714 99.3693C101.158 99.3693 101.545 99.4602 101.878 99.642C102.21 99.821 102.469 100.094 102.653 100.46C102.838 100.824 102.93 101.284 102.93 101.841V106H101.925V101.909C101.925 101.395 101.791 100.994 101.524 100.707C101.257 100.418 100.891 100.273 100.425 100.273C100.104 100.273 99.8168 100.342 99.5639 100.482C99.3139 100.621 99.1165 100.824 98.9716 101.091C98.8267 101.358 98.7543 101.682 98.7543 102.062ZM109.404 100.92L108.501 101.176C108.444 101.026 108.36 100.879 108.25 100.737C108.142 100.592 107.994 100.473 107.806 100.379C107.619 100.286 107.379 100.239 107.086 100.239C106.686 100.239 106.352 100.331 106.085 100.516C105.821 100.697 105.689 100.929 105.689 101.21C105.689 101.46 105.779 101.658 105.961 101.803C106.143 101.947 106.427 102.068 106.814 102.165L107.785 102.403C108.37 102.545 108.806 102.763 109.093 103.055C109.38 103.345 109.524 103.719 109.524 104.176C109.524 104.551 109.416 104.886 109.2 105.182C108.987 105.477 108.689 105.71 108.305 105.881C107.922 106.051 107.475 106.136 106.967 106.136C106.299 106.136 105.747 105.991 105.309 105.702C104.872 105.412 104.595 104.989 104.478 104.432L105.433 104.193C105.524 104.545 105.696 104.81 105.949 104.986C106.204 105.162 106.538 105.25 106.95 105.25C107.419 105.25 107.791 105.151 108.066 104.952C108.345 104.75 108.484 104.509 108.484 104.227C108.484 104 108.404 103.81 108.245 103.656C108.086 103.5 107.842 103.384 107.512 103.307L106.422 103.051C105.822 102.909 105.382 102.689 105.1 102.391C104.822 102.089 104.683 101.713 104.683 101.261C104.683 100.892 104.787 100.565 104.994 100.281C105.204 99.9972 105.49 99.7741 105.85 99.6122C106.214 99.4503 106.626 99.3693 107.086 99.3693C107.734 99.3693 108.243 99.5114 108.612 99.7955C108.984 100.08 109.248 100.455 109.404 100.92ZM111.038 106V99.4545H112.043V106H111.038ZM111.549 98.3636C111.353 98.3636 111.184 98.2969 111.042 98.1634C110.903 98.0298 110.833 97.8693 110.833 97.6818C110.833 97.4943 110.903 97.3338 111.042 97.2003C111.184 97.0668 111.353 97 111.549 97C111.745 97 111.913 97.0668 112.052 97.2003C112.194 97.3338 112.265 97.4943 112.265 97.6818C112.265 97.8693 112.194 98.0298 112.052 98.1634C111.913 98.2969 111.745 98.3636 111.549 98.3636ZM114.022 106V97.2727H115.027V100.494H115.113C115.186 100.381 115.289 100.236 115.419 100.06C115.553 99.8807 115.743 99.7216 115.99 99.5824C116.24 99.4403 116.578 99.3693 117.005 99.3693C117.556 99.3693 118.042 99.5071 118.462 99.7827C118.882 100.058 119.211 100.449 119.446 100.955C119.682 101.46 119.8 102.057 119.8 102.744C119.8 103.438 119.682 104.038 119.446 104.547C119.211 105.053 118.884 105.445 118.466 105.723C118.049 105.999 117.567 106.136 117.022 106.136C116.601 106.136 116.265 106.067 116.012 105.928C115.759 105.786 115.564 105.625 115.428 105.446C115.292 105.264 115.186 105.114 115.113 104.994H114.993V106H114.022ZM115.01 102.727C115.01 103.222 115.083 103.658 115.228 104.036C115.373 104.411 115.584 104.705 115.863 104.918C116.141 105.128 116.482 105.233 116.885 105.233C117.306 105.233 117.657 105.122 117.938 104.901C118.222 104.676 118.435 104.375 118.577 103.997C118.722 103.616 118.794 103.193 118.794 102.727C118.794 102.267 118.723 101.852 118.581 101.483C118.442 101.111 118.23 100.817 117.946 100.601C117.665 100.382 117.311 100.273 116.885 100.273C116.476 100.273 116.132 100.376 115.854 100.584C115.576 100.788 115.365 101.075 115.223 101.445C115.081 101.811 115.01 102.239 115.01 102.727ZM121.338 106V99.4545H122.344V106H121.338ZM121.85 98.3636C121.654 98.3636 121.485 98.2969 121.343 98.1634C121.203 98.0298 121.134 97.8693 121.134 97.6818C121.134 97.4943 121.203 97.3338 121.343 97.2003C121.485 97.0668 121.654 97 121.85 97C122.046 97 122.213 97.0668 122.353 97.2003C122.495 97.3338 122.566 97.4943 122.566 97.6818C122.566 97.8693 122.495 98.0298 122.353 98.1634C122.213 98.2969 122.046 98.3636 121.85 98.3636ZM125.192 97.2727V106H124.186V97.2727H125.192ZM127.034 106V99.4545H128.039V106H127.034ZM127.545 98.3636C127.349 98.3636 127.18 98.2969 127.038 98.1634C126.899 98.0298 126.829 97.8693 126.829 97.6818C126.829 97.4943 126.899 97.3338 127.038 97.2003C127.18 97.0668 127.349 97 127.545 97C127.741 97 127.909 97.0668 128.048 97.2003C128.19 97.3338 128.261 97.4943 128.261 97.6818C128.261 97.8693 128.19 98.0298 128.048 98.1634C127.909 98.2969 127.741 98.3636 127.545 98.3636ZM132.728 99.4545V100.307H129.336V99.4545H132.728ZM130.325 97.8864H131.33V104.125C131.33 104.409 131.371 104.622 131.454 104.764C131.539 104.903 131.647 104.997 131.778 105.045C131.911 105.091 132.052 105.114 132.2 105.114C132.31 105.114 132.401 105.108 132.472 105.097C132.543 105.082 132.6 105.071 132.643 105.062L132.847 105.966C132.779 105.991 132.684 106.017 132.562 106.043C132.44 106.071 132.285 106.085 132.097 106.085C131.813 106.085 131.535 106.024 131.262 105.902C130.992 105.78 130.768 105.594 130.589 105.344C130.413 105.094 130.325 104.778 130.325 104.398V97.8864ZM134.888 108.455C134.718 108.455 134.566 108.44 134.433 108.412C134.299 108.386 134.207 108.361 134.156 108.335L134.411 107.449C134.656 107.511 134.871 107.534 135.059 107.517C135.246 107.5 135.413 107.416 135.558 107.266C135.705 107.118 135.84 106.878 135.962 106.545L136.15 106.034L133.729 99.4545H134.82L136.627 104.67H136.695L138.502 99.4545H139.593L136.815 106.955C136.69 107.293 136.535 107.572 136.35 107.794C136.165 108.018 135.951 108.185 135.707 108.293C135.465 108.401 135.192 108.455 134.888 108.455ZM148.932 100.92L148.028 101.176C147.972 101.026 147.888 100.879 147.777 100.737C147.669 100.592 147.521 100.473 147.334 100.379C147.146 100.286 146.906 100.239 146.614 100.239C146.213 100.239 145.879 100.331 145.612 100.516C145.348 100.697 145.216 100.929 145.216 101.21C145.216 101.46 145.307 101.658 145.489 101.803C145.67 101.947 145.955 102.068 146.341 102.165L147.312 102.403C147.898 102.545 148.334 102.763 148.621 103.055C148.908 103.345 149.051 103.719 149.051 104.176C149.051 104.551 148.943 104.886 148.727 105.182C148.514 105.477 148.216 105.71 147.832 105.881C147.449 106.051 147.003 106.136 146.494 106.136C145.827 106.136 145.274 105.991 144.837 105.702C144.399 105.412 144.122 104.989 144.006 104.432L144.96 104.193C145.051 104.545 145.223 104.81 145.476 104.986C145.732 105.162 146.065 105.25 146.477 105.25C146.946 105.25 147.318 105.151 147.594 104.952C147.872 104.75 148.011 104.509 148.011 104.227C148.011 104 147.932 103.81 147.773 103.656C147.614 103.5 147.369 103.384 147.04 103.307L145.949 103.051C145.349 102.909 144.909 102.689 144.628 102.391C144.349 102.089 144.21 101.713 144.21 101.261C144.21 100.892 144.314 100.565 144.521 100.281C144.732 99.9972 145.017 99.7741 145.378 99.6122C145.741 99.4503 146.153 99.3693 146.614 99.3693C147.261 99.3693 147.77 99.5114 148.139 99.7955C148.511 100.08 148.776 100.455 148.932 100.92ZM150.565 106V99.4545H151.571V106H150.565ZM151.076 98.3636C150.88 98.3636 150.711 98.2969 150.569 98.1634C150.43 98.0298 150.36 97.8693 150.36 97.6818C150.36 97.4943 150.43 97.3338 150.569 97.2003C150.711 97.0668 150.88 97 151.076 97C151.272 97 151.44 97.0668 151.579 97.2003C151.721 97.3338 151.792 97.4943 151.792 97.6818C151.792 97.8693 151.721 98.0298 151.579 98.1634C151.44 98.2969 151.272 98.3636 151.076 98.3636ZM154.418 102.062V106H153.413V99.4545H154.384V100.477H154.469C154.623 100.145 154.856 99.8778 155.168 99.6761C155.481 99.4716 155.884 99.3693 156.379 99.3693C156.822 99.3693 157.21 99.4602 157.542 99.642C157.874 99.821 158.133 100.094 158.317 100.46C158.502 100.824 158.594 101.284 158.594 101.841V106H157.589V101.909C157.589 101.395 157.455 100.994 157.188 100.707C156.921 100.418 156.555 100.273 156.089 100.273C155.768 100.273 155.481 100.342 155.228 100.482C154.978 100.621 154.781 100.824 154.636 101.091C154.491 101.358 154.418 101.682 154.418 102.062ZM163.091 106.136C162.478 106.136 161.949 105.991 161.506 105.702C161.063 105.412 160.722 105.013 160.483 104.504C160.245 103.996 160.125 103.415 160.125 102.761C160.125 102.097 160.248 101.51 160.492 101.001C160.739 100.49 161.083 100.091 161.523 99.804C161.966 99.5142 162.483 99.3693 163.074 99.3693C163.534 99.3693 163.949 99.4545 164.319 99.625C164.688 99.7955 164.99 100.034 165.226 100.341C165.462 100.648 165.608 101.006 165.665 101.415H164.659C164.583 101.116 164.412 100.852 164.148 100.622C163.887 100.389 163.534 100.273 163.091 100.273C162.699 100.273 162.355 100.375 162.06 100.58C161.767 100.781 161.539 101.067 161.374 101.436C161.212 101.803 161.131 102.233 161.131 102.727C161.131 103.233 161.211 103.673 161.37 104.048C161.532 104.423 161.759 104.714 162.051 104.922C162.347 105.129 162.694 105.233 163.091 105.233C163.353 105.233 163.59 105.188 163.803 105.097C164.016 105.006 164.196 104.875 164.344 104.705C164.492 104.534 164.597 104.33 164.659 104.091H165.665C165.608 104.477 165.468 104.825 165.243 105.135C165.022 105.442 164.728 105.686 164.361 105.868C163.998 106.047 163.574 106.136 163.091 106.136ZM169.88 106.136C169.249 106.136 168.705 105.997 168.248 105.719C167.793 105.438 167.442 105.045 167.195 104.543C166.951 104.037 166.828 103.449 166.828 102.778C166.828 102.108 166.951 101.517 167.195 101.006C167.442 100.491 167.786 100.091 168.226 99.804C168.669 99.5142 169.186 99.3693 169.777 99.3693C170.118 99.3693 170.455 99.4261 170.787 99.5398C171.12 99.6534 171.422 99.8381 171.695 100.094C171.968 100.347 172.185 100.682 172.347 101.099C172.509 101.517 172.59 102.031 172.59 102.642V103.068H167.544V102.199H171.567C171.567 101.83 171.493 101.5 171.346 101.21C171.201 100.92 170.993 100.692 170.723 100.524C170.456 100.357 170.141 100.273 169.777 100.273C169.377 100.273 169.03 100.372 168.738 100.571C168.448 100.767 168.225 101.023 168.069 101.338C167.912 101.653 167.834 101.991 167.834 102.352V102.932C167.834 103.426 167.919 103.845 168.09 104.189C168.263 104.53 168.503 104.79 168.81 104.969C169.117 105.145 169.473 105.233 169.88 105.233C170.144 105.233 170.382 105.196 170.596 105.122C170.811 105.045 170.998 104.932 171.154 104.781C171.31 104.628 171.431 104.437 171.516 104.21L172.488 104.483C172.385 104.812 172.213 105.102 171.972 105.352C171.73 105.599 171.432 105.793 171.077 105.932C170.722 106.068 170.323 106.136 169.88 106.136ZM174.853 106.068C174.642 106.068 174.462 105.993 174.311 105.842C174.161 105.692 174.086 105.511 174.086 105.301C174.086 105.091 174.161 104.911 174.311 104.76C174.462 104.609 174.642 104.534 174.853 104.534C175.063 104.534 175.243 104.609 175.394 104.76C175.544 104.911 175.62 105.091 175.62 105.301C175.62 105.44 175.584 105.568 175.513 105.685C175.445 105.801 175.353 105.895 175.236 105.966C175.123 106.034 174.995 106.068 174.853 106.068ZM174.853 101.21C174.642 101.21 174.462 101.135 174.311 100.984C174.161 100.834 174.086 100.653 174.086 100.443C174.086 100.233 174.161 100.053 174.311 99.902C174.462 99.7514 174.642 99.6761 174.853 99.6761C175.063 99.6761 175.243 99.7514 175.394 99.902C175.544 100.053 175.62 100.233 175.62 100.443C175.62 100.582 175.584 100.71 175.513 100.827C175.445 100.943 175.353 101.037 175.236 101.108C175.123 101.176 174.995 101.21 174.853 101.21Z" fill="#888888"/>
<path d="M188.972 97.2727V106H187.915V98.3807H187.864L185.733 99.7955V98.7216L187.915 97.2727H188.972ZM194.209 106.119C193.709 106.119 193.259 106.02 192.858 105.821C192.457 105.622 192.136 105.349 191.895 105.003C191.653 104.656 191.521 104.261 191.499 103.818H192.521C192.561 104.213 192.74 104.54 193.058 104.798C193.379 105.054 193.763 105.182 194.209 105.182C194.567 105.182 194.885 105.098 195.163 104.93C195.445 104.763 195.665 104.533 195.824 104.24C195.986 103.945 196.067 103.611 196.067 103.239C196.067 102.858 195.983 102.518 195.815 102.22C195.651 101.919 195.423 101.682 195.134 101.509C194.844 101.335 194.513 101.247 194.141 101.244C193.874 101.241 193.599 101.283 193.318 101.368C193.037 101.45 192.805 101.557 192.624 101.688L191.635 101.568L192.163 97.2727H196.697V98.2102H193.05L192.743 100.784H192.794C192.973 100.642 193.197 100.524 193.467 100.43C193.737 100.337 194.018 100.29 194.311 100.29C194.845 100.29 195.321 100.418 195.739 100.673C196.159 100.926 196.489 101.273 196.727 101.713C196.969 102.153 197.089 102.656 197.089 103.222C197.089 103.778 196.964 104.276 196.714 104.713C196.467 105.148 196.126 105.491 195.692 105.744C195.257 105.994 194.763 106.119 194.209 106.119ZM202.311 106V97.2727H207.544V98.2102H203.368V101.159H207.152V102.097H203.368V106H202.311ZM211.481 106.136C210.85 106.136 210.306 105.997 209.849 105.719C209.395 105.438 209.044 105.045 208.797 104.543C208.552 104.037 208.43 103.449 208.43 102.778C208.43 102.108 208.552 101.517 208.797 101.006C209.044 100.491 209.387 100.091 209.828 99.804C210.271 99.5142 210.788 99.3693 211.379 99.3693C211.72 99.3693 212.056 99.4261 212.389 99.5398C212.721 99.6534 213.024 99.8381 213.297 100.094C213.569 100.347 213.787 100.682 213.949 101.099C214.11 101.517 214.191 102.031 214.191 102.642V103.068H209.146V102.199H213.169C213.169 101.83 213.095 101.5 212.947 101.21C212.802 100.92 212.595 100.692 212.325 100.524C212.058 100.357 211.743 100.273 211.379 100.273C210.978 100.273 210.632 100.372 210.339 100.571C210.049 100.767 209.826 101.023 209.67 101.338C209.514 101.653 209.436 101.991 209.436 102.352V102.932C209.436 103.426 209.521 103.845 209.691 104.189C209.865 104.53 210.105 104.79 210.412 104.969C210.718 105.145 211.075 105.233 211.481 105.233C211.745 105.233 211.984 105.196 212.197 105.122C212.413 105.045 212.599 104.932 212.755 104.781C212.912 104.628 213.032 104.437 213.118 104.21L214.089 104.483C213.987 104.812 213.815 105.102 213.574 105.352C213.332 105.599 213.034 105.793 212.679 105.932C212.324 106.068 211.924 106.136 211.481 106.136ZM215.858 106V97.2727H216.863V100.494H216.949C217.022 100.381 217.125 100.236 217.255 100.06C217.389 99.8807 217.579 99.7216 217.826 99.5824C218.076 99.4403 218.414 99.3693 218.841 99.3693C219.392 99.3693 219.877 99.5071 220.298 99.7827C220.718 100.058 221.047 100.449 221.282 100.955C221.518 101.46 221.636 102.057 221.636 102.744C221.636 103.438 221.518 104.038 221.282 104.547C221.047 105.053 220.72 105.445 220.302 105.723C219.885 105.999 219.403 106.136 218.858 106.136C218.437 106.136 218.1 106.067 217.848 105.928C217.595 105.786 217.4 105.625 217.264 105.446C217.127 105.264 217.022 105.114 216.949 104.994H216.829V106H215.858ZM216.846 102.727C216.846 103.222 216.919 103.658 217.064 104.036C217.208 104.411 217.42 104.705 217.699 104.918C217.977 105.128 218.318 105.233 218.721 105.233C219.142 105.233 219.493 105.122 219.774 104.901C220.058 104.676 220.271 104.375 220.413 103.997C220.558 103.616 220.63 103.193 220.63 102.727C220.63 102.267 220.559 101.852 220.417 101.483C220.278 101.111 220.066 100.817 219.782 100.601C219.501 100.382 219.147 100.273 218.721 100.273C218.312 100.273 217.968 100.376 217.69 100.584C217.412 100.788 217.201 101.075 217.059 101.445C216.917 101.811 216.846 102.239 216.846 102.727ZM224.674 104.807L224.606 105.267C224.558 105.591 224.484 105.938 224.385 106.307C224.288 106.676 224.187 107.024 224.082 107.351C223.977 107.678 223.89 107.938 223.822 108.131H223.055C223.092 107.949 223.14 107.709 223.2 107.411C223.26 107.112 223.319 106.778 223.379 106.409C223.441 106.043 223.493 105.668 223.532 105.284L223.583 104.807H224.674ZM232.964 97.2727V106H231.907V98.3807H231.856L229.725 99.7955V98.7216L231.907 97.2727H232.964ZM235.269 104.21V103.341L239.104 97.2727H239.735V98.6193H239.309L236.411 103.205V103.273H241.576V104.21H235.269ZM239.377 106V103.946V103.541V97.2727H240.383V106H239.377ZM243.923 104.884C243.713 104.884 243.532 104.808 243.382 104.658C243.231 104.507 243.156 104.327 243.156 104.116C243.156 103.906 243.231 103.726 243.382 103.575C243.532 103.425 243.713 103.349 243.923 103.349C244.133 103.349 244.314 103.425 244.464 103.575C244.615 103.726 244.69 103.906 244.69 104.116C244.69 104.256 244.654 104.384 244.583 104.5C244.515 104.616 244.423 104.71 244.306 104.781C244.193 104.849 244.065 104.884 243.923 104.884ZM243.923 100.469C243.713 100.469 243.532 100.393 243.382 100.243C243.231 100.092 243.156 99.9119 243.156 99.7017C243.156 99.4915 243.231 99.3111 243.382 99.1605C243.532 99.0099 243.713 98.9347 243.923 98.9347C244.133 98.9347 244.314 99.0099 244.464 99.1605C244.615 99.3111 244.69 99.4915 244.69 99.7017C244.69 99.8409 244.654 99.9688 244.583 100.085C244.515 100.202 244.423 100.295 244.306 100.366C244.193 100.435 244.065 100.469 243.923 100.469ZM249.426 106.119C248.864 106.119 248.363 106.023 247.922 105.83C247.485 105.636 247.137 105.368 246.878 105.024C246.623 104.678 246.483 104.276 246.461 103.818H247.534C247.557 104.099 247.654 104.342 247.824 104.547C247.995 104.749 248.218 104.905 248.493 105.016C248.769 105.126 249.074 105.182 249.409 105.182C249.784 105.182 250.117 105.116 250.407 104.986C250.696 104.855 250.924 104.673 251.088 104.44C251.253 104.207 251.336 103.938 251.336 103.631C251.336 103.31 251.256 103.027 251.097 102.783C250.938 102.536 250.705 102.342 250.398 102.203C250.091 102.064 249.716 101.994 249.273 101.994H248.574V101.057H249.273C249.62 101.057 249.924 100.994 250.185 100.869C250.449 100.744 250.655 100.568 250.803 100.341C250.953 100.114 251.029 99.8466 251.029 99.5398C251.029 99.2443 250.963 98.9872 250.833 98.7685C250.702 98.5497 250.517 98.3793 250.279 98.2571C250.043 98.1349 249.765 98.0739 249.444 98.0739C249.142 98.0739 248.858 98.1293 248.591 98.2401C248.327 98.348 248.111 98.5057 247.944 98.7131C247.776 98.9176 247.685 99.1648 247.671 99.4545H246.648C246.665 98.9972 246.803 98.5966 247.061 98.2528C247.32 97.9062 247.658 97.6364 248.076 97.4432C248.496 97.25 248.958 97.1534 249.461 97.1534C250 97.1534 250.463 97.2628 250.85 97.4815C251.236 97.6974 251.533 97.983 251.74 98.3381C251.948 98.6932 252.051 99.0767 252.051 99.4886C252.051 99.9801 251.922 100.399 251.664 100.746C251.408 101.092 251.06 101.332 250.62 101.466V101.534C251.171 101.625 251.601 101.859 251.911 102.237C252.221 102.612 252.375 103.077 252.375 103.631C252.375 104.105 252.246 104.531 251.988 104.909C251.732 105.284 251.382 105.58 250.939 105.795C250.496 106.011 249.992 106.119 249.426 106.119ZM256.965 106.119C256.323 106.119 255.776 105.945 255.324 105.595C254.873 105.243 254.527 104.733 254.289 104.065C254.05 103.395 253.931 102.585 253.931 101.636C253.931 100.693 254.05 99.8878 254.289 99.2202C254.53 98.5497 254.877 98.0384 255.328 97.6861C255.783 97.331 256.328 97.1534 256.965 97.1534C257.601 97.1534 258.145 97.331 258.597 97.6861C259.051 98.0384 259.398 98.5497 259.637 99.2202C259.878 99.8878 259.999 100.693 259.999 101.636C259.999 102.585 259.88 103.395 259.641 104.065C259.402 104.733 259.057 105.243 258.605 105.595C258.154 105.945 257.607 106.119 256.965 106.119ZM256.965 105.182C257.601 105.182 258.096 104.875 258.448 104.261C258.8 103.648 258.976 102.773 258.976 101.636C258.976 100.881 258.895 100.237 258.733 99.706C258.574 99.1747 258.344 98.7699 258.043 98.4915C257.745 98.2131 257.385 98.0739 256.965 98.0739C256.334 98.0739 255.841 98.3849 255.486 99.0071C255.131 99.6264 254.953 100.503 254.953 101.636C254.953 102.392 255.033 103.034 255.192 103.562C255.351 104.091 255.58 104.493 255.878 104.768C256.179 105.044 256.542 105.182 256.965 105.182Z" fill="#888888"/>
</g>
<defs>
<filter id="filter0_ddd_3864_9925" x="0" y="0" width="305" height="136" filterUnits="userSpaceOnUse" color-interpolation-filters="sRGB">
<feFlood flood-opacity="0" result="BackgroundImageFix"/>
<feColorMatrix in="SourceAlpha" type="matrix" values="0 0 0 0 0 0 0 0 0 0 0 0 0 0 0 0 0 0 127 0" result="hardAlpha"/>
<feOffset dy="2"/>
<feGaussianBlur stdDeviation="4"/>
<feComposite in2="hardAlpha" operator="out"/>
<feColorMatrix type="matrix" values="0 0 0 0 0 0 0 0 0 0 0 0 0 0 0 0 0 0 0.03 0"/>
<feBlend mode="normal" in2="BackgroundImageFix" result="effect1_dropShadow_3864_9925"/>
<feColorMatrix in="SourceAlpha" type="matrix" values="0 0 0 0 0 0 0 0 0 0 0 0 0 0 0 0 0 0 127 0" result="hardAlpha"/>
<feOffset dy="1"/>
<feGaussianBlur stdDeviation="1"/>
<feComposite in2="hardAlpha" operator="out"/>
<feColorMatrix type="matrix" values="0 0 0 0 0 0 0 0 0 0 0 0 0 0 0 0 0 0 0.06 0"/>
<feBlend mode="normal" in2="effect1_dropShadow_3864_9925" result="effect2_dropShadow_3864_9925"/>
<feColorMatrix in="SourceAlpha" type="matrix" values="0 0 0 0 0 0 0 0 0 0 0 0 0 0 0 0 0 0 127 0" result="hardAlpha"/>
<feOffset dy="4"/>
<feGaussianBlur stdDeviation="3"/>
<feComposite in2="hardAlpha" operator="out"/>
<feColorMatrix type="matrix" values="0 0 0 0 0 0 0 0 0 0 0 0 0 0 0 0 0 0 0.02 0"/>
<feBlend mode="normal" in2="effect2_dropShadow_3864_9925" result="effect3_dropShadow_3864_9925"/>
<feBlend mode="normal" in="SourceGraphic" in2="effect3_dropShadow_3864_9925" result="shape"/>
</filter>
</defs>
</svg>
