<svg width="200" height="72" viewBox="0 0 200 72" fill="none" xmlns="http://www.w3.org/2000/svg">
<path d="M27.7432 14.6328C29.2538 13.7516 31.1221 13.7516 32.6328 14.6328L47.1885 23.123C48.6789 23.9925 49.5957 25.5888 49.5957 27.3144V44.3818C49.5957 46.1073 48.6788 47.7037 47.1885 48.5732L32.6328 57.0634C31.1221 57.9445 29.2538 57.9445 27.7432 57.0634L13.1885 48.5732C11.698 47.7038 10.7812 46.1074 10.7812 44.3818V27.3144C10.7812 25.5888 11.698 23.9925 13.1885 23.123L27.7432 14.6328ZM15.6328 27.3144V44.3818L30.1885 52.873L44.7432 44.3818V27.3144L30.1885 18.8232L15.6328 27.3144ZM28.9678 25.3124C29.7231 24.8717 30.6578 24.8717 31.4131 25.3124L38.6904 29.5585C39.4356 29.9934 39.8945 30.7913 39.8945 31.6542V40.1904C39.8945 41.0533 39.4356 41.8513 38.6904 42.2861L31.4131 46.5322C30.6578 46.9727 29.7231 46.9727 28.9678 46.5322C28.9684 37.2642 28.9648 35.8489 28.9678 25.3124Z" fill="#1F1F1F"/>
<path d="M60.2812 48.3208V23.6119H69.5512C71.4527 23.6119 73.0447 23.9435 74.3271 24.6069C75.6206 25.2702 76.599 26.1988 77.2623 27.3928C77.9257 28.5758 78.2573 29.9522 78.2573 31.522C78.2573 33.103 77.9201 34.4738 77.2458 35.6347C76.5824 36.7955 75.5985 37.691 74.294 38.3211C72.9894 38.9513 71.3864 39.2664 69.4849 39.2664H62.9013V35.5683H68.8713C69.9879 35.5683 70.8999 35.4135 71.6075 35.104C72.3261 34.7944 72.8512 34.3412 73.1829 33.7442C73.5256 33.1361 73.697 32.3954 73.697 31.522C73.697 30.6487 73.5256 29.9024 73.1829 29.2833C72.8402 28.6532 72.315 28.1778 71.6075 27.8572C70.8999 27.5255 69.9823 27.3597 68.8547 27.3597H64.7587V48.3208H60.2812ZM74.1613 48.3208L68.1748 37.1106H73.0502L79.1694 48.3208H74.1613Z" fill="#1F1F1F"/>
<path d="M86.1944 48.7022C85.0115 48.7022 83.9502 48.4921 83.0105 48.072C82.0708 47.6408 81.33 47.0107 80.7883 46.1815C80.2466 45.3524 79.9758 44.3297 79.9758 43.1136C79.9758 42.0744 80.1692 41.2121 80.5562 40.5267C80.9431 39.8412 81.4682 39.294 82.1316 38.8849C82.8059 38.4759 83.5632 38.1663 84.4034 37.9563C85.2437 37.7352 86.1115 37.5804 87.007 37.492C88.1015 37.3704 88.9859 37.2653 89.6603 37.1769C90.3347 37.0884 90.8211 36.9447 91.1196 36.7457C91.4292 36.5467 91.5839 36.2372 91.5839 35.8171V35.7342C91.5839 34.8387 91.3186 34.1422 90.788 33.6447C90.2573 33.1472 89.4834 32.8984 88.4663 32.8984C87.3939 32.8984 86.5427 33.1306 85.9125 33.5949C85.2934 34.0593 84.8733 34.6065 84.6522 35.2367L80.5893 34.6562C80.9099 33.5286 81.4406 32.5889 82.1813 31.8371C82.922 31.0743 83.823 30.5049 84.8844 30.1291C85.9567 29.7421 87.1397 29.5486 88.4332 29.5486C89.3176 29.5486 90.202 29.6537 91.0865 29.8637C91.9709 30.0627 92.7835 30.4054 93.5242 30.8919C94.2649 31.3783 94.8564 32.0306 95.2986 32.8487C95.7408 33.6668 95.9619 34.6894 95.9619 35.9166V48.3208H91.7664V45.767H91.6337C91.3684 46.2755 90.9925 46.7564 90.506 47.2097C90.0307 47.6519 89.4337 48.0112 88.7151 48.2876C88.0075 48.564 87.1673 48.7022 86.1944 48.7022ZM87.3055 45.485C88.1899 45.485 88.9528 45.3137 89.594 44.971C90.2352 44.6172 90.7327 44.1529 91.0865 43.578C91.4402 42.992 91.6171 42.3564 91.6171 41.6709V39.4985C91.4734 39.6091 91.2412 39.7141 90.9206 39.8136C90.6 39.902 90.2352 39.985 89.8261 40.0624C89.4171 40.1397 89.0136 40.2061 88.6156 40.2614C88.2286 40.3166 87.8914 40.3608 87.604 40.394C86.9517 40.4825 86.3658 40.6317 85.8462 40.8418C85.3376 41.0408 84.9341 41.3171 84.6356 41.6709C84.3371 42.0247 84.1879 42.4835 84.1879 43.0473C84.1879 43.8544 84.4808 44.4624 85.0668 44.8715C85.6527 45.2805 86.399 45.485 87.3055 45.485Z" fill="#1F1F1F"/>
<path d="M106.554 48.6524C105.106 48.6524 103.801 48.2821 102.64 47.5413C101.491 46.7896 100.584 45.7006 99.9208 44.2745C99.2575 42.8483 98.9259 41.1181 98.9259 39.0839C98.9259 37.0166 99.263 35.2754 99.9374 33.8603C100.623 32.4452 101.54 31.3728 102.69 30.6431C103.84 29.9135 105.128 29.5486 106.554 29.5486C107.649 29.5486 108.544 29.7311 109.241 30.0959C109.937 30.4607 110.49 30.9029 110.899 31.4225C111.319 31.9311 111.64 32.4065 111.861 32.8487H112.043V23.6119H116.388V48.3208H112.126V45.3855H111.861C111.629 45.8388 111.302 46.3197 110.882 46.8283C110.462 47.3258 109.904 47.7569 109.207 48.1218C108.511 48.4755 107.626 48.6524 106.554 48.6524ZM107.765 45.0705C108.693 45.0705 109.478 44.8217 110.119 44.3242C110.772 43.8157 111.269 43.1136 111.612 42.2182C111.955 41.3116 112.126 40.2614 112.126 39.0674C112.126 37.8623 111.955 36.8176 111.612 35.9332C111.28 35.0377 110.788 34.3467 110.136 33.8603C109.495 33.3738 108.704 33.1306 107.765 33.1306C106.803 33.1306 105.996 33.3849 105.344 33.8934C104.691 34.402 104.199 35.104 103.868 35.9995C103.547 36.895 103.387 37.9176 103.387 39.0674C103.387 40.2171 103.553 41.2453 103.884 42.1518C104.216 43.0584 104.702 43.7714 105.344 44.2911C105.996 44.8107 106.803 45.0705 107.765 45.0705Z" fill="#1F1F1F"/>
<path d="M118.771 48.3208V23.6119H128.041C129.943 23.6119 131.535 23.9657 132.817 24.6732C134.111 25.3807 135.089 26.3536 135.753 27.5918C136.416 28.83 136.748 30.2341 136.748 31.804C136.748 33.3849 136.41 34.7944 135.736 36.0327C135.073 37.2598 134.089 38.2272 132.784 38.9347C131.48 39.6312 129.877 39.9794 127.975 39.9794H121.839V36.298H127.362C128.478 36.298 129.39 36.11 130.098 35.7342C130.816 35.3472 131.341 34.8166 131.673 34.1422C132.016 33.4567 132.187 32.6773 132.187 31.804C132.187 30.9195 132.016 30.1456 131.673 29.4823C131.341 28.8079 130.816 28.2883 130.098 27.9235C129.39 27.5476 128.473 27.3597 127.345 27.3597H123.249V48.3208H118.771Z" fill="#1F1F1F"/>
<path d="M142.798 48.7022C141.615 48.7022 140.554 48.4921 139.614 48.072C138.674 47.6408 137.934 47.0107 137.392 46.1815C136.85 45.3524 136.579 44.3297 136.579 43.1136C136.579 42.0744 136.773 41.2121 137.16 40.5267C137.547 39.8412 138.072 39.294 138.735 38.8849C139.409 38.4759 140.167 38.1663 141.007 37.9563C141.847 37.7352 142.715 37.5804 143.611 37.492C144.705 37.3704 145.589 37.2653 146.264 37.1769C146.938 37.0884 147.425 36.9447 147.723 36.7457C148.033 36.5467 148.187 36.2372 148.187 35.8171V35.7342C148.187 34.8387 147.922 34.1422 147.391 33.6447C146.861 33.1472 146.087 32.8984 145.07 32.8984C143.997 32.8984 143.146 33.1306 142.516 33.5949C141.897 34.0593 141.477 34.6065 141.256 35.2367L137.193 34.6562C137.513 33.5286 138.044 32.5889 138.785 31.8371C139.526 31.0743 140.427 30.5049 141.488 30.1291C142.56 29.7421 143.743 29.5486 145.037 29.5486C145.921 29.5486 146.806 29.6537 147.69 29.8637C148.574 30.0627 149.387 30.4054 150.128 30.8919C150.868 31.3783 151.46 32.0306 151.902 32.8487C152.344 33.6668 152.565 34.6894 152.565 35.9166V48.3208H148.37V45.767H148.237C147.972 46.2755 147.596 46.7564 147.11 47.2097C146.634 47.6519 146.037 48.0112 145.319 48.2876C144.611 48.564 143.771 48.7022 142.798 48.7022ZM143.909 45.485C144.793 45.485 145.556 45.3137 146.197 44.971C146.839 44.6172 147.336 44.1529 147.69 43.578C148.044 42.992 148.221 42.3564 148.221 41.6709V39.4985C148.077 39.6091 147.845 39.7141 147.524 39.8136C147.204 39.902 146.839 39.985 146.43 40.0624C146.021 40.1397 145.617 40.2061 145.219 40.2614C144.832 40.3166 144.495 40.3608 144.208 40.394C143.555 40.4825 142.969 40.6317 142.45 40.8418C141.941 41.0408 141.538 41.3171 141.239 41.6709C140.941 42.0247 140.791 42.4835 140.791 43.0473C140.791 43.8544 141.084 44.4624 141.67 44.8715C142.256 45.2805 143.002 45.485 143.909 45.485Z" fill="#1F1F1F"/>
<path d="M169.065 34.706L165.102 35.1206C164.936 34.5125 164.576 33.9763 164.024 33.512C163.471 33.0366 162.692 32.7989 161.685 32.7989C160.779 32.7989 160.016 32.9979 159.397 33.3959C158.789 33.7939 158.485 34.3025 158.485 34.9216C158.485 35.4633 158.684 35.911 159.082 36.2648C159.491 36.6075 160.165 36.8839 161.105 37.094L164.272 37.7573C166.008 38.1221 167.307 38.7191 168.169 39.5483C169.032 40.3774 169.463 41.4498 169.463 42.7654C169.463 43.9262 169.126 44.9544 168.451 45.8499C167.777 46.7454 166.843 47.4418 165.649 47.9393C164.466 48.4368 163.101 48.6856 161.553 48.6856C159.286 48.6856 157.462 48.2102 156.08 47.2594C154.71 46.2976 153.886 44.9654 153.609 43.2629L157.871 42.8649C158.059 43.6941 158.468 44.3242 159.099 44.7554C159.74 45.1755 160.558 45.3855 161.553 45.3855C162.592 45.3855 163.427 45.1755 164.057 44.7554C164.687 44.3242 165.002 43.7991 165.002 43.18C165.002 42.1408 164.173 41.4332 162.515 41.0573L159.347 40.394C157.567 40.0071 156.252 39.3824 155.4 38.5201C154.549 37.6467 154.124 36.5357 154.124 35.1869C154.124 34.0371 154.439 33.0422 155.069 32.2019C155.699 31.3617 156.578 30.7095 157.706 30.2451C158.833 29.7808 160.138 29.5486 161.619 29.5486C163.797 29.5486 165.505 30.0185 166.743 30.9582C167.993 31.8869 168.766 33.1361 169.065 34.706Z" fill="#1F1F1F"/>
<path d="M186.045 34.706L182.082 35.1206C181.916 34.5125 181.557 33.9763 181.004 33.512C180.451 33.0366 179.672 32.7989 178.666 32.7989C177.759 32.7989 176.997 32.9979 176.377 33.3959C175.769 33.7939 175.465 34.3025 175.465 34.9216C175.465 35.4633 175.664 35.911 176.062 36.2648C176.471 36.6075 177.146 36.8839 178.086 37.094L181.253 37.7573C182.989 38.1221 184.288 38.7191 185.15 39.5483C186.012 40.3774 186.443 41.4498 186.443 42.7654C186.443 43.9262 186.106 44.9544 185.432 45.8499C184.757 46.7454 183.823 47.4418 182.629 47.9393C181.446 48.4368 180.081 48.6856 178.533 48.6856C176.267 48.6856 174.443 48.2102 173.061 47.2594C171.69 46.2976 170.866 44.9654 170.59 43.2629L174.852 42.8649C175.04 43.6941 175.449 44.3242 176.079 44.7554C176.72 45.1755 177.538 45.3855 178.533 45.3855C179.572 45.3855 180.407 45.1755 181.037 44.7554C181.667 44.3242 181.983 43.7991 181.983 43.18C181.983 42.1408 181.153 41.4332 179.495 41.0573L176.328 40.394C174.548 40.0071 173.232 39.3824 172.381 38.5201C171.53 37.6467 171.104 36.5357 171.104 35.1869C171.104 34.0371 171.419 33.0422 172.049 32.2019C172.679 31.3617 173.558 30.7095 174.686 30.2451C175.814 29.7808 177.118 29.5486 178.6 29.5486C180.778 29.5486 182.486 30.0185 183.724 30.9582C184.973 31.8869 185.747 33.1361 186.045 34.706Z" fill="#1F1F1F"/>
</svg>
